<svg width="39" height="38" viewBox="0 0 39 38" fill="none" xmlns="http://www.w3.org/2000/svg">
<rect width="39" height="38" fill="#FFCA7F"/>
<path d="M24.1602 19.2188V19.2773C24.2773 19.1602 24.3359 18.9844 24.3359 18.75C24.3359 18.5742 24.2773 18.3984 24.1602 18.2227L17.2461 11.4258C17.1289 11.3086 16.9531 11.25 16.7773 11.25C16.543 11.25 16.3672 11.3086 16.25 11.4258L15.8398 11.8945C15.7227 12.0117 15.6641 12.1875 15.6641 12.3633C15.6641 12.5977 15.7227 12.7734 15.8398 12.8906L21.8164 18.75L15.8398 24.6094C15.6641 24.7852 15.6055 24.9609 15.6055 25.1367C15.6055 25.3711 15.6641 25.4883 15.8398 25.6055L16.25 26.0156C16.3672 26.1914 16.543 26.25 16.7773 26.25C16.9531 26.25 17.1289 26.1914 17.2461 26.0156L24.1602 19.2188Z" fill="#4B5057"/>
</svg>
