<svg width="233" height="488" viewBox="0 0 233 488" fill="none" xmlns="http://www.w3.org/2000/svg">
<rect width="233" height="488" fill="#E5E5E5"/>
<g clip-path="url(#clip0)">
<rect x="-1207" y="-957" width="1440" height="5211" fill="#393939"/>
<mask id="path-2-inside-1" fill="white">
<path d="M301.538 196.194H10.8276C4.85077 196.194 0 201.045 0 207.022V227.567C0 237.009 0.887874 246.245 2.50119 255.232C2.52826 255.378 2.5445 255.524 2.57698 255.665C12.1432 308.07 47.9068 351.44 95.7919 371.596L63.4173 473.132C61.5983 478.833 64.7437 484.923 70.4444 486.737C71.538 487.083 72.6424 487.256 73.736 487.256C78.3215 487.256 82.5822 484.317 84.0439 479.71L99.0997 432.485H145.355V476.418C145.355 482.395 150.206 487.246 156.183 487.246C162.16 487.246 167.01 482.395 167.01 476.418V432.485H213.255L228.311 479.71C229.778 484.317 234.039 487.256 238.619 487.256C239.712 487.256 240.817 487.089 241.91 486.737C247.611 484.923 250.757 478.833 248.938 473.132L216.563 371.596C264.47 351.435 300.25 308.027 309.794 255.584C309.81 255.513 309.821 255.437 309.832 255.367C311.462 246.337 312.36 237.057 312.36 227.567V207.022C312.366 201.045 307.515 196.194 301.538 196.194ZM21.6552 217.849H290.705V227.567C290.705 232.613 290.402 237.588 289.855 242.493H22.5052C21.9638 237.588 21.6552 232.613 21.6552 227.567V217.849ZM106.013 410.83L116.299 378.569C125.671 381.048 135.388 382.646 145.355 383.333V410.83H106.013ZM206.353 410.83H167.01V383.333C176.977 382.646 186.695 381.048 196.066 378.569L206.353 410.83ZM156.183 362.095C94.6874 362.095 42.7312 320.598 26.755 264.148H285.611C269.634 320.598 217.678 362.095 156.183 362.095Z"/>
</mask>
<path d="M301.538 196.194H10.8276C4.85077 196.194 0 201.045 0 207.022V227.567C0 237.009 0.887874 246.245 2.50119 255.232C2.52826 255.378 2.5445 255.524 2.57698 255.665C12.1432 308.07 47.9068 351.44 95.7919 371.596L63.4173 473.132C61.5983 478.833 64.7437 484.923 70.4444 486.737C71.538 487.083 72.6424 487.256 73.736 487.256C78.3215 487.256 82.5822 484.317 84.0439 479.71L99.0997 432.485H145.355V476.418C145.355 482.395 150.206 487.246 156.183 487.246C162.16 487.246 167.01 482.395 167.01 476.418V432.485H213.255L228.311 479.71C229.778 484.317 234.039 487.256 238.619 487.256C239.712 487.256 240.817 487.089 241.91 486.737C247.611 484.923 250.757 478.833 248.938 473.132L216.563 371.596C264.47 351.435 300.25 308.027 309.794 255.584C309.81 255.513 309.821 255.437 309.832 255.367C311.462 246.337 312.36 237.057 312.36 227.567V207.022C312.366 201.045 307.515 196.194 301.538 196.194ZM21.6552 217.849H290.705V227.567C290.705 232.613 290.402 237.588 289.855 242.493H22.5052C21.9638 237.588 21.6552 232.613 21.6552 227.567V217.849ZM106.013 410.83L116.299 378.569C125.671 381.048 135.388 382.646 145.355 383.333V410.83H106.013ZM206.353 410.83H167.01V383.333C176.977 382.646 186.695 381.048 196.066 378.569L206.353 410.83ZM156.183 362.095C94.6874 362.095 42.7312 320.598 26.755 264.148H285.611C269.634 320.598 217.678 362.095 156.183 362.095Z" fill="#F0E6DF" fill-opacity="0.16" stroke="#393939" stroke-width="6" mask="url(#path-2-inside-1)"/>
<mask id="path-3-inside-2" fill="white">
<path d="M130.598 131.505C132.444 132.734 134.523 133.313 136.575 133.313C140.077 133.313 143.52 131.618 145.605 128.473C148.913 123.487 147.554 116.768 142.573 113.466C126.115 102.541 116.814 83.6628 118.298 64.2002C120.539 34.7978 146.168 20.9872 147.261 20.4079C152.556 17.6252 154.586 11.0745 151.798 5.78522C149.021 0.501353 142.465 -1.53965 137.175 1.24846C135.654 2.04429 99.8419 21.3499 96.7073 62.549C94.6338 89.8345 107.616 116.254 130.598 131.505Z"/>
</mask>
<path d="M130.598 131.505C132.444 132.734 134.523 133.313 136.575 133.313C140.077 133.313 143.52 131.618 145.605 128.473C148.913 123.487 147.554 116.768 142.573 113.466C126.115 102.541 116.814 83.6628 118.298 64.2002C120.539 34.7978 146.168 20.9872 147.261 20.4079C152.556 17.6252 154.586 11.0745 151.798 5.78522C149.021 0.501353 142.465 -1.53965 137.175 1.24846C135.654 2.04429 99.8419 21.3499 96.7073 62.549C94.6338 89.8345 107.616 116.254 130.598 131.505Z" fill="#F0E6DF" fill-opacity="0.16" stroke="#393939" stroke-width="6" mask="url(#path-3-inside-2)"/>
<mask id="path-4-inside-3" fill="white">
<path d="M165.1 66.2034C166.188 66.7772 191.828 80.5932 194.064 109.99C195.547 129.458 186.246 148.336 169.788 159.261C164.807 162.564 163.449 169.288 166.756 174.268C168.841 177.408 172.284 179.108 175.787 179.108C177.844 179.108 179.923 178.529 181.763 177.3C204.745 162.049 217.733 135.625 215.654 108.344C212.519 67.1508 176.712 47.8451 175.186 47.0493C169.869 44.2612 163.34 46.2968 160.563 51.5861C157.78 56.8699 159.811 63.4207 165.1 66.2034Z"/>
</mask>
<path d="M165.1 66.2034C166.188 66.7772 191.828 80.5932 194.064 109.99C195.547 129.458 186.246 148.336 169.788 159.261C164.807 162.564 163.449 169.288 166.756 174.268C168.841 177.408 172.284 179.108 175.787 179.108C177.844 179.108 179.923 178.529 181.763 177.3C204.745 162.049 217.733 135.625 215.654 108.344C212.519 67.1508 176.712 47.8451 175.186 47.0493C169.869 44.2612 163.34 46.2968 160.563 51.5861C157.78 56.8699 159.811 63.4207 165.1 66.2034Z" fill="#F0E6DF" fill-opacity="0.16" stroke="#393939" stroke-width="6" mask="url(#path-4-inside-3)"/>
</g>
<defs>
<clipPath id="clip0">
<rect x="-1207" y="-957" width="1440" height="5211" fill="white"/>
</clipPath>
</defs>
</svg>
