<svg width="233" height="490" viewBox="0 0 233 490" fill="none" xmlns="http://www.w3.org/2000/svg">
<path d="M2.50119 256.254C0.887873 247.237 0 237.97 0 228.497V207.884C0 201.887 4.85077 197.02 10.8276 197.02H301.538C307.515 197.02 312.366 201.887 312.36 207.884V228.497C312.36 238.019 311.462 247.329 309.832 256.389C309.821 256.46 309.81 256.536 309.794 256.607C300.25 309.224 264.47 352.776 216.563 373.004L248.938 474.877C250.757 480.596 247.611 486.707 241.91 488.527C240.817 488.88 239.712 489.048 238.619 489.048C234.039 489.048 229.778 486.099 228.311 481.476L213.255 434.095H168.51H167.01V435.595V478.174C167.01 484.171 162.16 489.037 156.183 489.037C150.206 489.037 145.355 484.171 145.355 478.174V435.595V434.095H143.855H99.0997L84.0439 481.476C82.5822 486.099 78.3215 489.048 73.736 489.048C72.6424 489.048 71.538 488.874 70.4444 488.527M2.50119 256.254C2.51169 256.311 2.52056 256.367 2.52938 256.424C2.5433 256.513 2.5571 256.602 2.57698 256.688C12.1432 309.268 47.9068 352.782 95.7919 373.004L63.4173 474.877C61.5983 480.596 64.7437 486.707 70.4444 488.527M2.50119 256.254L3.97627 255.981C3.97653 255.983 3.97678 255.984 3.97704 255.986M2.50119 256.254L3.97774 255.989C3.9775 255.988 3.97727 255.987 3.97704 255.986M70.4444 488.527L70.8988 487.097M70.4444 488.527L70.9005 487.098C70.9 487.098 70.8994 487.097 70.8988 487.097M70.8988 487.097C71.8512 487.4 72.8025 487.548 73.736 487.548C77.6842 487.548 81.3543 485.007 82.6137 481.024L82.6143 481.022L97.6701 433.641L98.0024 432.595H99.0997H145.355H146.855V434.095V478.174C146.855 483.347 151.039 487.537 156.183 487.537C161.327 487.537 165.51 483.347 165.51 478.174V434.095V432.595H167.01H213.255H214.352L214.685 433.641L229.741 481.022L229.741 481.023C231.005 485.007 234.677 487.548 238.619 487.548C239.557 487.548 240.506 487.404 241.45 487.099L241.454 487.098C246.362 485.531 249.078 480.266 247.508 475.331L247.508 475.331L215.133 373.458L214.719 372.154L215.979 371.622C263.427 351.588 298.865 308.451 308.318 256.339L308.324 256.304L308.332 256.273C308.332 256.273 308.332 256.273 308.332 256.272C308.332 256.27 308.333 256.264 308.335 256.252L308.341 256.215L308.345 256.191L308.349 256.162L308.352 256.143L308.356 256.124C309.97 247.146 310.86 237.925 310.86 228.497V207.884V207.882C310.865 202.711 306.682 198.52 301.538 198.52H10.8276C5.68388 198.52 1.5 202.711 1.5 207.884V228.497C1.5 237.875 2.37878 247.052 3.97704 255.986M70.8988 487.097C65.992 485.53 63.2775 480.266 64.8468 475.331L64.8469 475.331L97.2214 373.458L97.6358 372.154L96.3754 371.622C48.9493 351.594 13.527 308.494 4.05275 256.42L4.04656 256.386L4.03881 256.352C4.02543 256.294 4.02347 256.278 4.01975 256.248C4.01534 256.212 4.00845 256.156 3.97704 255.986M21.6552 217.247H20.1552V218.747V228.497C20.1552 233.621 20.4675 238.668 21.0142 243.637L21.1612 244.973H22.5052H289.855H291.198L291.346 243.638C291.898 238.667 292.205 233.62 292.205 228.497V218.747V217.247H290.705H21.6552ZM104.584 411.914L103.963 413.868H106.013H145.355H146.855V412.368V384.78V383.38L145.459 383.284C135.585 382.6 125.961 381.013 116.684 378.55L115.303 378.184L114.87 379.546L104.584 411.914ZM206.353 413.868H208.403L207.782 411.914L197.496 379.546L197.063 378.184L195.681 378.55C186.404 381.013 176.781 382.6 166.907 383.284L165.51 383.38V384.78V412.368V413.868H167.01H206.353ZM26.755 263.7H24.7734L25.3114 265.607C41.4636 322.868 93.9932 364.971 156.183 364.971C218.372 364.971 270.902 322.868 287.054 265.607L287.592 263.7H285.611H26.755Z" fill="#F0E6DF" fill-opacity="0.16" stroke="#393939" stroke-width="3"/>
<path d="M131.429 130.867L131.431 130.869C133.021 131.931 134.808 132.43 136.574 132.43C139.595 132.43 142.558 130.965 144.353 128.248L144.353 128.247C147.207 123.932 146.032 118.12 141.742 115.266L141.741 115.266C124.837 104.008 115.277 84.5491 116.802 64.4748L118.297 64.5884L116.802 64.4747C119.108 34.1247 145.424 19.9285 146.557 19.3263L146.562 19.324C151.121 16.9196 152.875 11.2543 150.47 6.67735L150.469 6.67579C148.076 2.10723 142.428 0.346477 137.876 2.75387L137.872 2.75607C136.402 3.52804 101.273 22.5583 98.2028 63.045L131.429 130.867ZM131.429 130.867C108.895 115.865 96.1706 89.8768 98.2028 63.0451L131.429 130.867ZM151.798 5.97971C149.021 0.678308 142.465 -1.36946 137.175 1.42789L147.261 20.6509C152.556 17.859 154.586 11.2865 151.798 5.97971Z" fill="#F0E6DF" fill-opacity="0.16" stroke="#393939" stroke-width="3"/>
<path d="M195.559 110.417C193.259 80.0721 166.932 65.8707 165.801 65.2725L165.8 65.2718C161.245 62.8672 159.492 57.2013 161.891 52.6297L161.892 52.6281C164.285 48.0562 169.905 46.2973 174.487 48.7082L174.491 48.7099C175.964 49.4806 211.088 68.5111 214.158 108.993L214.158 108.993C216.196 135.819 203.466 161.812 180.932 176.815L180.929 176.817C179.345 177.878 177.559 178.378 175.787 178.378C172.767 178.378 169.803 176.908 168.007 174.194L168.007 174.194C165.155 169.884 166.329 164.068 170.619 161.214L170.62 161.213C187.524 149.955 197.084 130.497 195.559 110.417ZM195.559 110.417L194.064 110.53M195.559 110.417L194.064 110.53M194.064 110.53C195.547 130.063 186.246 149.004 169.788 159.965M194.064 110.53C191.828 81.0359 166.188 67.1741 165.1 66.5983C159.811 63.8064 157.78 57.2339 160.563 51.9325C163.34 46.6257 169.869 44.5834 175.186 47.3807C176.712 48.1792 212.519 67.5489 215.654 108.879L169.788 159.965M169.788 159.965C164.807 163.278 163.449 170.025 166.756 175.022C168.841 178.172 172.284 179.878 175.787 179.878C177.844 179.878 179.923 179.297 181.763 178.064L169.788 159.965Z" fill="#F0E6DF" fill-opacity="0.16" stroke="#393939" stroke-width="3"/>
</svg>
