<svg width="1165" height="409" viewBox="0 0 1165 409" fill="none" xmlns="http://www.w3.org/2000/svg">
<mask id="mask0" mask-type="alpha" maskUnits="userSpaceOnUse" x="-1" y="-1" width="1166" height="410">
<line y1="-0.5" x2="501.14" y2="-0.5" transform="matrix(0.5789 -0.815399 0.262827 0.964843 164.951 409)" stroke="#D3D5D8" stroke-opacity="0.24"/>
<line y1="-0.5" x2="501.14" y2="-0.5" transform="matrix(0.5789 -0.815399 0.262827 0.964843 174.115 409)" stroke="#D3D5D8" stroke-opacity="0.24"/>
<line y1="-0.5" x2="501.14" y2="-0.5" transform="matrix(0.5789 -0.815399 0.262827 0.964843 183.278 409)" stroke="#D3D5D8" stroke-opacity="0.24"/>
<line y1="-0.5" x2="501.14" y2="-0.5" transform="matrix(0.5789 -0.815399 0.262827 0.964843 192.442 409)" stroke="#D3D5D8" stroke-opacity="0.24"/>
<line y1="-0.5" x2="501.14" y2="-0.5" transform="matrix(0.5789 -0.815399 0.262827 0.964843 201.606 409)" stroke="#D3D5D8" stroke-opacity="0.24"/>
<line y1="-0.5" x2="501.14" y2="-0.5" transform="matrix(0.5789 -0.815399 0.262827 0.964843 210.77 409)" stroke="#D3D5D8" stroke-opacity="0.24"/>
<line y1="-0.5" x2="501.14" y2="-0.5" transform="matrix(0.5789 -0.815399 0.262827 0.964843 109.967 409)" stroke="#D3D5D8" stroke-opacity="0.24"/>
<line y1="-0.5" x2="501.14" y2="-0.5" transform="matrix(0.5789 -0.815399 0.262827 0.964843 119.131 409)" stroke="#D3D5D8" stroke-opacity="0.24"/>
<line y1="-0.5" x2="501.14" y2="-0.5" transform="matrix(0.5789 -0.815399 0.262827 0.964843 128.295 409)" stroke="#D3D5D8" stroke-opacity="0.24"/>
<line y1="-0.5" x2="501.14" y2="-0.5" transform="matrix(0.5789 -0.815399 0.262827 0.964843 137.459 409)" stroke="#D3D5D8" stroke-opacity="0.24"/>
<line y1="-0.5" x2="501.14" y2="-0.5" transform="matrix(0.5789 -0.815399 0.262827 0.964843 146.623 409)" stroke="#D3D5D8" stroke-opacity="0.24"/>
<line y1="-0.5" x2="501.14" y2="-0.5" transform="matrix(0.5789 -0.815399 0.262827 0.964843 155.787 409)" stroke="#D3D5D8" stroke-opacity="0.24"/>
<line y1="-0.5" x2="501.14" y2="-0.5" transform="matrix(0.5789 -0.815399 0.262827 0.964843 54.9835 409)" stroke="#D3D5D8" stroke-opacity="0.24"/>
<line y1="-0.5" x2="501.14" y2="-0.5" transform="matrix(0.5789 -0.815399 0.262827 0.964843 64.1475 409)" stroke="#D3D5D8" stroke-opacity="0.24"/>
<line y1="-0.5" x2="501.14" y2="-0.5" transform="matrix(0.5789 -0.815399 0.262827 0.964843 73.3114 409)" stroke="#D3D5D8" stroke-opacity="0.24"/>
<line y1="-0.5" x2="501.14" y2="-0.5" transform="matrix(0.5789 -0.815399 0.262827 0.964843 82.4753 409)" stroke="#D3D5D8" stroke-opacity="0.24"/>
<line y1="-0.5" x2="501.14" y2="-0.5" transform="matrix(0.5789 -0.815399 0.262827 0.964843 91.6392 409)" stroke="#D3D5D8" stroke-opacity="0.24"/>
<line y1="-0.5" x2="501.14" y2="-0.5" transform="matrix(0.5789 -0.815399 0.262827 0.964843 100.803 409)" stroke="#D3D5D8" stroke-opacity="0.24"/>
<line y1="-0.5" x2="501.31" y2="-0.5" transform="matrix(0.578246 -0.815863 0.262412 0.964956 0 409)" stroke="#D3D5D8" stroke-opacity="0.24"/>
<line y1="-0.5" x2="501.14" y2="-0.5" transform="matrix(0.5789 -0.815399 0.262827 0.964843 9.16394 409)" stroke="#D3D5D8" stroke-opacity="0.24"/>
<line y1="-0.5" x2="501.14" y2="-0.5" transform="matrix(0.5789 -0.815399 0.262827 0.964843 18.3279 409)" stroke="#D3D5D8" stroke-opacity="0.24"/>
<line y1="-0.5" x2="501.14" y2="-0.5" transform="matrix(0.5789 -0.815399 0.262827 0.964843 27.4917 409)" stroke="#D3D5D8" stroke-opacity="0.24"/>
<line y1="-0.5" x2="501.14" y2="-0.5" transform="matrix(0.5789 -0.815399 0.262827 0.964843 36.6556 409)" stroke="#D3D5D8" stroke-opacity="0.24"/>
<line y1="-0.5" x2="501.14" y2="-0.5" transform="matrix(0.5789 -0.815399 0.262827 0.964843 45.8196 409)" stroke="#D3D5D8" stroke-opacity="0.24"/>
<line y1="-0.5" x2="501.14" y2="-0.5" transform="matrix(0.5789 -0.815399 0.262827 0.964843 386.789 409)" stroke="#D3D5D8" stroke-opacity="0.24"/>
<line y1="-0.5" x2="501.14" y2="-0.5" transform="matrix(0.5789 -0.815399 0.262827 0.964843 395.953 409)" stroke="#D3D5D8" stroke-opacity="0.24"/>
<line y1="-0.5" x2="501.14" y2="-0.5" transform="matrix(0.5789 -0.815399 0.262827 0.964843 405.117 409)" stroke="#D3D5D8" stroke-opacity="0.24"/>
<line y1="-0.5" x2="501.14" y2="-0.5" transform="matrix(0.5789 -0.815399 0.262827 0.964843 414.281 409)" stroke="#D3D5D8" stroke-opacity="0.24"/>
<line y1="-0.5" x2="501.14" y2="-0.5" transform="matrix(0.5789 -0.815399 0.262827 0.964843 423.445 409)" stroke="#D3D5D8" stroke-opacity="0.24"/>
<line y1="-0.5" x2="501.14" y2="-0.5" transform="matrix(0.5789 -0.815399 0.262827 0.964843 432.608 409)" stroke="#D3D5D8" stroke-opacity="0.24"/>
<line y1="-0.5" x2="501.14" y2="-0.5" transform="matrix(0.5789 -0.815399 0.262827 0.964843 331.805 409)" stroke="#D3D5D8" stroke-opacity="0.24"/>
<line y1="-0.5" x2="501.14" y2="-0.5" transform="matrix(0.5789 -0.815399 0.262827 0.964843 340.969 409)" stroke="#D3D5D8" stroke-opacity="0.24"/>
<line y1="-0.5" x2="501.14" y2="-0.5" transform="matrix(0.5789 -0.815399 0.262827 0.964843 350.133 409)" stroke="#D3D5D8" stroke-opacity="0.24"/>
<line y1="-0.5" x2="501.14" y2="-0.5" transform="matrix(0.5789 -0.815399 0.262827 0.964843 359.297 409)" stroke="#D3D5D8" stroke-opacity="0.24"/>
<line y1="-0.5" x2="501.14" y2="-0.5" transform="matrix(0.5789 -0.815399 0.262827 0.964843 368.461 409)" stroke="#D3D5D8" stroke-opacity="0.24"/>
<line y1="-0.5" x2="501.14" y2="-0.5" transform="matrix(0.5789 -0.815399 0.262827 0.964843 377.625 409)" stroke="#D3D5D8" stroke-opacity="0.24"/>
<line y1="-0.5" x2="501.14" y2="-0.5" transform="matrix(0.5789 -0.815399 0.262827 0.964843 276.822 409)" stroke="#D3D5D8" stroke-opacity="0.24"/>
<line y1="-0.5" x2="501.14" y2="-0.5" transform="matrix(0.5789 -0.815399 0.262827 0.964843 285.986 409)" stroke="#D3D5D8" stroke-opacity="0.24"/>
<line y1="-0.5" x2="501.14" y2="-0.5" transform="matrix(0.5789 -0.815399 0.262827 0.964843 295.15 409)" stroke="#D3D5D8" stroke-opacity="0.24"/>
<line y1="-0.5" x2="501.14" y2="-0.5" transform="matrix(0.5789 -0.815399 0.262827 0.964843 304.313 409)" stroke="#D3D5D8" stroke-opacity="0.24"/>
<line y1="-0.5" x2="501.14" y2="-0.5" transform="matrix(0.5789 -0.815399 0.262827 0.964843 313.478 409)" stroke="#D3D5D8" stroke-opacity="0.24"/>
<line y1="-0.5" x2="501.14" y2="-0.5" transform="matrix(0.5789 -0.815399 0.262827 0.964843 322.642 409)" stroke="#D3D5D8" stroke-opacity="0.24"/>
<line y1="-0.5" x2="501.14" y2="-0.5" transform="matrix(0.5789 -0.815399 0.262827 0.964843 221.838 409)" stroke="#D3D5D8" stroke-opacity="0.24"/>
<line y1="-0.5" x2="501.14" y2="-0.5" transform="matrix(0.5789 -0.815399 0.262827 0.964843 231.002 409)" stroke="#D3D5D8" stroke-opacity="0.24"/>
<line y1="-0.5" x2="501.14" y2="-0.5" transform="matrix(0.5789 -0.815399 0.262827 0.964843 240.166 409)" stroke="#D3D5D8" stroke-opacity="0.24"/>
<line y1="-0.5" x2="501.14" y2="-0.5" transform="matrix(0.5789 -0.815399 0.262827 0.964843 249.33 409)" stroke="#D3D5D8" stroke-opacity="0.24"/>
<line y1="-0.5" x2="501.14" y2="-0.5" transform="matrix(0.5789 -0.815399 0.262827 0.964843 258.494 409)" stroke="#D3D5D8" stroke-opacity="0.24"/>
<line y1="-0.5" x2="501.14" y2="-0.5" transform="matrix(0.5789 -0.815399 0.262827 0.964843 267.658 409)" stroke="#D3D5D8" stroke-opacity="0.24"/>
<line y1="-0.5" x2="501.14" y2="-0.5" transform="matrix(0.5789 -0.815399 0.262827 0.964843 607.232 409)" stroke="#D3D5D8" stroke-opacity="0.24"/>
<line y1="-0.5" x2="501.14" y2="-0.5" transform="matrix(0.5789 -0.815399 0.262827 0.964843 616.396 409)" stroke="#D3D5D8" stroke-opacity="0.24"/>
<line y1="-0.5" x2="501.14" y2="-0.5" transform="matrix(0.5789 -0.815399 0.262827 0.964843 625.56 409)" stroke="#D3D5D8" stroke-opacity="0.24"/>
<line y1="-0.5" x2="501.14" y2="-0.5" transform="matrix(0.5789 -0.815399 0.262827 0.964843 634.724 409)" stroke="#D3D5D8" stroke-opacity="0.24"/>
<line y1="-0.5" x2="501.14" y2="-0.5" transform="matrix(0.5789 -0.815399 0.262827 0.964843 643.888 409)" stroke="#D3D5D8" stroke-opacity="0.24"/>
<line y1="-0.5" x2="501.14" y2="-0.5" transform="matrix(0.5789 -0.815399 0.262827 0.964843 653.052 409)" stroke="#D3D5D8" stroke-opacity="0.24"/>
<line y1="-0.5" x2="501.14" y2="-0.5" transform="matrix(0.5789 -0.815399 0.262827 0.964843 552.249 409)" stroke="#D3D5D8" stroke-opacity="0.24"/>
<line y1="-0.5" x2="501.14" y2="-0.5" transform="matrix(0.5789 -0.815399 0.262827 0.964843 561.412 409)" stroke="#D3D5D8" stroke-opacity="0.24"/>
<line y1="-0.5" x2="501.14" y2="-0.5" transform="matrix(0.5789 -0.815399 0.262827 0.964843 570.576 409)" stroke="#D3D5D8" stroke-opacity="0.24"/>
<line y1="-0.5" x2="501.14" y2="-0.5" transform="matrix(0.5789 -0.815399 0.262827 0.964843 579.74 409)" stroke="#D3D5D8" stroke-opacity="0.24"/>
<line y1="-0.5" x2="501.14" y2="-0.5" transform="matrix(0.5789 -0.815399 0.262827 0.964843 588.904 409)" stroke="#D3D5D8" stroke-opacity="0.24"/>
<line y1="-0.5" x2="501.14" y2="-0.5" transform="matrix(0.5789 -0.815399 0.262827 0.964843 598.068 409)" stroke="#D3D5D8" stroke-opacity="0.24"/>
<line y1="-0.5" x2="501.14" y2="-0.5" transform="matrix(0.5789 -0.815399 0.262827 0.964843 497.265 409)" stroke="#D3D5D8" stroke-opacity="0.24"/>
<line y1="-0.5" x2="501.14" y2="-0.5" transform="matrix(0.5789 -0.815399 0.262827 0.964843 506.429 409)" stroke="#D3D5D8" stroke-opacity="0.24"/>
<line y1="-0.5" x2="501.14" y2="-0.5" transform="matrix(0.5789 -0.815399 0.262827 0.964843 515.593 409)" stroke="#D3D5D8" stroke-opacity="0.24"/>
<line y1="-0.5" x2="501.14" y2="-0.5" transform="matrix(0.5789 -0.815399 0.262827 0.964843 524.757 409)" stroke="#D3D5D8" stroke-opacity="0.24"/>
<line y1="-0.5" x2="501.14" y2="-0.5" transform="matrix(0.5789 -0.815399 0.262827 0.964843 533.921 409)" stroke="#D3D5D8" stroke-opacity="0.24"/>
<line y1="-0.5" x2="501.14" y2="-0.5" transform="matrix(0.5789 -0.815399 0.262827 0.964843 543.085 409)" stroke="#D3D5D8" stroke-opacity="0.24"/>
<line y1="-0.5" x2="501.14" y2="-0.5" transform="matrix(0.5789 -0.815399 0.262827 0.964843 442.281 409)" stroke="#D3D5D8" stroke-opacity="0.24"/>
<line y1="-0.5" x2="501.14" y2="-0.5" transform="matrix(0.5789 -0.815399 0.262827 0.964843 451.445 409)" stroke="#D3D5D8" stroke-opacity="0.24"/>
<line y1="-0.5" x2="501.14" y2="-0.5" transform="matrix(0.5789 -0.815399 0.262827 0.964843 460.609 409)" stroke="#D3D5D8" stroke-opacity="0.24"/>
<line y1="-0.5" x2="501.14" y2="-0.5" transform="matrix(0.5789 -0.815399 0.262827 0.964843 469.773 409)" stroke="#D3D5D8" stroke-opacity="0.24"/>
<line y1="-0.5" x2="501.14" y2="-0.5" transform="matrix(0.5789 -0.815399 0.262827 0.964843 478.937 409)" stroke="#D3D5D8" stroke-opacity="0.24"/>
<line y1="-0.5" x2="501.14" y2="-0.5" transform="matrix(0.5789 -0.815399 0.262827 0.964843 488.101 409)" stroke="#D3D5D8" stroke-opacity="0.24"/>
<line y1="-0.5" x2="501.14" y2="-0.5" transform="matrix(0.5789 -0.815399 0.262827 0.964843 829.07 409)" stroke="#D3D5D8" stroke-opacity="0.24"/>
<line y1="-0.5" x2="501.14" y2="-0.5" transform="matrix(0.5789 -0.815399 0.262827 0.964843 838.234 409)" stroke="#D3D5D8" stroke-opacity="0.24"/>
<line y1="-0.5" x2="501.14" y2="-0.5" transform="matrix(0.5789 -0.815399 0.262827 0.964843 847.398 409)" stroke="#D3D5D8" stroke-opacity="0.24"/>
<line y1="-0.5" x2="501.14" y2="-0.5" transform="matrix(0.5789 -0.815399 0.262827 0.964843 856.562 409)" stroke="#D3D5D8" stroke-opacity="0.24"/>
<line y1="-0.5" x2="501.14" y2="-0.5" transform="matrix(0.5789 -0.815399 0.262827 0.964843 865.726 409)" stroke="#D3D5D8" stroke-opacity="0.24"/>
<line y1="-0.5" x2="501.14" y2="-0.5" transform="matrix(0.5789 -0.815399 0.262827 0.964843 874.89 409)" stroke="#D3D5D8" stroke-opacity="0.24"/>
<line y1="-0.5" x2="501.14" y2="-0.5" transform="matrix(0.5789 -0.815399 0.262827 0.964843 774.087 409)" stroke="#D3D5D8" stroke-opacity="0.24"/>
<line y1="-0.5" x2="501.14" y2="-0.5" transform="matrix(0.5789 -0.815399 0.262827 0.964843 783.251 409)" stroke="#D3D5D8" stroke-opacity="0.24"/>
<line y1="-0.5" x2="501.14" y2="-0.5" transform="matrix(0.5789 -0.815399 0.262827 0.964843 792.415 409)" stroke="#D3D5D8" stroke-opacity="0.24"/>
<line y1="-0.5" x2="501.14" y2="-0.5" transform="matrix(0.5789 -0.815399 0.262827 0.964843 801.579 409)" stroke="#D3D5D8" stroke-opacity="0.24"/>
<line y1="-0.5" x2="501.14" y2="-0.5" transform="matrix(0.5789 -0.815399 0.262827 0.964843 810.743 409)" stroke="#D3D5D8" stroke-opacity="0.24"/>
<line y1="-0.5" x2="501.14" y2="-0.5" transform="matrix(0.5789 -0.815399 0.262827 0.964843 819.906 409)" stroke="#D3D5D8" stroke-opacity="0.24"/>
<line y1="-0.5" x2="501.14" y2="-0.5" transform="matrix(0.5789 -0.815399 0.262827 0.964843 719.103 409)" stroke="#D3D5D8" stroke-opacity="0.24"/>
<line y1="-0.5" x2="501.14" y2="-0.5" transform="matrix(0.5789 -0.815399 0.262827 0.964843 728.267 409)" stroke="#D3D5D8" stroke-opacity="0.24"/>
<line y1="-0.5" x2="501.14" y2="-0.5" transform="matrix(0.5789 -0.815399 0.262827 0.964843 737.431 409)" stroke="#D3D5D8" stroke-opacity="0.24"/>
<line y1="-0.5" x2="501.14" y2="-0.5" transform="matrix(0.5789 -0.815399 0.262827 0.964843 746.595 409)" stroke="#D3D5D8" stroke-opacity="0.24"/>
<line y1="-0.5" x2="501.14" y2="-0.5" transform="matrix(0.5789 -0.815399 0.262827 0.964843 755.759 409)" stroke="#D3D5D8" stroke-opacity="0.24"/>
<line y1="-0.5" x2="501.14" y2="-0.5" transform="matrix(0.5789 -0.815399 0.262827 0.964843 764.923 409)" stroke="#D3D5D8" stroke-opacity="0.24"/>
<line y1="-0.5" x2="501.14" y2="-0.5" transform="matrix(0.5789 -0.815399 0.262827 0.964843 664.12 409)" stroke="#D3D5D8" stroke-opacity="0.24"/>
<line y1="-0.5" x2="501.14" y2="-0.5" transform="matrix(0.5789 -0.815399 0.262827 0.964843 673.284 409)" stroke="#D3D5D8" stroke-opacity="0.24"/>
<line y1="-0.5" x2="501.14" y2="-0.5" transform="matrix(0.5789 -0.815399 0.262827 0.964843 682.448 409)" stroke="#D3D5D8" stroke-opacity="0.24"/>
<line y1="-0.5" x2="501.14" y2="-0.5" transform="matrix(0.5789 -0.815399 0.262827 0.964843 691.612 409)" stroke="#D3D5D8" stroke-opacity="0.24"/>
<line y1="-0.5" x2="501.14" y2="-0.5" transform="matrix(0.5789 -0.815399 0.262827 0.964843 700.775 409)" stroke="#D3D5D8" stroke-opacity="0.24"/>
<line y1="-0.5" x2="501.14" y2="-0.5" transform="matrix(0.5789 -0.815399 0.262827 0.964843 709.939 409)" stroke="#D3D5D8" stroke-opacity="0.24"/>
</mask>
<g mask="url(#mask0)">
<rect x="362.754" y="0.370789" width="500.88" height="408.629" fill="#C4C4C4"/>
</g>
</svg>
