<svg width="835" height="313" viewBox="0 0 835 313" fill="none" xmlns="http://www.w3.org/2000/svg">
<mask id="mask0" mask-type="alpha" maskUnits="userSpaceOnUse" x="-1" y="-1" width="836" height="314">
<line y1="-0.5" x2="375.396" y2="-0.5" transform="matrix(0.553903 -0.832581 0.247332 0.968931 118.226 312.977)" stroke="#D3D5D8" stroke-opacity="0.24"/>
<line y1="-0.5" x2="375.396" y2="-0.5" transform="matrix(0.553903 -0.832581 0.247332 0.968931 124.794 312.977)" stroke="#D3D5D8" stroke-opacity="0.24"/>
<line y1="-0.5" x2="375.396" y2="-0.5" transform="matrix(0.553903 -0.832581 0.247332 0.968931 131.363 312.977)" stroke="#D3D5D8" stroke-opacity="0.24"/>
<line y1="-0.5" x2="375.396" y2="-0.5" transform="matrix(0.553903 -0.832581 0.247332 0.968931 137.931 312.977)" stroke="#D3D5D8" stroke-opacity="0.24"/>
<line y1="-0.5" x2="375.396" y2="-0.5" transform="matrix(0.553903 -0.832581 0.247332 0.968931 144.499 312.977)" stroke="#D3D5D8" stroke-opacity="0.24"/>
<line y1="-0.5" x2="375.396" y2="-0.5" transform="matrix(0.553903 -0.832581 0.247332 0.968931 151.067 312.977)" stroke="#D3D5D8" stroke-opacity="0.24"/>
<line y1="-0.5" x2="375.396" y2="-0.5" transform="matrix(0.553903 -0.832581 0.247332 0.968931 78.8176 312.977)" stroke="#D3D5D8" stroke-opacity="0.24"/>
<line y1="-0.5" x2="375.396" y2="-0.5" transform="matrix(0.553903 -0.832581 0.247332 0.968931 85.3857 312.977)" stroke="#D3D5D8" stroke-opacity="0.24"/>
<line y1="-0.5" x2="375.396" y2="-0.5" transform="matrix(0.553903 -0.832581 0.247332 0.968931 91.9539 312.977)" stroke="#D3D5D8" stroke-opacity="0.24"/>
<line y1="-0.5" x2="375.396" y2="-0.5" transform="matrix(0.553903 -0.832581 0.247332 0.968931 98.522 312.977)" stroke="#D3D5D8" stroke-opacity="0.24"/>
<line y1="-0.5" x2="375.396" y2="-0.5" transform="matrix(0.553903 -0.832581 0.247332 0.968931 105.09 312.977)" stroke="#D3D5D8" stroke-opacity="0.24"/>
<line y1="-0.5" x2="375.396" y2="-0.5" transform="matrix(0.553903 -0.832581 0.247332 0.968931 111.658 312.977)" stroke="#D3D5D8" stroke-opacity="0.24"/>
<line y1="-0.5" x2="375.396" y2="-0.5" transform="matrix(0.553903 -0.832581 0.247332 0.968931 39.4087 312.977)" stroke="#D3D5D8" stroke-opacity="0.24"/>
<line y1="-0.5" x2="375.396" y2="-0.5" transform="matrix(0.553903 -0.832581 0.247332 0.968931 45.9771 312.977)" stroke="#D3D5D8" stroke-opacity="0.24"/>
<line y1="-0.5" x2="375.396" y2="-0.5" transform="matrix(0.553903 -0.832581 0.247332 0.968931 52.5452 312.977)" stroke="#D3D5D8" stroke-opacity="0.24"/>
<line y1="-0.5" x2="375.396" y2="-0.5" transform="matrix(0.553903 -0.832581 0.247332 0.968931 59.1133 312.977)" stroke="#D3D5D8" stroke-opacity="0.24"/>
<line y1="-0.5" x2="375.396" y2="-0.5" transform="matrix(0.553903 -0.832581 0.247332 0.968931 65.6814 312.977)" stroke="#D3D5D8" stroke-opacity="0.24"/>
<line y1="-0.5" x2="375.396" y2="-0.5" transform="matrix(0.553903 -0.832581 0.247332 0.968931 72.2495 312.977)" stroke="#D3D5D8" stroke-opacity="0.24"/>
<line y1="-0.5" x2="375.396" y2="-0.5" transform="matrix(0.553903 -0.832581 0.247332 0.968931 0 312.977)" stroke="#D3D5D8" stroke-opacity="0.24"/>
<line y1="-0.5" x2="375.396" y2="-0.5" transform="matrix(0.553903 -0.832581 0.247332 0.968931 6.56812 312.977)" stroke="#D3D5D8" stroke-opacity="0.24"/>
<line y1="-0.5" x2="375.396" y2="-0.5" transform="matrix(0.553903 -0.832581 0.247332 0.968931 13.1362 312.977)" stroke="#D3D5D8" stroke-opacity="0.24"/>
<line y1="-0.5" x2="375.396" y2="-0.5" transform="matrix(0.553903 -0.832581 0.247332 0.968931 19.7043 312.977)" stroke="#D3D5D8" stroke-opacity="0.24"/>
<line y1="-0.5" x2="375.396" y2="-0.5" transform="matrix(0.553903 -0.832581 0.247332 0.968931 26.2725 312.977)" stroke="#D3D5D8" stroke-opacity="0.24"/>
<line y1="-0.5" x2="375.396" y2="-0.5" transform="matrix(0.553903 -0.832581 0.247332 0.968931 32.8406 312.977)" stroke="#D3D5D8" stroke-opacity="0.24"/>
<line y1="-0.5" x2="375.396" y2="-0.5" transform="matrix(0.553903 -0.832581 0.247332 0.968931 277.227 312.977)" stroke="#D3D5D8" stroke-opacity="0.24"/>
<line y1="-0.5" x2="375.396" y2="-0.5" transform="matrix(0.553903 -0.832581 0.247332 0.968931 283.794 312.977)" stroke="#D3D5D8" stroke-opacity="0.24"/>
<line y1="-0.5" x2="375.396" y2="-0.5" transform="matrix(0.553903 -0.832581 0.247332 0.968931 290.363 312.977)" stroke="#D3D5D8" stroke-opacity="0.24"/>
<line y1="-0.5" x2="375.396" y2="-0.5" transform="matrix(0.553903 -0.832581 0.247332 0.968931 296.931 312.977)" stroke="#D3D5D8" stroke-opacity="0.24"/>
<line y1="-0.5" x2="375.396" y2="-0.5" transform="matrix(0.553903 -0.832581 0.247332 0.968931 303.499 312.977)" stroke="#D3D5D8" stroke-opacity="0.24"/>
<line y1="-0.5" x2="375.396" y2="-0.5" transform="matrix(0.553903 -0.832581 0.247332 0.968931 310.067 312.977)" stroke="#D3D5D8" stroke-opacity="0.24"/>
<line y1="-0.5" x2="375.396" y2="-0.5" transform="matrix(0.553903 -0.832581 0.247332 0.968931 237.818 312.977)" stroke="#D3D5D8" stroke-opacity="0.24"/>
<line y1="-0.5" x2="375.396" y2="-0.5" transform="matrix(0.553903 -0.832581 0.247332 0.968931 244.386 312.977)" stroke="#D3D5D8" stroke-opacity="0.24"/>
<line y1="-0.5" x2="375.396" y2="-0.5" transform="matrix(0.553903 -0.832581 0.247332 0.968931 250.954 312.977)" stroke="#D3D5D8" stroke-opacity="0.24"/>
<line y1="-0.5" x2="375.396" y2="-0.5" transform="matrix(0.553903 -0.832581 0.247332 0.968931 257.522 312.977)" stroke="#D3D5D8" stroke-opacity="0.24"/>
<line y1="-0.5" x2="375.396" y2="-0.5" transform="matrix(0.553903 -0.832581 0.247332 0.968931 264.09 312.977)" stroke="#D3D5D8" stroke-opacity="0.24"/>
<line y1="-0.5" x2="375.396" y2="-0.5" transform="matrix(0.553903 -0.832581 0.247332 0.968931 270.658 312.977)" stroke="#D3D5D8" stroke-opacity="0.24"/>
<line y1="-0.5" x2="375.396" y2="-0.5" transform="matrix(0.553903 -0.832581 0.247332 0.968931 198.409 312.977)" stroke="#D3D5D8" stroke-opacity="0.24"/>
<line y1="-0.5" x2="375.396" y2="-0.5" transform="matrix(0.553903 -0.832581 0.247332 0.968931 204.977 312.977)" stroke="#D3D5D8" stroke-opacity="0.24"/>
<line y1="-0.5" x2="375.396" y2="-0.5" transform="matrix(0.553903 -0.832581 0.247332 0.968931 211.545 312.977)" stroke="#D3D5D8" stroke-opacity="0.24"/>
<line y1="-0.5" x2="375.396" y2="-0.5" transform="matrix(0.553903 -0.832581 0.247332 0.968931 218.113 312.977)" stroke="#D3D5D8" stroke-opacity="0.24"/>
<line y1="-0.5" x2="375.396" y2="-0.5" transform="matrix(0.553903 -0.832581 0.247332 0.968931 224.681 312.977)" stroke="#D3D5D8" stroke-opacity="0.24"/>
<line y1="-0.5" x2="375.396" y2="-0.5" transform="matrix(0.553903 -0.832581 0.247332 0.968931 231.25 312.977)" stroke="#D3D5D8" stroke-opacity="0.24"/>
<line y1="-0.5" x2="375.396" y2="-0.5" transform="matrix(0.553903 -0.832581 0.247332 0.968931 159 312.977)" stroke="#D3D5D8" stroke-opacity="0.24"/>
<line y1="-0.5" x2="375.396" y2="-0.5" transform="matrix(0.553903 -0.832581 0.247332 0.968931 165.568 312.977)" stroke="#D3D5D8" stroke-opacity="0.24"/>
<line y1="-0.5" x2="375.396" y2="-0.5" transform="matrix(0.553903 -0.832581 0.247332 0.968931 172.136 312.977)" stroke="#D3D5D8" stroke-opacity="0.24"/>
<line y1="-0.5" x2="375.396" y2="-0.5" transform="matrix(0.553903 -0.832581 0.247332 0.968931 178.704 312.977)" stroke="#D3D5D8" stroke-opacity="0.24"/>
<line y1="-0.5" x2="375.396" y2="-0.5" transform="matrix(0.553903 -0.832581 0.247332 0.968931 185.272 312.977)" stroke="#D3D5D8" stroke-opacity="0.24"/>
<line y1="-0.5" x2="375.396" y2="-0.5" transform="matrix(0.553903 -0.832581 0.247332 0.968931 191.841 312.977)" stroke="#D3D5D8" stroke-opacity="0.24"/>
<line y1="-0.5" x2="375.396" y2="-0.5" transform="matrix(0.553903 -0.832581 0.247332 0.968931 435.227 312.977)" stroke="#D3D5D8" stroke-opacity="0.24"/>
<line y1="-0.5" x2="375.396" y2="-0.5" transform="matrix(0.553903 -0.832581 0.247332 0.968931 441.794 312.977)" stroke="#D3D5D8" stroke-opacity="0.24"/>
<line y1="-0.5" x2="375.396" y2="-0.5" transform="matrix(0.553903 -0.832581 0.247332 0.968931 448.363 312.977)" stroke="#D3D5D8" stroke-opacity="0.24"/>
<line y1="-0.5" x2="375.396" y2="-0.5" transform="matrix(0.553903 -0.832581 0.247332 0.968931 454.931 312.977)" stroke="#D3D5D8" stroke-opacity="0.24"/>
<line y1="-0.5" x2="375.396" y2="-0.5" transform="matrix(0.553903 -0.832581 0.247332 0.968931 461.499 312.977)" stroke="#D3D5D8" stroke-opacity="0.24"/>
<line y1="-0.5" x2="375.396" y2="-0.5" transform="matrix(0.553903 -0.832581 0.247332 0.968931 468.067 312.977)" stroke="#D3D5D8" stroke-opacity="0.24"/>
<line y1="-0.5" x2="375.396" y2="-0.5" transform="matrix(0.553903 -0.832581 0.247332 0.968931 395.818 312.977)" stroke="#D3D5D8" stroke-opacity="0.24"/>
<line y1="-0.5" x2="375.396" y2="-0.5" transform="matrix(0.553903 -0.832581 0.247332 0.968931 402.386 312.977)" stroke="#D3D5D8" stroke-opacity="0.24"/>
<line y1="-0.5" x2="375.396" y2="-0.5" transform="matrix(0.553903 -0.832581 0.247332 0.968931 408.954 312.977)" stroke="#D3D5D8" stroke-opacity="0.24"/>
<line y1="-0.5" x2="375.396" y2="-0.5" transform="matrix(0.553903 -0.832581 0.247332 0.968931 415.522 312.977)" stroke="#D3D5D8" stroke-opacity="0.24"/>
<line y1="-0.5" x2="375.396" y2="-0.5" transform="matrix(0.553903 -0.832581 0.247332 0.968931 422.09 312.977)" stroke="#D3D5D8" stroke-opacity="0.24"/>
<line y1="-0.5" x2="375.396" y2="-0.5" transform="matrix(0.553903 -0.832581 0.247332 0.968931 428.658 312.977)" stroke="#D3D5D8" stroke-opacity="0.24"/>
<line y1="-0.5" x2="375.396" y2="-0.5" transform="matrix(0.553903 -0.832581 0.247332 0.968931 356.409 312.977)" stroke="#D3D5D8" stroke-opacity="0.24"/>
<line y1="-0.5" x2="375.396" y2="-0.5" transform="matrix(0.553903 -0.832581 0.247332 0.968931 362.977 312.977)" stroke="#D3D5D8" stroke-opacity="0.24"/>
<line y1="-0.5" x2="375.396" y2="-0.5" transform="matrix(0.553903 -0.832581 0.247332 0.968931 369.545 312.977)" stroke="#D3D5D8" stroke-opacity="0.24"/>
<line y1="-0.5" x2="375.396" y2="-0.5" transform="matrix(0.553903 -0.832581 0.247332 0.968931 376.113 312.977)" stroke="#D3D5D8" stroke-opacity="0.24"/>
<line y1="-0.5" x2="375.396" y2="-0.5" transform="matrix(0.553903 -0.832581 0.247332 0.968931 382.681 312.977)" stroke="#D3D5D8" stroke-opacity="0.24"/>
<line y1="-0.5" x2="375.396" y2="-0.5" transform="matrix(0.553903 -0.832581 0.247332 0.968931 389.25 312.977)" stroke="#D3D5D8" stroke-opacity="0.24"/>
<line y1="-0.5" x2="375.396" y2="-0.5" transform="matrix(0.553903 -0.832581 0.247332 0.968931 317 312.977)" stroke="#D3D5D8" stroke-opacity="0.24"/>
<line y1="-0.5" x2="375.396" y2="-0.5" transform="matrix(0.553903 -0.832581 0.247332 0.968931 323.568 312.977)" stroke="#D3D5D8" stroke-opacity="0.24"/>
<line y1="-0.5" x2="375.396" y2="-0.5" transform="matrix(0.553903 -0.832581 0.247332 0.968931 330.136 312.977)" stroke="#D3D5D8" stroke-opacity="0.24"/>
<line y1="-0.5" x2="375.396" y2="-0.5" transform="matrix(0.553903 -0.832581 0.247332 0.968931 336.704 312.977)" stroke="#D3D5D8" stroke-opacity="0.24"/>
<line y1="-0.5" x2="375.396" y2="-0.5" transform="matrix(0.553903 -0.832581 0.247332 0.968931 343.272 312.977)" stroke="#D3D5D8" stroke-opacity="0.24"/>
<line y1="-0.5" x2="375.396" y2="-0.5" transform="matrix(0.553903 -0.832581 0.247332 0.968931 349.841 312.977)" stroke="#D3D5D8" stroke-opacity="0.24"/>
<line y1="-0.5" x2="375.396" y2="-0.5" transform="matrix(0.553903 -0.832581 0.247332 0.968931 594.227 312.977)" stroke="#D3D5D8" stroke-opacity="0.24"/>
<line y1="-0.5" x2="375.396" y2="-0.5" transform="matrix(0.553903 -0.832581 0.247332 0.968931 600.794 312.977)" stroke="#D3D5D8" stroke-opacity="0.24"/>
<line y1="-0.5" x2="375.396" y2="-0.5" transform="matrix(0.553903 -0.832581 0.247332 0.968931 607.363 312.977)" stroke="#D3D5D8" stroke-opacity="0.24"/>
<line y1="-0.5" x2="375.396" y2="-0.5" transform="matrix(0.553903 -0.832581 0.247332 0.968931 613.931 312.977)" stroke="#D3D5D8" stroke-opacity="0.24"/>
<line y1="-0.5" x2="375.396" y2="-0.5" transform="matrix(0.553903 -0.832581 0.247332 0.968931 620.499 312.977)" stroke="#D3D5D8" stroke-opacity="0.24"/>
<line y1="-0.5" x2="375.396" y2="-0.5" transform="matrix(0.553903 -0.832581 0.247332 0.968931 627.067 312.977)" stroke="#D3D5D8" stroke-opacity="0.24"/>
<line y1="-0.5" x2="375.396" y2="-0.5" transform="matrix(0.553903 -0.832581 0.247332 0.968931 554.818 312.977)" stroke="#D3D5D8" stroke-opacity="0.24"/>
<line y1="-0.5" x2="375.396" y2="-0.5" transform="matrix(0.553903 -0.832581 0.247332 0.968931 561.386 312.977)" stroke="#D3D5D8" stroke-opacity="0.24"/>
<line y1="-0.5" x2="375.396" y2="-0.5" transform="matrix(0.553903 -0.832581 0.247332 0.968931 567.954 312.977)" stroke="#D3D5D8" stroke-opacity="0.24"/>
<line y1="-0.5" x2="375.396" y2="-0.5" transform="matrix(0.553903 -0.832581 0.247332 0.968931 574.522 312.977)" stroke="#D3D5D8" stroke-opacity="0.24"/>
<line y1="-0.5" x2="375.396" y2="-0.5" transform="matrix(0.553903 -0.832581 0.247332 0.968931 581.09 312.977)" stroke="#D3D5D8" stroke-opacity="0.24"/>
<line y1="-0.5" x2="375.396" y2="-0.5" transform="matrix(0.553903 -0.832581 0.247332 0.968931 587.658 312.977)" stroke="#D3D5D8" stroke-opacity="0.24"/>
<line y1="-0.5" x2="375.396" y2="-0.5" transform="matrix(0.553903 -0.832581 0.247332 0.968931 515.409 312.977)" stroke="#D3D5D8" stroke-opacity="0.24"/>
<line y1="-0.5" x2="375.396" y2="-0.5" transform="matrix(0.553903 -0.832581 0.247332 0.968931 521.977 312.977)" stroke="#D3D5D8" stroke-opacity="0.24"/>
<line y1="-0.5" x2="375.396" y2="-0.5" transform="matrix(0.553903 -0.832581 0.247332 0.968931 528.545 312.977)" stroke="#D3D5D8" stroke-opacity="0.24"/>
<line y1="-0.5" x2="375.396" y2="-0.5" transform="matrix(0.553903 -0.832581 0.247332 0.968931 535.113 312.977)" stroke="#D3D5D8" stroke-opacity="0.24"/>
<line y1="-0.5" x2="375.396" y2="-0.5" transform="matrix(0.553903 -0.832581 0.247332 0.968931 541.681 312.977)" stroke="#D3D5D8" stroke-opacity="0.24"/>
<line y1="-0.5" x2="375.396" y2="-0.5" transform="matrix(0.553903 -0.832581 0.247332 0.968931 548.25 312.977)" stroke="#D3D5D8" stroke-opacity="0.24"/>
<line y1="-0.5" x2="375.396" y2="-0.5" transform="matrix(0.553903 -0.832581 0.247332 0.968931 476 312.977)" stroke="#D3D5D8" stroke-opacity="0.24"/>
<line y1="-0.5" x2="375.396" y2="-0.5" transform="matrix(0.553903 -0.832581 0.247332 0.968931 482.568 312.977)" stroke="#D3D5D8" stroke-opacity="0.24"/>
<line y1="-0.5" x2="375.396" y2="-0.5" transform="matrix(0.553903 -0.832581 0.247332 0.968931 489.136 312.977)" stroke="#D3D5D8" stroke-opacity="0.24"/>
<line y1="-0.5" x2="375.396" y2="-0.5" transform="matrix(0.553903 -0.832581 0.247332 0.968931 495.704 312.977)" stroke="#D3D5D8" stroke-opacity="0.24"/>
<line y1="-0.5" x2="375.396" y2="-0.5" transform="matrix(0.553903 -0.832581 0.247332 0.968931 502.272 312.977)" stroke="#D3D5D8" stroke-opacity="0.24"/>
<line y1="-0.5" x2="375.396" y2="-0.5" transform="matrix(0.553903 -0.832581 0.247332 0.968931 508.841 312.977)" stroke="#D3D5D8" stroke-opacity="0.24"/>
</mask>
<g mask="url(#mask0)">
<rect x="260" y="0.429443" width="359" height="312.548" fill="#C4C4C4" fill-opacity="0.6"/>
</g>
</svg>
