<svg width="1113" height="275" viewBox="0 0 1113 275" fill="none" xmlns="http://www.w3.org/2000/svg">
<mask id="mask0" mask-type="alpha" maskUnits="userSpaceOnUse" x="-53" y="-1" width="1166" height="276">
<line y1="-0.5" x2="399.049" y2="-0.5" transform="matrix(0.727004 -0.686633 0.376376 0.926467 112.951 274.249)" stroke="#D3D5D8" stroke-opacity="0.24"/>
<line y1="-0.5" x2="399.049" y2="-0.5" transform="matrix(0.727004 -0.686633 0.376376 0.926467 122.115 274.249)" stroke="#D3D5D8" stroke-opacity="0.24"/>
<line y1="-0.5" x2="399.049" y2="-0.5" transform="matrix(0.727004 -0.686633 0.376376 0.926467 131.278 274.249)" stroke="#D3D5D8" stroke-opacity="0.24"/>
<line y1="-0.5" x2="399.049" y2="-0.5" transform="matrix(0.727004 -0.686633 0.376376 0.926467 140.442 274.249)" stroke="#D3D5D8" stroke-opacity="0.24"/>
<line y1="-0.5" x2="399.049" y2="-0.5" transform="matrix(0.727004 -0.686633 0.376376 0.926467 149.606 274.249)" stroke="#D3D5D8" stroke-opacity="0.24"/>
<line y1="-0.5" x2="399.049" y2="-0.5" transform="matrix(0.727004 -0.686633 0.376376 0.926467 158.77 274.249)" stroke="#D3D5D8" stroke-opacity="0.24"/>
<line y1="-0.5" x2="399.049" y2="-0.5" transform="matrix(0.727004 -0.686633 0.376376 0.926467 57.967 274.249)" stroke="#D3D5D8" stroke-opacity="0.24"/>
<line y1="-0.5" x2="399.049" y2="-0.5" transform="matrix(0.727004 -0.686633 0.376376 0.926467 67.131 274.249)" stroke="#D3D5D8" stroke-opacity="0.24"/>
<line y1="-0.5" x2="399.049" y2="-0.5" transform="matrix(0.727004 -0.686633 0.376376 0.926467 76.2949 274.249)" stroke="#D3D5D8" stroke-opacity="0.24"/>
<line y1="-0.5" x2="399.049" y2="-0.5" transform="matrix(0.727004 -0.686633 0.376376 0.926467 85.4589 274.249)" stroke="#D3D5D8" stroke-opacity="0.24"/>
<line y1="-0.5" x2="399.049" y2="-0.5" transform="matrix(0.727004 -0.686633 0.376376 0.926467 94.6228 274.249)" stroke="#D3D5D8" stroke-opacity="0.24"/>
<line y1="-0.5" x2="399.049" y2="-0.5" transform="matrix(0.727004 -0.686633 0.376376 0.926467 103.787 274.249)" stroke="#D3D5D8" stroke-opacity="0.24"/>
<line y1="-0.5" x2="399.049" y2="-0.5" transform="matrix(0.727004 -0.686633 0.376376 0.926467 2.98352 274.249)" stroke="#D3D5D8" stroke-opacity="0.24"/>
<line y1="-0.5" x2="399.049" y2="-0.5" transform="matrix(0.727004 -0.686633 0.376376 0.926467 12.1475 274.249)" stroke="#D3D5D8" stroke-opacity="0.24"/>
<line y1="-0.5" x2="399.049" y2="-0.5" transform="matrix(0.727004 -0.686633 0.376376 0.926467 21.3114 274.249)" stroke="#D3D5D8" stroke-opacity="0.24"/>
<line y1="-0.5" x2="399.049" y2="-0.5" transform="matrix(0.727004 -0.686633 0.376376 0.926467 30.4753 274.249)" stroke="#D3D5D8" stroke-opacity="0.24"/>
<line y1="-0.5" x2="399.049" y2="-0.5" transform="matrix(0.727004 -0.686633 0.376376 0.926467 39.6392 274.249)" stroke="#D3D5D8" stroke-opacity="0.24"/>
<line y1="-0.5" x2="399.049" y2="-0.5" transform="matrix(0.727004 -0.686633 0.376376 0.926467 48.8032 274.249)" stroke="#D3D5D8" stroke-opacity="0.24"/>
<line y1="-0.5" x2="399.052" y2="-0.5" transform="matrix(0.726421 -0.687249 0.375827 0.92669 -52 274.249)" stroke="#D3D5D8" stroke-opacity="0.24"/>
<line y1="-0.5" x2="399.049" y2="-0.5" transform="matrix(0.727004 -0.686633 0.376376 0.926467 -42.8361 274.249)" stroke="#D3D5D8" stroke-opacity="0.24"/>
<line y1="-0.5" x2="399.049" y2="-0.5" transform="matrix(0.727004 -0.686633 0.376376 0.926467 -33.6721 274.249)" stroke="#D3D5D8" stroke-opacity="0.24"/>
<line y1="-0.5" x2="399.049" y2="-0.5" transform="matrix(0.727004 -0.686633 0.376376 0.926467 -24.5082 274.249)" stroke="#D3D5D8" stroke-opacity="0.24"/>
<line y1="-0.5" x2="399.049" y2="-0.5" transform="matrix(0.727004 -0.686633 0.376376 0.926467 -15.3444 274.249)" stroke="#D3D5D8" stroke-opacity="0.24"/>
<line y1="-0.5" x2="399.049" y2="-0.5" transform="matrix(0.727004 -0.686633 0.376376 0.926467 -6.18042 274.249)" stroke="#D3D5D8" stroke-opacity="0.24"/>
<line y1="-0.5" x2="399.049" y2="-0.5" transform="matrix(0.727004 -0.686633 0.376376 0.926467 334.789 274.249)" stroke="#D3D5D8" stroke-opacity="0.24"/>
<line y1="-0.5" x2="399.049" y2="-0.5" transform="matrix(0.727004 -0.686633 0.376376 0.926467 343.953 274.249)" stroke="#D3D5D8" stroke-opacity="0.24"/>
<line y1="-0.5" x2="399.049" y2="-0.5" transform="matrix(0.727004 -0.686633 0.376376 0.926467 353.117 274.249)" stroke="#D3D5D8" stroke-opacity="0.24"/>
<line y1="-0.5" x2="399.049" y2="-0.5" transform="matrix(0.727004 -0.686633 0.376376 0.926467 362.281 274.249)" stroke="#D3D5D8" stroke-opacity="0.24"/>
<line y1="-0.5" x2="399.049" y2="-0.5" transform="matrix(0.727004 -0.686633 0.376376 0.926467 371.445 274.249)" stroke="#D3D5D8" stroke-opacity="0.24"/>
<line y1="-0.5" x2="399.049" y2="-0.5" transform="matrix(0.727004 -0.686633 0.376376 0.926467 380.609 274.249)" stroke="#D3D5D8" stroke-opacity="0.24"/>
<line y1="-0.5" x2="399.049" y2="-0.5" transform="matrix(0.727004 -0.686633 0.376376 0.926467 279.805 274.249)" stroke="#D3D5D8" stroke-opacity="0.24"/>
<line y1="-0.5" x2="399.049" y2="-0.5" transform="matrix(0.727004 -0.686633 0.376376 0.926467 288.969 274.249)" stroke="#D3D5D8" stroke-opacity="0.24"/>
<line y1="-0.5" x2="399.049" y2="-0.5" transform="matrix(0.727004 -0.686633 0.376376 0.926467 298.133 274.249)" stroke="#D3D5D8" stroke-opacity="0.24"/>
<line y1="-0.5" x2="399.049" y2="-0.5" transform="matrix(0.727004 -0.686633 0.376376 0.926467 307.297 274.249)" stroke="#D3D5D8" stroke-opacity="0.24"/>
<line y1="-0.5" x2="399.049" y2="-0.5" transform="matrix(0.727004 -0.686633 0.376376 0.926467 316.461 274.249)" stroke="#D3D5D8" stroke-opacity="0.24"/>
<line y1="-0.5" x2="399.049" y2="-0.5" transform="matrix(0.727004 -0.686633 0.376376 0.926467 325.625 274.249)" stroke="#D3D5D8" stroke-opacity="0.24"/>
<line y1="-0.5" x2="399.049" y2="-0.5" transform="matrix(0.727004 -0.686633 0.376376 0.926467 224.822 274.249)" stroke="#D3D5D8" stroke-opacity="0.24"/>
<line y1="-0.5" x2="399.049" y2="-0.5" transform="matrix(0.727004 -0.686633 0.376376 0.926467 233.986 274.249)" stroke="#D3D5D8" stroke-opacity="0.24"/>
<line y1="-0.5" x2="399.049" y2="-0.5" transform="matrix(0.727004 -0.686633 0.376376 0.926467 243.15 274.249)" stroke="#D3D5D8" stroke-opacity="0.24"/>
<line y1="-0.5" x2="399.049" y2="-0.5" transform="matrix(0.727004 -0.686633 0.376376 0.926467 252.313 274.249)" stroke="#D3D5D8" stroke-opacity="0.24"/>
<line y1="-0.5" x2="399.049" y2="-0.5" transform="matrix(0.727004 -0.686633 0.376376 0.926467 261.478 274.249)" stroke="#D3D5D8" stroke-opacity="0.24"/>
<line y1="-0.5" x2="399.049" y2="-0.5" transform="matrix(0.727004 -0.686633 0.376376 0.926467 270.642 274.249)" stroke="#D3D5D8" stroke-opacity="0.24"/>
<line y1="-0.5" x2="399.049" y2="-0.5" transform="matrix(0.727004 -0.686633 0.376376 0.926467 169.838 274.249)" stroke="#D3D5D8" stroke-opacity="0.24"/>
<line y1="-0.5" x2="399.049" y2="-0.5" transform="matrix(0.727004 -0.686633 0.376376 0.926467 179.002 274.249)" stroke="#D3D5D8" stroke-opacity="0.24"/>
<line y1="-0.5" x2="399.049" y2="-0.5" transform="matrix(0.727004 -0.686633 0.376376 0.926467 188.166 274.249)" stroke="#D3D5D8" stroke-opacity="0.24"/>
<line y1="-0.5" x2="399.049" y2="-0.5" transform="matrix(0.727004 -0.686633 0.376376 0.926467 197.33 274.249)" stroke="#D3D5D8" stroke-opacity="0.24"/>
<line y1="-0.5" x2="399.049" y2="-0.5" transform="matrix(0.727004 -0.686633 0.376376 0.926467 206.494 274.249)" stroke="#D3D5D8" stroke-opacity="0.24"/>
<line y1="-0.5" x2="399.049" y2="-0.5" transform="matrix(0.727004 -0.686633 0.376376 0.926467 215.658 274.249)" stroke="#D3D5D8" stroke-opacity="0.24"/>
<line y1="-0.5" x2="399.049" y2="-0.5" transform="matrix(0.727004 -0.686633 0.376376 0.926467 555.232 274.249)" stroke="#D3D5D8" stroke-opacity="0.24"/>
<line y1="-0.5" x2="399.049" y2="-0.5" transform="matrix(0.727004 -0.686633 0.376376 0.926467 564.396 274.249)" stroke="#D3D5D8" stroke-opacity="0.24"/>
<line y1="-0.5" x2="399.049" y2="-0.5" transform="matrix(0.727004 -0.686633 0.376376 0.926467 573.56 274.249)" stroke="#D3D5D8" stroke-opacity="0.24"/>
<line y1="-0.5" x2="399.049" y2="-0.5" transform="matrix(0.727004 -0.686633 0.376376 0.926467 582.724 274.249)" stroke="#D3D5D8" stroke-opacity="0.24"/>
<line y1="-0.5" x2="399.049" y2="-0.5" transform="matrix(0.727004 -0.686633 0.376376 0.926467 591.888 274.249)" stroke="#D3D5D8" stroke-opacity="0.24"/>
<line y1="-0.5" x2="399.049" y2="-0.5" transform="matrix(0.727004 -0.686633 0.376376 0.926467 601.052 274.249)" stroke="#D3D5D8" stroke-opacity="0.24"/>
<line y1="-0.5" x2="399.049" y2="-0.5" transform="matrix(0.727004 -0.686633 0.376376 0.926467 500.249 274.249)" stroke="#D3D5D8" stroke-opacity="0.24"/>
<line y1="-0.5" x2="399.049" y2="-0.5" transform="matrix(0.727004 -0.686633 0.376376 0.926467 509.412 274.249)" stroke="#D3D5D8" stroke-opacity="0.24"/>
<line y1="-0.5" x2="399.049" y2="-0.5" transform="matrix(0.727004 -0.686633 0.376376 0.926467 518.576 274.249)" stroke="#D3D5D8" stroke-opacity="0.24"/>
<line y1="-0.5" x2="399.049" y2="-0.5" transform="matrix(0.727004 -0.686633 0.376376 0.926467 527.74 274.249)" stroke="#D3D5D8" stroke-opacity="0.24"/>
<line y1="-0.5" x2="399.049" y2="-0.5" transform="matrix(0.727004 -0.686633 0.376376 0.926467 536.904 274.249)" stroke="#D3D5D8" stroke-opacity="0.24"/>
<line y1="-0.5" x2="399.049" y2="-0.5" transform="matrix(0.727004 -0.686633 0.376376 0.926467 546.068 274.249)" stroke="#D3D5D8" stroke-opacity="0.24"/>
<line y1="-0.5" x2="399.049" y2="-0.5" transform="matrix(0.727004 -0.686633 0.376376 0.926467 445.265 274.249)" stroke="#D3D5D8" stroke-opacity="0.24"/>
<line y1="-0.5" x2="399.049" y2="-0.5" transform="matrix(0.727004 -0.686633 0.376376 0.926467 454.429 274.249)" stroke="#D3D5D8" stroke-opacity="0.24"/>
<line y1="-0.5" x2="399.049" y2="-0.5" transform="matrix(0.727004 -0.686633 0.376376 0.926467 463.593 274.249)" stroke="#D3D5D8" stroke-opacity="0.24"/>
<line y1="-0.5" x2="399.049" y2="-0.5" transform="matrix(0.727004 -0.686633 0.376376 0.926467 472.757 274.249)" stroke="#D3D5D8" stroke-opacity="0.24"/>
<line y1="-0.5" x2="399.049" y2="-0.5" transform="matrix(0.727004 -0.686633 0.376376 0.926467 481.921 274.249)" stroke="#D3D5D8" stroke-opacity="0.24"/>
<line y1="-0.5" x2="399.049" y2="-0.5" transform="matrix(0.727004 -0.686633 0.376376 0.926467 491.085 274.249)" stroke="#D3D5D8" stroke-opacity="0.24"/>
<line y1="-0.5" x2="399.049" y2="-0.5" transform="matrix(0.727004 -0.686633 0.376376 0.926467 390.281 274.249)" stroke="#D3D5D8" stroke-opacity="0.24"/>
<line y1="-0.5" x2="399.049" y2="-0.5" transform="matrix(0.727004 -0.686633 0.376376 0.926467 399.445 274.249)" stroke="#D3D5D8" stroke-opacity="0.24"/>
<line y1="-0.5" x2="399.049" y2="-0.5" transform="matrix(0.727004 -0.686633 0.376376 0.926467 408.609 274.249)" stroke="#D3D5D8" stroke-opacity="0.24"/>
<line y1="-0.5" x2="399.049" y2="-0.5" transform="matrix(0.727004 -0.686633 0.376376 0.926467 417.773 274.249)" stroke="#D3D5D8" stroke-opacity="0.24"/>
<line y1="-0.5" x2="399.049" y2="-0.5" transform="matrix(0.727004 -0.686633 0.376376 0.926467 426.937 274.249)" stroke="#D3D5D8" stroke-opacity="0.24"/>
<line y1="-0.5" x2="399.049" y2="-0.5" transform="matrix(0.727004 -0.686633 0.376376 0.926467 436.101 274.249)" stroke="#D3D5D8" stroke-opacity="0.24"/>
<line y1="-0.5" x2="399.049" y2="-0.5" transform="matrix(0.727004 -0.686633 0.376376 0.926467 777.07 274.249)" stroke="#D3D5D8" stroke-opacity="0.24"/>
<line y1="-0.5" x2="399.049" y2="-0.5" transform="matrix(0.727004 -0.686633 0.376376 0.926467 786.234 274.249)" stroke="#D3D5D8" stroke-opacity="0.24"/>
<line y1="-0.5" x2="399.049" y2="-0.5" transform="matrix(0.727004 -0.686633 0.376376 0.926467 795.398 274.249)" stroke="#D3D5D8" stroke-opacity="0.24"/>
<line y1="-0.5" x2="399.049" y2="-0.5" transform="matrix(0.727004 -0.686633 0.376376 0.926467 804.562 274.249)" stroke="#D3D5D8" stroke-opacity="0.24"/>
<line y1="-0.5" x2="399.049" y2="-0.5" transform="matrix(0.727004 -0.686633 0.376376 0.926467 813.726 274.249)" stroke="#D3D5D8" stroke-opacity="0.24"/>
<line y1="-0.5" x2="399.049" y2="-0.5" transform="matrix(0.727004 -0.686633 0.376376 0.926467 822.89 274.249)" stroke="#D3D5D8" stroke-opacity="0.24"/>
<line y1="-0.5" x2="399.049" y2="-0.5" transform="matrix(0.727004 -0.686633 0.376376 0.926467 722.087 274.249)" stroke="#D3D5D8" stroke-opacity="0.24"/>
<line y1="-0.5" x2="399.049" y2="-0.5" transform="matrix(0.727004 -0.686633 0.376376 0.926467 731.251 274.249)" stroke="#D3D5D8" stroke-opacity="0.24"/>
<line y1="-0.5" x2="399.049" y2="-0.5" transform="matrix(0.727004 -0.686633 0.376376 0.926467 740.415 274.249)" stroke="#D3D5D8" stroke-opacity="0.24"/>
<line y1="-0.5" x2="399.049" y2="-0.5" transform="matrix(0.727004 -0.686633 0.376376 0.926467 749.579 274.249)" stroke="#D3D5D8" stroke-opacity="0.24"/>
<line y1="-0.5" x2="399.049" y2="-0.5" transform="matrix(0.727004 -0.686633 0.376376 0.926467 758.743 274.249)" stroke="#D3D5D8" stroke-opacity="0.24"/>
<line y1="-0.5" x2="399.049" y2="-0.5" transform="matrix(0.727004 -0.686633 0.376376 0.926467 767.906 274.249)" stroke="#D3D5D8" stroke-opacity="0.24"/>
<line y1="-0.5" x2="399.049" y2="-0.5" transform="matrix(0.727004 -0.686633 0.376376 0.926467 667.103 274.249)" stroke="#D3D5D8" stroke-opacity="0.24"/>
<line y1="-0.5" x2="399.049" y2="-0.5" transform="matrix(0.727004 -0.686633 0.376376 0.926467 676.267 274.249)" stroke="#D3D5D8" stroke-opacity="0.24"/>
<line y1="-0.5" x2="399.049" y2="-0.5" transform="matrix(0.727004 -0.686633 0.376376 0.926467 685.431 274.249)" stroke="#D3D5D8" stroke-opacity="0.24"/>
<line y1="-0.5" x2="399.049" y2="-0.5" transform="matrix(0.727004 -0.686633 0.376376 0.926467 694.595 274.249)" stroke="#D3D5D8" stroke-opacity="0.24"/>
<line y1="-0.5" x2="399.049" y2="-0.5" transform="matrix(0.727004 -0.686633 0.376376 0.926467 703.759 274.249)" stroke="#D3D5D8" stroke-opacity="0.24"/>
<line y1="-0.5" x2="399.049" y2="-0.5" transform="matrix(0.727004 -0.686633 0.376376 0.926467 712.923 274.249)" stroke="#D3D5D8" stroke-opacity="0.24"/>
<line y1="-0.5" x2="399.049" y2="-0.5" transform="matrix(0.727004 -0.686633 0.376376 0.926467 612.12 274.249)" stroke="#D3D5D8" stroke-opacity="0.24"/>
<line y1="-0.5" x2="399.049" y2="-0.5" transform="matrix(0.727004 -0.686633 0.376376 0.926467 621.284 274.249)" stroke="#D3D5D8" stroke-opacity="0.24"/>
<line y1="-0.5" x2="399.049" y2="-0.5" transform="matrix(0.727004 -0.686633 0.376376 0.926467 630.448 274.249)" stroke="#D3D5D8" stroke-opacity="0.24"/>
<line y1="-0.5" x2="399.049" y2="-0.5" transform="matrix(0.727004 -0.686633 0.376376 0.926467 639.612 274.249)" stroke="#D3D5D8" stroke-opacity="0.24"/>
<line y1="-0.5" x2="399.049" y2="-0.5" transform="matrix(0.727004 -0.686633 0.376376 0.926467 648.775 274.249)" stroke="#D3D5D8" stroke-opacity="0.24"/>
<line y1="-0.5" x2="399.049" y2="-0.5" transform="matrix(0.727004 -0.686633 0.376376 0.926467 657.939 274.249)" stroke="#D3D5D8" stroke-opacity="0.24"/>
</mask>
<g mask="url(#mask0)">
<rect x="310.754" y="0.248657" width="500.88" height="274" fill="#C4C4C4"/>
</g>
</svg>
