<svg width="1440" height="658" viewBox="0 0 1440 658" fill="none" xmlns="http://www.w3.org/2000/svg">
<mask id="mask0" mask-type="alpha" maskUnits="userSpaceOnUse" x="-2645" y="-1" width="6253" height="659">
<line y1="-0.5" x2="1689.74" y2="-0.5" transform="matrix(0.921292 -0.38887 0.672643 0.739967 -1512.43 658)" stroke="#D3D5D8" stroke-opacity="0.24"/>
<line y1="-0.5" x2="1689.74" y2="-0.5" transform="matrix(0.921292 -0.38887 0.672643 0.739967 -567.911 658)" stroke="#D3D5D8" stroke-opacity="0.24"/>
<line y1="-0.5" x2="1689.74" y2="-0.5" transform="matrix(0.921292 -0.38887 0.672643 0.739967 -518.752 658)" stroke="#D3D5D8" stroke-opacity="0.24"/>
<line y1="-0.5" x2="1689.74" y2="-0.5" transform="matrix(0.921292 -0.38887 0.672643 0.739967 -469.562 658)" stroke="#D3D5D8" stroke-opacity="0.24"/>
<line y1="-0.5" x2="1689.74" y2="-0.5" transform="matrix(0.921292 -0.38887 0.672643 0.739967 -420.39 658)" stroke="#D3D5D8" stroke-opacity="0.24"/>
<line y1="-0.5" x2="1689.74" y2="-0.5" transform="matrix(0.921292 -0.38887 0.672643 0.739967 -371.213 658)" stroke="#D3D5D8" stroke-opacity="0.24"/>
<line y1="-0.5" x2="1689.74" y2="-0.5" transform="matrix(0.921292 -0.38887 0.672643 0.739967 -322.038 658)" stroke="#D3D5D8" stroke-opacity="0.24"/>
<line y1="-0.5" x2="1689.74" y2="-0.5" transform="matrix(0.921292 -0.38887 0.672643 0.739967 -862.957 658)" stroke="#D3D5D8" stroke-opacity="0.24"/>
<line y1="-0.5" x2="1689.74" y2="-0.5" transform="matrix(0.921292 -0.38887 0.672643 0.739967 -813.785 658)" stroke="#D3D5D8" stroke-opacity="0.24"/>
<line y1="-0.5" x2="1689.74" y2="-0.5" transform="matrix(0.921292 -0.38887 0.672643 0.739967 -764.604 658)" stroke="#D3D5D8" stroke-opacity="0.24"/>
<line y1="-0.5" x2="1689.74" y2="-0.5" transform="matrix(0.921292 -0.38887 0.672643 0.739967 -715.429 658)" stroke="#D3D5D8" stroke-opacity="0.24"/>
<line y1="-0.5" x2="1689.74" y2="-0.5" transform="matrix(0.921292 -0.38887 0.672643 0.739967 -666.254 658)" stroke="#D3D5D8" stroke-opacity="0.24"/>
<line y1="-0.5" x2="1689.74" y2="-0.5" transform="matrix(0.921292 -0.38887 0.672643 0.739967 -617.089 658)" stroke="#D3D5D8" stroke-opacity="0.24"/>
<line y1="-0.5" x2="1689.74" y2="-0.5" transform="matrix(0.921292 -0.38887 0.672643 0.739967 -1158 658)" stroke="#D3D5D8" stroke-opacity="0.24"/>
<line y1="-0.5" x2="1689.74" y2="-0.5" transform="matrix(0.921292 -0.38887 0.672643 0.739967 -1108.83 658)" stroke="#D3D5D8" stroke-opacity="0.24"/>
<line y1="-0.5" x2="1689.74" y2="-0.5" transform="matrix(0.921292 -0.38887 0.672643 0.739967 -1059.66 658)" stroke="#D3D5D8" stroke-opacity="0.24"/>
<line y1="-0.5" x2="1689.74" y2="-0.5" transform="matrix(0.921292 -0.38887 0.672643 0.739967 -1010.47 658)" stroke="#D3D5D8" stroke-opacity="0.24"/>
<line y1="-0.5" x2="1689.74" y2="-0.5" transform="matrix(0.921292 -0.38887 0.672643 0.739967 -961.3 658)" stroke="#D3D5D8" stroke-opacity="0.24"/>
<line y1="-0.5" x2="1689.74" y2="-0.5" transform="matrix(0.921292 -0.38887 0.672643 0.739967 -912.122 658)" stroke="#D3D5D8" stroke-opacity="0.24"/>
<line y1="-0.5" x2="1689.74" y2="-0.5" transform="matrix(0.921292 -0.38887 0.672643 0.739967 -1453.04 658)" stroke="#D3D5D8" stroke-opacity="0.24"/>
<line y1="-0.5" x2="1689.74" y2="-0.5" transform="matrix(0.921292 -0.38887 0.672643 0.739967 -1403.87 658)" stroke="#D3D5D8" stroke-opacity="0.24"/>
<line y1="-0.5" x2="1689.74" y2="-0.5" transform="matrix(0.921292 -0.38887 0.672643 0.739967 -1354.71 658)" stroke="#D3D5D8" stroke-opacity="0.24"/>
<line y1="-0.5" x2="1689.74" y2="-0.5" transform="matrix(0.921292 -0.38887 0.672643 0.739967 -1305.53 658)" stroke="#D3D5D8" stroke-opacity="0.24"/>
<line y1="-0.5" x2="1689.74" y2="-0.5" transform="matrix(0.921292 -0.38887 0.672643 0.739967 -1256.34 658)" stroke="#D3D5D8" stroke-opacity="0.24"/>
<line y1="-0.5" x2="1689.74" y2="-0.5" transform="matrix(0.921292 -0.38887 0.672643 0.739967 -1207.17 658)" stroke="#D3D5D8" stroke-opacity="0.24"/>
<line y1="-0.5" x2="1689.74" y2="-0.5" transform="matrix(0.921292 -0.38887 0.672643 0.739967 614.996 658)" stroke="#D3D5D8" stroke-opacity="0.24"/>
<line y1="-0.5" x2="1689.74" y2="-0.5" transform="matrix(0.921292 -0.38887 0.672643 0.739967 664.177 658)" stroke="#D3D5D8" stroke-opacity="0.24"/>
<line y1="-0.5" x2="1689.74" y2="-0.5" transform="matrix(0.921292 -0.38887 0.672643 0.739967 713.347 658)" stroke="#D3D5D8" stroke-opacity="0.24"/>
<line y1="-0.5" x2="1689.74" y2="-0.5" transform="matrix(0.921292 -0.38887 0.672643 0.739967 762.515 658)" stroke="#D3D5D8" stroke-opacity="0.24"/>
<line y1="-0.5" x2="1689.74" y2="-0.5" transform="matrix(0.921292 -0.38887 0.672643 0.739967 811.682 658)" stroke="#D3D5D8" stroke-opacity="0.24"/>
<line y1="-0.5" x2="1689.74" y2="-0.5" transform="matrix(0.921292 -0.38887 0.672643 0.739967 860.87 658)" stroke="#D3D5D8" stroke-opacity="0.24"/>
<line y1="-0.5" x2="1689.74" y2="-0.5" transform="matrix(0.921292 -0.38887 0.672643 0.739967 319.958 658)" stroke="#D3D5D8" stroke-opacity="0.24"/>
<line y1="-0.5" x2="1689.74" y2="-0.5" transform="matrix(0.921292 -0.38887 0.672643 0.739967 369.131 658)" stroke="#D3D5D8" stroke-opacity="0.24"/>
<line y1="-0.5" x2="1689.74" y2="-0.5" transform="matrix(0.921292 -0.38887 0.672643 0.739967 418.295 658)" stroke="#D3D5D8" stroke-opacity="0.24"/>
<line y1="-0.5" x2="1689.74" y2="-0.5" transform="matrix(0.921292 -0.38887 0.672643 0.739967 467.473 658)" stroke="#D3D5D8" stroke-opacity="0.24"/>
<line y1="-0.5" x2="1689.74" y2="-0.5" transform="matrix(0.921292 -0.38887 0.672643 0.739967 516.656 658)" stroke="#D3D5D8" stroke-opacity="0.24"/>
<line y1="-0.5" x2="1689.74" y2="-0.5" transform="matrix(0.921292 -0.38887 0.672643 0.739967 565.824 658)" stroke="#D3D5D8" stroke-opacity="0.24"/>
<line y1="-0.5" x2="1689.74" y2="-0.5" transform="matrix(0.921292 -0.38887 0.672643 0.739967 24.9082 658)" stroke="#D3D5D8" stroke-opacity="0.24"/>
<line y1="-0.5" x2="1689.74" y2="-0.5" transform="matrix(0.921292 -0.38887 0.672643 0.739967 74.084 658)" stroke="#D3D5D8" stroke-opacity="0.24"/>
<line y1="-0.5" x2="1689.74" y2="-0.5" transform="matrix(0.921292 -0.38887 0.672643 0.739967 123.258 658)" stroke="#D3D5D8" stroke-opacity="0.24"/>
<line y1="-0.5" x2="1689.74" y2="-0.5" transform="matrix(0.921292 -0.38887 0.672643 0.739967 172.434 658)" stroke="#D3D5D8" stroke-opacity="0.24"/>
<line y1="-0.5" x2="1689.74" y2="-0.5" transform="matrix(0.921292 -0.38887 0.672643 0.739967 221.6 658)" stroke="#D3D5D8" stroke-opacity="0.24"/>
<line y1="-0.5" x2="1689.74" y2="-0.5" transform="matrix(0.921292 -0.38887 0.672643 0.739967 270.779 658)" stroke="#D3D5D8" stroke-opacity="0.24"/>
<line y1="-0.5" x2="1689.74" y2="-0.5" transform="matrix(0.921292 -0.38887 0.672643 0.739967 -270.142 658)" stroke="#D3D5D8" stroke-opacity="0.24"/>
<line y1="-0.5" x2="1689.74" y2="-0.5" transform="matrix(0.921292 -0.38887 0.672643 0.739967 -220.961 658)" stroke="#D3D5D8" stroke-opacity="0.24"/>
<line y1="-0.5" x2="1689.74" y2="-0.5" transform="matrix(0.921292 -0.38887 0.672643 0.739967 -171.79 658)" stroke="#D3D5D8" stroke-opacity="0.24"/>
<line y1="-0.5" x2="1689.74" y2="-0.5" transform="matrix(0.921292 -0.38887 0.672643 0.739967 -122.623 658)" stroke="#D3D5D8" stroke-opacity="0.24"/>
<line y1="-0.5" x2="1689.74" y2="-0.5" transform="matrix(0.921292 -0.38887 0.672643 0.739967 -73.4336 658)" stroke="#D3D5D8" stroke-opacity="0.24"/>
<line y1="-0.5" x2="1689.74" y2="-0.5" transform="matrix(0.921292 -0.38887 0.672643 0.739967 -24.2676 658)" stroke="#D3D5D8" stroke-opacity="0.24"/>
<line y1="-0.5" x2="1689.74" y2="-0.5" transform="matrix(0.921292 -0.38887 0.672643 0.739967 1215.31 658)" stroke="#D3D5D8" stroke-opacity="0.24"/>
<line y1="-0.5" x2="1689.74" y2="-0.5" transform="matrix(0.921292 -0.38887 0.672643 0.739967 1264.46 658)" stroke="#D3D5D8" stroke-opacity="0.24"/>
<line y1="-0.5" x2="1689.74" y2="-0.5" transform="matrix(0.921292 -0.38887 0.672643 0.739967 1313.66 658)" stroke="#D3D5D8" stroke-opacity="0.24"/>
<line y1="-0.5" x2="1689.74" y2="-0.5" transform="matrix(0.921292 -0.38887 0.672643 0.739967 1362.83 658)" stroke="#D3D5D8" stroke-opacity="0.24"/>
<line y1="-0.5" x2="1689.74" y2="-0.5" transform="matrix(0.921292 -0.38887 0.672643 0.739967 1412 658)" stroke="#D3D5D8" stroke-opacity="0.24"/>
<line y1="-0.5" x2="1689.74" y2="-0.5" transform="matrix(0.921292 -0.38887 0.672643 0.739967 920.262 658)" stroke="#D3D5D8" stroke-opacity="0.24"/>
<line y1="-0.5" x2="1689.74" y2="-0.5" transform="matrix(0.921292 -0.38887 0.672643 0.739967 969.431 658)" stroke="#D3D5D8" stroke-opacity="0.24"/>
<line y1="-0.5" x2="1689.74" y2="-0.5" transform="matrix(0.921292 -0.38887 0.672643 0.739967 1018.61 658)" stroke="#D3D5D8" stroke-opacity="0.24"/>
<line y1="-0.5" x2="1689.74" y2="-0.5" transform="matrix(0.921292 -0.38887 0.672643 0.739967 1067.77 658)" stroke="#D3D5D8" stroke-opacity="0.24"/>
<line y1="-0.5" x2="1689.74" y2="-0.5" transform="matrix(0.921292 -0.38887 0.672643 0.739967 1116.96 658)" stroke="#D3D5D8" stroke-opacity="0.24"/>
<line y1="-0.5" x2="1689.74" y2="-0.5" transform="matrix(0.921292 -0.38887 0.672643 0.739967 1166.13 658)" stroke="#D3D5D8" stroke-opacity="0.24"/>
</mask>
<g mask="url(#mask0)">
<rect x="-719.369" y="26.8433" width="2687.75" height="657.09" fill="#C4C4C4"/>
</g>
</svg>
