<svg width="1139" height="363" viewBox="0 0 1139 363" fill="none" xmlns="http://www.w3.org/2000/svg">
<mask id="mask0" mask-type="alpha" maskUnits="userSpaceOnUse" x="-27" y="-1" width="1166" height="364">
<line y1="-0.5" x2="464.429" y2="-0.5" transform="matrix(0.62466 -0.780897 0.293414 0.955985 138.951 363)" stroke="#D3D5D8" stroke-opacity="0.24"/>
<line y1="-0.5" x2="464.429" y2="-0.5" transform="matrix(0.62466 -0.780897 0.293414 0.955985 148.115 363)" stroke="#D3D5D8" stroke-opacity="0.24"/>
<line y1="-0.5" x2="464.429" y2="-0.5" transform="matrix(0.62466 -0.780897 0.293414 0.955985 157.278 363)" stroke="#D3D5D8" stroke-opacity="0.24"/>
<line y1="-0.5" x2="464.429" y2="-0.5" transform="matrix(0.62466 -0.780897 0.293414 0.955985 166.442 363)" stroke="#D3D5D8" stroke-opacity="0.24"/>
<line y1="-0.5" x2="464.429" y2="-0.5" transform="matrix(0.62466 -0.780897 0.293414 0.955985 175.606 363)" stroke="#D3D5D8" stroke-opacity="0.24"/>
<line y1="-0.5" x2="464.429" y2="-0.5" transform="matrix(0.62466 -0.780897 0.293414 0.955985 184.77 363)" stroke="#D3D5D8" stroke-opacity="0.24"/>
<line y1="-0.5" x2="464.429" y2="-0.5" transform="matrix(0.62466 -0.780897 0.293414 0.955985 83.967 363)" stroke="#D3D5D8" stroke-opacity="0.24"/>
<line y1="-0.5" x2="464.429" y2="-0.5" transform="matrix(0.62466 -0.780897 0.293414 0.955985 93.131 363)" stroke="#D3D5D8" stroke-opacity="0.24"/>
<line y1="-0.5" x2="464.429" y2="-0.5" transform="matrix(0.62466 -0.780897 0.293414 0.955985 102.295 363)" stroke="#D3D5D8" stroke-opacity="0.24"/>
<line y1="-0.5" x2="464.429" y2="-0.5" transform="matrix(0.62466 -0.780897 0.293414 0.955985 111.459 363)" stroke="#D3D5D8" stroke-opacity="0.24"/>
<line y1="-0.5" x2="464.429" y2="-0.5" transform="matrix(0.62466 -0.780897 0.293414 0.955985 120.623 363)" stroke="#D3D5D8" stroke-opacity="0.24"/>
<line y1="-0.5" x2="464.429" y2="-0.5" transform="matrix(0.62466 -0.780897 0.293414 0.955985 129.787 363)" stroke="#D3D5D8" stroke-opacity="0.24"/>
<line y1="-0.5" x2="464.429" y2="-0.5" transform="matrix(0.62466 -0.780897 0.293414 0.955985 28.9835 363)" stroke="#D3D5D8" stroke-opacity="0.24"/>
<line y1="-0.5" x2="464.429" y2="-0.5" transform="matrix(0.62466 -0.780897 0.293414 0.955985 38.1475 363)" stroke="#D3D5D8" stroke-opacity="0.24"/>
<line y1="-0.5" x2="464.429" y2="-0.5" transform="matrix(0.62466 -0.780897 0.293414 0.955985 47.3114 363)" stroke="#D3D5D8" stroke-opacity="0.24"/>
<line y1="-0.5" x2="464.429" y2="-0.5" transform="matrix(0.62466 -0.780897 0.293414 0.955985 56.4753 363)" stroke="#D3D5D8" stroke-opacity="0.24"/>
<line y1="-0.5" x2="464.429" y2="-0.5" transform="matrix(0.62466 -0.780897 0.293414 0.955985 65.6392 363)" stroke="#D3D5D8" stroke-opacity="0.24"/>
<line y1="-0.5" x2="464.429" y2="-0.5" transform="matrix(0.62466 -0.780897 0.293414 0.955985 74.8032 363)" stroke="#D3D5D8" stroke-opacity="0.24"/>
<line y1="-0.5" x2="464.542" y2="-0.5" transform="matrix(0.624013 -0.781414 0.292959 0.956125 -26 363)" stroke="#D3D5D8" stroke-opacity="0.24"/>
<line y1="-0.5" x2="464.429" y2="-0.5" transform="matrix(0.62466 -0.780897 0.293414 0.955985 -16.8361 363)" stroke="#D3D5D8" stroke-opacity="0.24"/>
<line y1="-0.5" x2="464.429" y2="-0.5" transform="matrix(0.62466 -0.780897 0.293414 0.955985 -7.67212 363)" stroke="#D3D5D8" stroke-opacity="0.24"/>
<line y1="-0.5" x2="464.429" y2="-0.5" transform="matrix(0.62466 -0.780897 0.293414 0.955985 1.4917 363)" stroke="#D3D5D8" stroke-opacity="0.24"/>
<line y1="-0.5" x2="464.429" y2="-0.5" transform="matrix(0.62466 -0.780897 0.293414 0.955985 10.6556 363)" stroke="#D3D5D8" stroke-opacity="0.24"/>
<line y1="-0.5" x2="464.429" y2="-0.5" transform="matrix(0.62466 -0.780897 0.293414 0.955985 19.8196 363)" stroke="#D3D5D8" stroke-opacity="0.24"/>
<line y1="-0.5" x2="464.429" y2="-0.5" transform="matrix(0.62466 -0.780897 0.293414 0.955985 360.789 363)" stroke="#D3D5D8" stroke-opacity="0.24"/>
<line y1="-0.5" x2="464.429" y2="-0.5" transform="matrix(0.62466 -0.780897 0.293414 0.955985 369.953 363)" stroke="#D3D5D8" stroke-opacity="0.24"/>
<line y1="-0.5" x2="464.429" y2="-0.5" transform="matrix(0.62466 -0.780897 0.293414 0.955985 379.117 363)" stroke="#D3D5D8" stroke-opacity="0.24"/>
<line y1="-0.5" x2="464.429" y2="-0.5" transform="matrix(0.62466 -0.780897 0.293414 0.955985 388.281 363)" stroke="#D3D5D8" stroke-opacity="0.24"/>
<line y1="-0.5" x2="464.429" y2="-0.5" transform="matrix(0.62466 -0.780897 0.293414 0.955985 397.445 363)" stroke="#D3D5D8" stroke-opacity="0.24"/>
<line y1="-0.5" x2="464.429" y2="-0.5" transform="matrix(0.62466 -0.780897 0.293414 0.955985 406.609 363)" stroke="#D3D5D8" stroke-opacity="0.24"/>
<line y1="-0.5" x2="464.429" y2="-0.5" transform="matrix(0.62466 -0.780897 0.293414 0.955985 305.805 363)" stroke="#D3D5D8" stroke-opacity="0.24"/>
<line y1="-0.5" x2="464.429" y2="-0.5" transform="matrix(0.62466 -0.780897 0.293414 0.955985 314.969 363)" stroke="#D3D5D8" stroke-opacity="0.24"/>
<line y1="-0.5" x2="464.429" y2="-0.5" transform="matrix(0.62466 -0.780897 0.293414 0.955985 324.133 363)" stroke="#D3D5D8" stroke-opacity="0.24"/>
<line y1="-0.5" x2="464.429" y2="-0.5" transform="matrix(0.62466 -0.780897 0.293414 0.955985 333.297 363)" stroke="#D3D5D8" stroke-opacity="0.24"/>
<line y1="-0.5" x2="464.429" y2="-0.5" transform="matrix(0.62466 -0.780897 0.293414 0.955985 342.461 363)" stroke="#D3D5D8" stroke-opacity="0.24"/>
<line y1="-0.5" x2="464.429" y2="-0.5" transform="matrix(0.62466 -0.780897 0.293414 0.955985 351.625 363)" stroke="#D3D5D8" stroke-opacity="0.24"/>
<line y1="-0.5" x2="464.429" y2="-0.5" transform="matrix(0.62466 -0.780897 0.293414 0.955985 250.822 363)" stroke="#D3D5D8" stroke-opacity="0.24"/>
<line y1="-0.5" x2="464.429" y2="-0.5" transform="matrix(0.62466 -0.780897 0.293414 0.955985 259.986 363)" stroke="#D3D5D8" stroke-opacity="0.24"/>
<line y1="-0.5" x2="464.429" y2="-0.5" transform="matrix(0.62466 -0.780897 0.293414 0.955985 269.15 363)" stroke="#D3D5D8" stroke-opacity="0.24"/>
<line y1="-0.5" x2="464.429" y2="-0.5" transform="matrix(0.62466 -0.780897 0.293414 0.955985 278.313 363)" stroke="#D3D5D8" stroke-opacity="0.24"/>
<line y1="-0.5" x2="464.429" y2="-0.5" transform="matrix(0.62466 -0.780897 0.293414 0.955985 287.478 363)" stroke="#D3D5D8" stroke-opacity="0.24"/>
<line y1="-0.5" x2="464.429" y2="-0.5" transform="matrix(0.62466 -0.780897 0.293414 0.955985 296.642 363)" stroke="#D3D5D8" stroke-opacity="0.24"/>
<line y1="-0.5" x2="464.429" y2="-0.5" transform="matrix(0.62466 -0.780897 0.293414 0.955985 195.838 363)" stroke="#D3D5D8" stroke-opacity="0.24"/>
<line y1="-0.5" x2="464.429" y2="-0.5" transform="matrix(0.62466 -0.780897 0.293414 0.955985 205.002 363)" stroke="#D3D5D8" stroke-opacity="0.24"/>
<line y1="-0.5" x2="464.429" y2="-0.5" transform="matrix(0.62466 -0.780897 0.293414 0.955985 214.166 363)" stroke="#D3D5D8" stroke-opacity="0.24"/>
<line y1="-0.5" x2="464.429" y2="-0.5" transform="matrix(0.62466 -0.780897 0.293414 0.955985 223.33 363)" stroke="#D3D5D8" stroke-opacity="0.24"/>
<line y1="-0.5" x2="464.429" y2="-0.5" transform="matrix(0.62466 -0.780897 0.293414 0.955985 232.494 363)" stroke="#D3D5D8" stroke-opacity="0.24"/>
<line y1="-0.5" x2="464.429" y2="-0.5" transform="matrix(0.62466 -0.780897 0.293414 0.955985 241.658 363)" stroke="#D3D5D8" stroke-opacity="0.24"/>
<line y1="-0.5" x2="464.429" y2="-0.5" transform="matrix(0.62466 -0.780897 0.293414 0.955985 581.232 363)" stroke="#D3D5D8" stroke-opacity="0.24"/>
<line y1="-0.5" x2="464.429" y2="-0.5" transform="matrix(0.62466 -0.780897 0.293414 0.955985 590.396 363)" stroke="#D3D5D8" stroke-opacity="0.24"/>
<line y1="-0.5" x2="464.429" y2="-0.5" transform="matrix(0.62466 -0.780897 0.293414 0.955985 599.56 363)" stroke="#D3D5D8" stroke-opacity="0.24"/>
<line y1="-0.5" x2="464.429" y2="-0.5" transform="matrix(0.62466 -0.780897 0.293414 0.955985 608.724 363)" stroke="#D3D5D8" stroke-opacity="0.24"/>
<line y1="-0.5" x2="464.429" y2="-0.5" transform="matrix(0.62466 -0.780897 0.293414 0.955985 617.888 363)" stroke="#D3D5D8" stroke-opacity="0.24"/>
<line y1="-0.5" x2="464.429" y2="-0.5" transform="matrix(0.62466 -0.780897 0.293414 0.955985 627.052 363)" stroke="#D3D5D8" stroke-opacity="0.24"/>
<line y1="-0.5" x2="464.429" y2="-0.5" transform="matrix(0.62466 -0.780897 0.293414 0.955985 526.249 363)" stroke="#D3D5D8" stroke-opacity="0.24"/>
<line y1="-0.5" x2="464.429" y2="-0.5" transform="matrix(0.62466 -0.780897 0.293414 0.955985 535.412 363)" stroke="#D3D5D8" stroke-opacity="0.24"/>
<line y1="-0.5" x2="464.429" y2="-0.5" transform="matrix(0.62466 -0.780897 0.293414 0.955985 544.576 363)" stroke="#D3D5D8" stroke-opacity="0.24"/>
<line y1="-0.5" x2="464.429" y2="-0.5" transform="matrix(0.62466 -0.780897 0.293414 0.955985 553.74 363)" stroke="#D3D5D8" stroke-opacity="0.24"/>
<line y1="-0.5" x2="464.429" y2="-0.5" transform="matrix(0.62466 -0.780897 0.293414 0.955985 562.904 363)" stroke="#D3D5D8" stroke-opacity="0.24"/>
<line y1="-0.5" x2="464.429" y2="-0.5" transform="matrix(0.62466 -0.780897 0.293414 0.955985 572.068 363)" stroke="#D3D5D8" stroke-opacity="0.24"/>
<line y1="-0.5" x2="464.429" y2="-0.5" transform="matrix(0.62466 -0.780897 0.293414 0.955985 471.265 363)" stroke="#D3D5D8" stroke-opacity="0.24"/>
<line y1="-0.5" x2="464.429" y2="-0.5" transform="matrix(0.62466 -0.780897 0.293414 0.955985 480.429 363)" stroke="#D3D5D8" stroke-opacity="0.24"/>
<line y1="-0.5" x2="464.429" y2="-0.5" transform="matrix(0.62466 -0.780897 0.293414 0.955985 489.593 363)" stroke="#D3D5D8" stroke-opacity="0.24"/>
<line y1="-0.5" x2="464.429" y2="-0.5" transform="matrix(0.62466 -0.780897 0.293414 0.955985 498.757 363)" stroke="#D3D5D8" stroke-opacity="0.24"/>
<line y1="-0.5" x2="464.429" y2="-0.5" transform="matrix(0.62466 -0.780897 0.293414 0.955985 507.921 363)" stroke="#D3D5D8" stroke-opacity="0.24"/>
<line y1="-0.5" x2="464.429" y2="-0.5" transform="matrix(0.62466 -0.780897 0.293414 0.955985 517.085 363)" stroke="#D3D5D8" stroke-opacity="0.24"/>
<line y1="-0.5" x2="464.429" y2="-0.5" transform="matrix(0.62466 -0.780897 0.293414 0.955985 416.281 363)" stroke="#D3D5D8" stroke-opacity="0.24"/>
<line y1="-0.5" x2="464.429" y2="-0.5" transform="matrix(0.62466 -0.780897 0.293414 0.955985 425.445 363)" stroke="#D3D5D8" stroke-opacity="0.24"/>
<line y1="-0.5" x2="464.429" y2="-0.5" transform="matrix(0.62466 -0.780897 0.293414 0.955985 434.609 363)" stroke="#D3D5D8" stroke-opacity="0.24"/>
<line y1="-0.5" x2="464.429" y2="-0.5" transform="matrix(0.62466 -0.780897 0.293414 0.955985 443.773 363)" stroke="#D3D5D8" stroke-opacity="0.24"/>
<line y1="-0.5" x2="464.429" y2="-0.5" transform="matrix(0.62466 -0.780897 0.293414 0.955985 452.937 363)" stroke="#D3D5D8" stroke-opacity="0.24"/>
<line y1="-0.5" x2="464.429" y2="-0.5" transform="matrix(0.62466 -0.780897 0.293414 0.955985 462.101 363)" stroke="#D3D5D8" stroke-opacity="0.24"/>
<line y1="-0.5" x2="464.429" y2="-0.5" transform="matrix(0.62466 -0.780897 0.293414 0.955985 803.07 363)" stroke="#D3D5D8" stroke-opacity="0.24"/>
<line y1="-0.5" x2="464.429" y2="-0.5" transform="matrix(0.62466 -0.780897 0.293414 0.955985 812.234 363)" stroke="#D3D5D8" stroke-opacity="0.24"/>
<line y1="-0.5" x2="464.429" y2="-0.5" transform="matrix(0.62466 -0.780897 0.293414 0.955985 821.398 363)" stroke="#D3D5D8" stroke-opacity="0.24"/>
<line y1="-0.5" x2="464.429" y2="-0.5" transform="matrix(0.62466 -0.780897 0.293414 0.955985 830.562 363)" stroke="#D3D5D8" stroke-opacity="0.24"/>
<line y1="-0.5" x2="464.429" y2="-0.5" transform="matrix(0.62466 -0.780897 0.293414 0.955985 839.726 363)" stroke="#D3D5D8" stroke-opacity="0.24"/>
<line y1="-0.5" x2="464.429" y2="-0.5" transform="matrix(0.62466 -0.780897 0.293414 0.955985 848.89 363)" stroke="#D3D5D8" stroke-opacity="0.24"/>
<line y1="-0.5" x2="464.429" y2="-0.5" transform="matrix(0.62466 -0.780897 0.293414 0.955985 748.087 363)" stroke="#D3D5D8" stroke-opacity="0.24"/>
<line y1="-0.5" x2="464.429" y2="-0.5" transform="matrix(0.62466 -0.780897 0.293414 0.955985 757.251 363)" stroke="#D3D5D8" stroke-opacity="0.24"/>
<line y1="-0.5" x2="464.429" y2="-0.5" transform="matrix(0.62466 -0.780897 0.293414 0.955985 766.415 363)" stroke="#D3D5D8" stroke-opacity="0.24"/>
<line y1="-0.5" x2="464.429" y2="-0.5" transform="matrix(0.62466 -0.780897 0.293414 0.955985 775.579 363)" stroke="#D3D5D8" stroke-opacity="0.24"/>
<line y1="-0.5" x2="464.429" y2="-0.5" transform="matrix(0.62466 -0.780897 0.293414 0.955985 784.743 363)" stroke="#D3D5D8" stroke-opacity="0.24"/>
<line y1="-0.5" x2="464.429" y2="-0.5" transform="matrix(0.62466 -0.780897 0.293414 0.955985 793.906 363)" stroke="#D3D5D8" stroke-opacity="0.24"/>
<line y1="-0.5" x2="464.429" y2="-0.5" transform="matrix(0.62466 -0.780897 0.293414 0.955985 693.103 363)" stroke="#D3D5D8" stroke-opacity="0.24"/>
<line y1="-0.5" x2="464.429" y2="-0.5" transform="matrix(0.62466 -0.780897 0.293414 0.955985 702.267 363)" stroke="#D3D5D8" stroke-opacity="0.24"/>
<line y1="-0.5" x2="464.429" y2="-0.5" transform="matrix(0.62466 -0.780897 0.293414 0.955985 711.431 363)" stroke="#D3D5D8" stroke-opacity="0.24"/>
<line y1="-0.5" x2="464.429" y2="-0.5" transform="matrix(0.62466 -0.780897 0.293414 0.955985 720.595 363)" stroke="#D3D5D8" stroke-opacity="0.24"/>
<line y1="-0.5" x2="464.429" y2="-0.5" transform="matrix(0.62466 -0.780897 0.293414 0.955985 729.759 363)" stroke="#D3D5D8" stroke-opacity="0.24"/>
<line y1="-0.5" x2="464.429" y2="-0.5" transform="matrix(0.62466 -0.780897 0.293414 0.955985 738.923 363)" stroke="#D3D5D8" stroke-opacity="0.24"/>
<line y1="-0.5" x2="464.429" y2="-0.5" transform="matrix(0.62466 -0.780897 0.293414 0.955985 638.12 363)" stroke="#D3D5D8" stroke-opacity="0.24"/>
<line y1="-0.5" x2="464.429" y2="-0.5" transform="matrix(0.62466 -0.780897 0.293414 0.955985 647.284 363)" stroke="#D3D5D8" stroke-opacity="0.24"/>
<line y1="-0.5" x2="464.429" y2="-0.5" transform="matrix(0.62466 -0.780897 0.293414 0.955985 656.448 363)" stroke="#D3D5D8" stroke-opacity="0.24"/>
<line y1="-0.5" x2="464.429" y2="-0.5" transform="matrix(0.62466 -0.780897 0.293414 0.955985 665.612 363)" stroke="#D3D5D8" stroke-opacity="0.24"/>
<line y1="-0.5" x2="464.429" y2="-0.5" transform="matrix(0.62466 -0.780897 0.293414 0.955985 674.775 363)" stroke="#D3D5D8" stroke-opacity="0.24"/>
<line y1="-0.5" x2="464.429" y2="-0.5" transform="matrix(0.62466 -0.780897 0.293414 0.955985 683.939 363)" stroke="#D3D5D8" stroke-opacity="0.24"/>
</mask>
<g mask="url(#mask0)">
<rect x="336.754" y="0.328247" width="500.88" height="362.671" fill="#C4C4C4"/>
</g>
</svg>
