<svg width="375" height="184" viewBox="0 0 375 184" fill="none" xmlns="http://www.w3.org/2000/svg">
<mask id="mask0" mask-type="alpha" maskUnits="userSpaceOnUse" x="-44" y="-1" width="565" height="185">
<line y1="-0.5" x2="231.194" y2="-0.5" transform="matrix(0.606415 -0.795149 0.280841 0.959754 36.7141 184)" stroke="#D3D5D8" stroke-opacity="0.24"/>
<line y1="-0.5" x2="231.194" y2="-0.5" transform="matrix(0.606415 -0.795149 0.280841 0.959754 41.1426 184)" stroke="#D3D5D8" stroke-opacity="0.24"/>
<line y1="-0.5" x2="231.194" y2="-0.5" transform="matrix(0.606415 -0.795149 0.280841 0.959754 45.572 184)" stroke="#D3D5D8" stroke-opacity="0.24"/>
<line y1="-0.5" x2="231.194" y2="-0.5" transform="matrix(0.606415 -0.795149 0.280841 0.959754 49.9998 184)" stroke="#D3D5D8" stroke-opacity="0.24"/>
<line y1="-0.5" x2="231.194" y2="-0.5" transform="matrix(0.606415 -0.795149 0.280841 0.959754 54.4287 184)" stroke="#D3D5D8" stroke-opacity="0.24"/>
<line y1="-0.5" x2="231.194" y2="-0.5" transform="matrix(0.606415 -0.795149 0.280841 0.959754 58.8572 184)" stroke="#D3D5D8" stroke-opacity="0.24"/>
<line y1="-0.5" x2="231.194" y2="-0.5" transform="matrix(0.606415 -0.795149 0.280841 0.959754 10.1431 184)" stroke="#D3D5D8" stroke-opacity="0.24"/>
<line y1="-0.5" x2="231.194" y2="-0.5" transform="matrix(0.606415 -0.795149 0.280841 0.959754 14.5713 184)" stroke="#D3D5D8" stroke-opacity="0.24"/>
<line y1="-0.5" x2="231.194" y2="-0.5" transform="matrix(0.606415 -0.795149 0.280841 0.959754 18.9998 184)" stroke="#D3D5D8" stroke-opacity="0.24"/>
<line y1="-0.5" x2="231.194" y2="-0.5" transform="matrix(0.606415 -0.795149 0.280841 0.959754 23.4287 184)" stroke="#D3D5D8" stroke-opacity="0.24"/>
<line y1="-0.5" x2="231.194" y2="-0.5" transform="matrix(0.606415 -0.795149 0.280841 0.959754 27.8569 184)" stroke="#D3D5D8" stroke-opacity="0.24"/>
<line y1="-0.5" x2="231.194" y2="-0.5" transform="matrix(0.606415 -0.795149 0.280841 0.959754 32.2859 184)" stroke="#D3D5D8" stroke-opacity="0.24"/>
<line y1="-0.5" x2="231.194" y2="-0.5" transform="matrix(0.606415 -0.795149 0.280841 0.959754 -16.4287 184)" stroke="#D3D5D8" stroke-opacity="0.24"/>
<line y1="-0.5" x2="231.194" y2="-0.5" transform="matrix(0.606415 -0.795149 0.280841 0.959754 -12 184)" stroke="#D3D5D8" stroke-opacity="0.24"/>
<line y1="-0.5" x2="231.194" y2="-0.5" transform="matrix(0.606415 -0.795149 0.280841 0.959754 -7.57153 184)" stroke="#D3D5D8" stroke-opacity="0.24"/>
<line y1="-0.5" x2="231.194" y2="-0.5" transform="matrix(0.606415 -0.795149 0.280841 0.959754 -3.14258 184)" stroke="#D3D5D8" stroke-opacity="0.24"/>
<line y1="-0.5" x2="231.194" y2="-0.5" transform="matrix(0.606415 -0.795149 0.280841 0.959754 1.28564 184)" stroke="#D3D5D8" stroke-opacity="0.24"/>
<line y1="-0.5" x2="231.194" y2="-0.5" transform="matrix(0.606415 -0.795149 0.280841 0.959754 5.7146 184)" stroke="#D3D5D8" stroke-opacity="0.24"/>
<line y1="-0.5" x2="231.259" y2="-0.5" transform="matrix(0.605763 -0.795645 0.280402 0.959883 -43 184)" stroke="#D3D5D8" stroke-opacity="0.24"/>
<line y1="-0.5" x2="231.194" y2="-0.5" transform="matrix(0.606415 -0.795149 0.280841 0.959754 -38.571 184)" stroke="#D3D5D8" stroke-opacity="0.24"/>
<line y1="-0.5" x2="231.194" y2="-0.5" transform="matrix(0.606415 -0.795149 0.280841 0.959754 -34.1428 184)" stroke="#D3D5D8" stroke-opacity="0.24"/>
<line y1="-0.5" x2="231.194" y2="-0.5" transform="matrix(0.606415 -0.795149 0.280841 0.959754 -29.7139 184)" stroke="#D3D5D8" stroke-opacity="0.24"/>
<line y1="-0.5" x2="231.194" y2="-0.5" transform="matrix(0.606415 -0.795149 0.280841 0.959754 -25.2854 184)" stroke="#D3D5D8" stroke-opacity="0.24"/>
<line y1="-0.5" x2="231.194" y2="-0.5" transform="matrix(0.606415 -0.795149 0.280841 0.959754 -20.8572 184)" stroke="#D3D5D8" stroke-opacity="0.24"/>
<line y1="-0.5" x2="231.194" y2="-0.5" transform="matrix(0.606415 -0.795149 0.280841 0.959754 143.92 184)" stroke="#D3D5D8" stroke-opacity="0.24"/>
<line y1="-0.5" x2="231.194" y2="-0.5" transform="matrix(0.606415 -0.795149 0.280841 0.959754 148.349 184)" stroke="#D3D5D8" stroke-opacity="0.24"/>
<line y1="-0.5" x2="231.194" y2="-0.5" transform="matrix(0.606415 -0.795149 0.280841 0.959754 152.777 184)" stroke="#D3D5D8" stroke-opacity="0.24"/>
<line y1="-0.5" x2="231.194" y2="-0.5" transform="matrix(0.606415 -0.795149 0.280841 0.959754 157.206 184)" stroke="#D3D5D8" stroke-opacity="0.24"/>
<line y1="-0.5" x2="231.194" y2="-0.5" transform="matrix(0.606415 -0.795149 0.280841 0.959754 161.635 184)" stroke="#D3D5D8" stroke-opacity="0.24"/>
<line y1="-0.5" x2="231.194" y2="-0.5" transform="matrix(0.606415 -0.795149 0.280841 0.959754 166.063 184)" stroke="#D3D5D8" stroke-opacity="0.24"/>
<line y1="-0.5" x2="231.194" y2="-0.5" transform="matrix(0.606415 -0.795149 0.280841 0.959754 117.349 184)" stroke="#D3D5D8" stroke-opacity="0.24"/>
<line y1="-0.5" x2="231.194" y2="-0.5" transform="matrix(0.606415 -0.795149 0.280841 0.959754 121.777 184)" stroke="#D3D5D8" stroke-opacity="0.24"/>
<line y1="-0.5" x2="231.194" y2="-0.5" transform="matrix(0.606415 -0.795149 0.280841 0.959754 126.206 184)" stroke="#D3D5D8" stroke-opacity="0.24"/>
<line y1="-0.5" x2="231.194" y2="-0.5" transform="matrix(0.606415 -0.795149 0.280841 0.959754 130.635 184)" stroke="#D3D5D8" stroke-opacity="0.24"/>
<line y1="-0.5" x2="231.194" y2="-0.5" transform="matrix(0.606415 -0.795149 0.280841 0.959754 135.063 184)" stroke="#D3D5D8" stroke-opacity="0.24"/>
<line y1="-0.5" x2="231.194" y2="-0.5" transform="matrix(0.606415 -0.795149 0.280841 0.959754 139.492 184)" stroke="#D3D5D8" stroke-opacity="0.24"/>
<line y1="-0.5" x2="231.194" y2="-0.5" transform="matrix(0.606415 -0.795149 0.280841 0.959754 90.7773 184)" stroke="#D3D5D8" stroke-opacity="0.24"/>
<line y1="-0.5" x2="231.194" y2="-0.5" transform="matrix(0.606415 -0.795149 0.280841 0.959754 95.2058 184)" stroke="#D3D5D8" stroke-opacity="0.24"/>
<line y1="-0.5" x2="231.194" y2="-0.5" transform="matrix(0.606415 -0.795149 0.280841 0.959754 99.634 184)" stroke="#D3D5D8" stroke-opacity="0.24"/>
<line y1="-0.5" x2="231.194" y2="-0.5" transform="matrix(0.606415 -0.795149 0.280841 0.959754 104.063 184)" stroke="#D3D5D8" stroke-opacity="0.24"/>
<line y1="-0.5" x2="231.194" y2="-0.5" transform="matrix(0.606415 -0.795149 0.280841 0.959754 108.492 184)" stroke="#D3D5D8" stroke-opacity="0.24"/>
<line y1="-0.5" x2="231.194" y2="-0.5" transform="matrix(0.606415 -0.795149 0.280841 0.959754 112.921 184)" stroke="#D3D5D8" stroke-opacity="0.24"/>
<line y1="-0.5" x2="231.194" y2="-0.5" transform="matrix(0.606415 -0.795149 0.280841 0.959754 64.2061 184)" stroke="#D3D5D8" stroke-opacity="0.24"/>
<line y1="-0.5" x2="231.194" y2="-0.5" transform="matrix(0.606415 -0.795149 0.280841 0.959754 68.6345 184)" stroke="#D3D5D8" stroke-opacity="0.24"/>
<line y1="-0.5" x2="231.194" y2="-0.5" transform="matrix(0.606415 -0.795149 0.280841 0.959754 73.063 184)" stroke="#D3D5D8" stroke-opacity="0.24"/>
<line y1="-0.5" x2="231.194" y2="-0.5" transform="matrix(0.606415 -0.795149 0.280841 0.959754 77.4912 184)" stroke="#D3D5D8" stroke-opacity="0.24"/>
<line y1="-0.5" x2="231.194" y2="-0.5" transform="matrix(0.606415 -0.795149 0.280841 0.959754 81.9207 184)" stroke="#D3D5D8" stroke-opacity="0.24"/>
<line y1="-0.5" x2="231.194" y2="-0.5" transform="matrix(0.606415 -0.795149 0.280841 0.959754 86.3491 184)" stroke="#D3D5D8" stroke-opacity="0.24"/>
<line y1="-0.5" x2="231.194" y2="-0.5" transform="matrix(0.606415 -0.795149 0.280841 0.959754 250.452 184)" stroke="#D3D5D8" stroke-opacity="0.24"/>
<line y1="-0.5" x2="231.194" y2="-0.5" transform="matrix(0.606415 -0.795149 0.280841 0.959754 254.88 184)" stroke="#D3D5D8" stroke-opacity="0.24"/>
<line y1="-0.5" x2="231.194" y2="-0.5" transform="matrix(0.606415 -0.795149 0.280841 0.959754 259.309 184)" stroke="#D3D5D8" stroke-opacity="0.24"/>
<line y1="-0.5" x2="231.194" y2="-0.5" transform="matrix(0.606415 -0.795149 0.280841 0.959754 263.738 184)" stroke="#D3D5D8" stroke-opacity="0.24"/>
<line y1="-0.5" x2="231.194" y2="-0.5" transform="matrix(0.606415 -0.795149 0.280841 0.959754 268.167 184)" stroke="#D3D5D8" stroke-opacity="0.24"/>
<line y1="-0.5" x2="231.194" y2="-0.5" transform="matrix(0.606415 -0.795149 0.280841 0.959754 272.595 184)" stroke="#D3D5D8" stroke-opacity="0.24"/>
<line y1="-0.5" x2="231.194" y2="-0.5" transform="matrix(0.606415 -0.795149 0.280841 0.959754 223.881 184)" stroke="#D3D5D8" stroke-opacity="0.24"/>
<line y1="-0.5" x2="231.194" y2="-0.5" transform="matrix(0.606415 -0.795149 0.280841 0.959754 228.309 184)" stroke="#D3D5D8" stroke-opacity="0.24"/>
<line y1="-0.5" x2="231.194" y2="-0.5" transform="matrix(0.606415 -0.795149 0.280841 0.959754 232.738 184)" stroke="#D3D5D8" stroke-opacity="0.24"/>
<line y1="-0.5" x2="231.194" y2="-0.5" transform="matrix(0.606415 -0.795149 0.280841 0.959754 237.167 184)" stroke="#D3D5D8" stroke-opacity="0.24"/>
<line y1="-0.5" x2="231.194" y2="-0.5" transform="matrix(0.606415 -0.795149 0.280841 0.959754 241.595 184)" stroke="#D3D5D8" stroke-opacity="0.24"/>
<line y1="-0.5" x2="231.194" y2="-0.5" transform="matrix(0.606415 -0.795149 0.280841 0.959754 246.024 184)" stroke="#D3D5D8" stroke-opacity="0.24"/>
<line y1="-0.5" x2="231.194" y2="-0.5" transform="matrix(0.606415 -0.795149 0.280841 0.959754 197.31 184)" stroke="#D3D5D8" stroke-opacity="0.24"/>
<line y1="-0.5" x2="231.194" y2="-0.5" transform="matrix(0.606415 -0.795149 0.280841 0.959754 201.738 184)" stroke="#D3D5D8" stroke-opacity="0.24"/>
<line y1="-0.5" x2="231.194" y2="-0.5" transform="matrix(0.606415 -0.795149 0.280841 0.959754 206.166 184)" stroke="#D3D5D8" stroke-opacity="0.24"/>
<line y1="-0.5" x2="231.194" y2="-0.5" transform="matrix(0.606415 -0.795149 0.280841 0.959754 210.595 184)" stroke="#D3D5D8" stroke-opacity="0.24"/>
<line y1="-0.5" x2="231.194" y2="-0.5" transform="matrix(0.606415 -0.795149 0.280841 0.959754 215.023 184)" stroke="#D3D5D8" stroke-opacity="0.24"/>
<line y1="-0.5" x2="231.194" y2="-0.5" transform="matrix(0.606415 -0.795149 0.280841 0.959754 219.452 184)" stroke="#D3D5D8" stroke-opacity="0.24"/>
<line y1="-0.5" x2="231.194" y2="-0.5" transform="matrix(0.606415 -0.795149 0.280841 0.959754 170.738 184)" stroke="#D3D5D8" stroke-opacity="0.24"/>
<line y1="-0.5" x2="231.194" y2="-0.5" transform="matrix(0.606415 -0.795149 0.280841 0.959754 175.167 184)" stroke="#D3D5D8" stroke-opacity="0.24"/>
<line y1="-0.5" x2="231.194" y2="-0.5" transform="matrix(0.606415 -0.795149 0.280841 0.959754 179.594 184)" stroke="#D3D5D8" stroke-opacity="0.24"/>
<line y1="-0.5" x2="231.194" y2="-0.5" transform="matrix(0.606415 -0.795149 0.280841 0.959754 184.023 184)" stroke="#D3D5D8" stroke-opacity="0.24"/>
<line y1="-0.5" x2="231.194" y2="-0.5" transform="matrix(0.606415 -0.795149 0.280841 0.959754 188.452 184)" stroke="#D3D5D8" stroke-opacity="0.24"/>
<line y1="-0.5" x2="231.194" y2="-0.5" transform="matrix(0.606415 -0.795149 0.280841 0.959754 192.881 184)" stroke="#D3D5D8" stroke-opacity="0.24"/>
<line y1="-0.5" x2="231.194" y2="-0.5" transform="matrix(0.606415 -0.795149 0.280841 0.959754 357.658 184)" stroke="#D3D5D8" stroke-opacity="0.24"/>
<line y1="-0.5" x2="231.194" y2="-0.5" transform="matrix(0.606415 -0.795149 0.280841 0.959754 362.086 184)" stroke="#D3D5D8" stroke-opacity="0.24"/>
<line y1="-0.5" x2="231.194" y2="-0.5" transform="matrix(0.606415 -0.795149 0.280841 0.959754 366.515 184)" stroke="#D3D5D8" stroke-opacity="0.24"/>
<line y1="-0.5" x2="231.194" y2="-0.5" transform="matrix(0.606415 -0.795149 0.280841 0.959754 370.944 184)" stroke="#D3D5D8" stroke-opacity="0.24"/>
<line y1="-0.5" x2="231.194" y2="-0.5" transform="matrix(0.606415 -0.795149 0.280841 0.959754 331.086 184)" stroke="#D3D5D8" stroke-opacity="0.24"/>
<line y1="-0.5" x2="231.194" y2="-0.5" transform="matrix(0.606415 -0.795149 0.280841 0.959754 335.515 184)" stroke="#D3D5D8" stroke-opacity="0.24"/>
<line y1="-0.5" x2="231.194" y2="-0.5" transform="matrix(0.606415 -0.795149 0.280841 0.959754 339.944 184)" stroke="#D3D5D8" stroke-opacity="0.24"/>
<line y1="-0.5" x2="231.194" y2="-0.5" transform="matrix(0.606415 -0.795149 0.280841 0.959754 344.373 184)" stroke="#D3D5D8" stroke-opacity="0.24"/>
<line y1="-0.5" x2="231.194" y2="-0.5" transform="matrix(0.606415 -0.795149 0.280841 0.959754 348.8 184)" stroke="#D3D5D8" stroke-opacity="0.24"/>
<line y1="-0.5" x2="231.194" y2="-0.5" transform="matrix(0.606415 -0.795149 0.280841 0.959754 353.23 184)" stroke="#D3D5D8" stroke-opacity="0.24"/>
<line y1="-0.5" x2="231.194" y2="-0.5" transform="matrix(0.606415 -0.795149 0.280841 0.959754 304.515 184)" stroke="#D3D5D8" stroke-opacity="0.24"/>
<line y1="-0.5" x2="231.194" y2="-0.5" transform="matrix(0.606415 -0.795149 0.280841 0.959754 308.944 184)" stroke="#D3D5D8" stroke-opacity="0.24"/>
<line y1="-0.5" x2="231.194" y2="-0.5" transform="matrix(0.606415 -0.795149 0.280841 0.959754 313.372 184)" stroke="#D3D5D8" stroke-opacity="0.24"/>
<line y1="-0.5" x2="231.194" y2="-0.5" transform="matrix(0.606415 -0.795149 0.280841 0.959754 317.801 184)" stroke="#D3D5D8" stroke-opacity="0.24"/>
<line y1="-0.5" x2="231.194" y2="-0.5" transform="matrix(0.606415 -0.795149 0.280841 0.959754 322.229 184)" stroke="#D3D5D8" stroke-opacity="0.24"/>
<line y1="-0.5" x2="231.194" y2="-0.5" transform="matrix(0.606415 -0.795149 0.280841 0.959754 326.658 184)" stroke="#D3D5D8" stroke-opacity="0.24"/>
<line y1="-0.5" x2="231.194" y2="-0.5" transform="matrix(0.606415 -0.795149 0.280841 0.959754 277.944 184)" stroke="#D3D5D8" stroke-opacity="0.24"/>
<line y1="-0.5" x2="231.194" y2="-0.5" transform="matrix(0.606415 -0.795149 0.280841 0.959754 282.372 184)" stroke="#D3D5D8" stroke-opacity="0.24"/>
<line y1="-0.5" x2="231.194" y2="-0.5" transform="matrix(0.606415 -0.795149 0.280841 0.959754 286.801 184)" stroke="#D3D5D8" stroke-opacity="0.24"/>
<line y1="-0.5" x2="231.194" y2="-0.5" transform="matrix(0.606415 -0.795149 0.280841 0.959754 291.229 184)" stroke="#D3D5D8" stroke-opacity="0.24"/>
<line y1="-0.5" x2="231.194" y2="-0.5" transform="matrix(0.606415 -0.795149 0.280841 0.959754 295.658 184)" stroke="#D3D5D8" stroke-opacity="0.24"/>
<line y1="-0.5" x2="231.194" y2="-0.5" transform="matrix(0.606415 -0.795149 0.280841 0.959754 300.087 184)" stroke="#D3D5D8" stroke-opacity="0.24"/>
</mask>
<g mask="url(#mask0)">
<rect x="132.306" y="0.166809" width="242.056" height="183.833" fill="#C4C4C4"/>
</g>
</svg>
