<svg width="127" height="124" viewBox="0 0 127 124" fill="none" xmlns="http://www.w3.org/2000/svg">
<path fill-rule="evenodd" clip-rule="evenodd" d="M44.4053 98.4976L37.0017 105.506C36.4502 104.977 35.5791 104.945 35.0116 105.49L20.2608 119.632C19.6487 120.217 19.5648 121.214 20.1011 121.869L20.9812 122.947C21.5162 123.602 22.4792 123.686 23.0936 123.098L37.8444 108.956C38.4119 108.411 38.5282 107.518 38.1115 106.864L47.8428 97.7534C46.8897 97.8205 45.4261 98.2779 44.4053 98.4976Z" fill="#F2E6DE"/>
<path fill-rule="evenodd" clip-rule="evenodd" d="M82.9565 98.4976L90.36 105.506C90.9102 104.977 91.7827 104.945 92.3501 105.49L107.101 119.632C107.713 120.217 107.797 121.214 107.261 121.869L106.381 122.947C105.846 123.602 104.883 123.686 104.268 123.098L89.5173 108.956C88.9499 108.411 88.8336 107.518 89.2503 106.864L79.5189 97.7534C80.472 97.8205 81.9353 98.2779 82.9565 98.4976Z" fill="#F2E6DE"/>
<path fill-rule="evenodd" clip-rule="evenodd" d="M92.6987 36.7659C93.8698 37.2547 94.3126 38.0439 95.1954 38.3803C97.121 39.1179 99.5489 36.8715 101.588 34.584C105.634 30.0445 114.342 21.6922 116.679 18.0959C114.176 20.0955 103.587 29.2597 98.9413 33.0148C97.0626 34.5348 96.8094 34.8812 95.2282 33.0872C93.7782 31.1716 93.997 30.7833 95.6858 29.0293C99.8569 24.693 109.966 14.9424 112.187 12.5996C108.501 14.5424 99.4665 22.4978 94.655 26.0993C92.2303 27.9141 89.7899 30.1441 90.2031 32.272C90.3927 33.2456 91.0647 33.8212 91.3551 35.1216L78.0085 47.0385L81.0113 47.0905L92.6987 36.7659Z" fill="#F2E6DE"/>
<path fill-rule="evenodd" clip-rule="evenodd" d="M34.3025 36.7667C33.1297 37.2555 32.6885 38.0447 31.8057 38.381C29.8802 39.1186 27.4522 36.8723 25.4131 34.5847C21.3675 30.0452 12.6589 21.693 10.3221 18.0966C12.8249 20.0962 23.4143 29.2604 28.0598 33.0156C29.9386 34.5355 30.1918 34.8819 31.7729 33.0879C33.2229 31.1724 33.0041 30.784 31.3153 29.03C27.1442 24.6937 17.0352 14.9431 14.8137 12.6003C18.5 14.5431 27.5346 22.4986 32.3461 26.1001C34.7697 27.9148 37.2112 30.1448 36.798 32.2728C36.6084 33.2463 35.9365 33.8219 35.6461 35.1223L48.9926 47.0393L45.9899 47.0913L34.3025 36.7667Z" fill="#F2E6DE"/>
<path fill-rule="evenodd" clip-rule="evenodd" d="M53.041 43.0078C47.5696 42.3742 44.2788 33.9195 46.6928 26.8061C47.5256 24.3546 48.6967 20.4403 46.8757 17.8011C51.0812 17.8011 51.8412 22.6265 51.7932 25.0225C51.7421 27.6199 55.8176 26.9382 55.3378 23.6448C54.6571 18.9762 50.7679 19.2062 53.2714 13.7282C54.372 11.3115 56.0979 9.11071 58.2484 9.23761C55.6 12.4148 55.9595 19.0101 60.3364 17.0129C63.3373 15.6444 60.2012 11.1401 60.6594 6.75836C60.9162 4.30201 63.2532 0.877674 66.8837 0C64.6045 5.46431 70.1005 8.04535 71.7894 12.8884C73.5592 17.961 66.2541 25.4543 71.9625 27.07C75.7512 28.1424 73.8333 18.3162 80.9719 18.3347C77.1946 22.2252 79.6074 29.2959 80.1185 33.1044C80.6128 36.7812 78.2794 41.2498 73.2513 43.0655L72.3511 43.0417C72.9098 42.4121 73.3548 41.8618 73.5429 41.5626C74.6176 39.8628 74.5616 36.7852 73.5443 35.0937C73.5443 35.978 72.2916 38.2555 71.1201 38.2555C70.494 38.2555 69.2599 38.174 69.0057 37.669C68.1637 35.9701 69.6666 33.8416 70.2913 32.5916C70.9157 31.3425 68.7272 29.0615 67.8671 28.4729C67.8671 29.577 68.421 31.2839 66.6921 32.0778C64.5891 33.0472 63.6484 30.6908 62.7223 29.0668C61.3031 26.5725 61.1863 24.9437 61.6543 22.223C59.7791 22.223 57.7699 28.4605 57.7699 29.7087C57.7699 32.0651 61.4956 37.239 57.4289 37.5214C54.1478 37.7506 57.0945 34.1606 55.3361 31.0279C54.9801 34.3624 51.62 35.8745 52.0003 39.6614C52.1179 40.814 52.7361 42.2041 53.041 43.0078Z" fill="#F7C97E"/>
<path d="M1.81457 89.9078C1.13149 89.7081 0.657978 89.5084 0.394787 89.3095C0.131215 89.1098 0 88.8603 0 88.561C0 88.3328 0.063898 88.0122 0.192071 87.5991C0.320243 87.1857 0.508509 86.6974 0.758008 86.1345C1.00675 85.5716 1.30569 84.9478 1.65445 84.264C2.00322 83.5798 2.39801 82.8457 2.8392 82.0619C2.46875 82.0619 2.13786 82.0619 1.84652 82.0619C1.55481 82.0619 1.31634 82.0619 1.13149 82.0619C1.21707 81.8477 1.45858 81.6621 1.85717 81.505C2.25538 81.348 2.78214 81.2122 3.43708 81.0981C3.99199 80.1701 4.58607 79.2847 5.2197 78.4422C5.85296 77.5998 6.49002 76.825 7.1305 76.1184C7.77099 75.4117 8.41147 74.7902 9.05195 74.2551C9.69243 73.7196 10.304 73.2948 10.8878 72.9806C10.9019 72.881 10.9125 72.795 10.9198 72.7239C10.9266 72.6524 10.9304 72.6026 10.9304 72.5737C11.1297 72.5737 11.3963 72.6239 11.731 72.7231C12.0653 72.8228 12.3928 72.9441 12.713 73.086C13.0333 73.2286 13.3178 73.3743 13.5669 73.5237C13.8156 73.6732 13.9545 73.798 13.9834 73.8972C13.5137 74.7229 13.0512 75.9575 12.5955 77.6013C12.1399 79.2451 11.763 81.2129 11.464 83.5045C11.3925 84.0738 11.3324 84.7212 11.2826 85.4472C11.2324 86.1729 11.2081 86.9841 11.2081 87.881C11.2081 88.1944 11.2081 88.5142 11.2081 88.8417C11.2081 89.1688 11.2221 89.5103 11.2507 89.8663C11.2221 89.8804 11.1936 89.8872 11.1651 89.8872C11.1366 89.8872 11.0799 89.8872 10.9943 89.8872C10.795 89.8872 10.5638 89.8557 10.3006 89.7929C10.037 89.7294 9.78105 89.6526 9.53193 89.5617C9.28281 89.4704 9.06945 89.3688 8.89145 89.2566C8.71346 89.1444 8.60316 89.0463 8.56056 88.9623C8.54611 88.7801 8.53926 88.6013 8.53926 88.4267C8.53926 88.2518 8.53926 88.0658 8.53926 87.8696C8.53926 87.0009 8.57121 86.1185 8.63549 85.2217C8.69938 84.3248 8.80968 83.4002 8.96638 82.4479C8.76708 82.298 8.50389 82.2231 8.17642 82.2231C7.84895 82.2231 7.4827 82.2231 7.07688 82.2231C6.67106 82.2231 6.2371 82.2231 5.77462 82.2231C5.31175 82.2231 4.85991 82.2231 4.4191 82.2231C4.07756 82.8548 3.75732 83.4832 3.45838 84.1077C3.15944 84.7326 2.90347 85.3605 2.68972 85.9918C2.44745 86.6658 2.25196 87.3394 2.10249 88.0133C1.9534 88.6865 1.85717 89.3182 1.81457 89.9078ZM10.0549 77.0848C10.1116 76.8851 10.1793 76.6101 10.2576 76.2599C10.3356 75.91 10.4105 75.5422 10.4816 75.1561C10.1256 75.2847 9.73085 75.5197 9.29689 75.862C8.86255 76.2043 8.41413 76.6284 7.95203 77.1342C7.48916 77.6405 7.01983 78.2106 6.54289 78.845C6.06595 79.4794 5.60689 80.1533 5.1657 80.8657C6.36109 80.7455 7.72002 80.6854 9.24326 80.6854C9.35698 80.0856 9.48135 79.4893 9.61675 78.8963C9.75253 78.303 9.8982 77.6994 10.0549 77.0848Z" fill="#FDFEFF"/>
<path d="M23.2269 79.7566C23.2125 80.0271 23.1661 80.3085 23.0881 80.5998C23.0097 80.8916 22.9135 81.1547 22.7998 81.3898C22.6857 81.6245 22.5651 81.8203 22.437 81.977C22.3088 82.1337 22.1878 82.2117 22.0741 82.2117C21.9174 82.1976 21.825 82.0907 21.7965 81.8914C21.7965 81.8489 21.814 81.7815 21.8497 81.6887C21.8851 81.5963 21.9243 81.4932 21.9673 81.3791C22.0098 81.2654 22.049 81.1517 22.0848 81.0376C22.1201 80.9239 22.138 80.8242 22.138 80.7387C22.138 80.5394 22.0916 80.3724 21.9992 80.237C21.9064 80.102 21.782 80.0343 21.6257 80.0343C21.0563 80.0343 20.6224 80.3884 20.3234 81.0966C20.0245 81.8047 19.875 82.8457 19.875 84.2199C19.875 84.3617 19.8819 84.4465 19.8963 84.4747C20.1953 84.4747 20.4619 84.4747 20.6969 84.4747C20.9316 84.4747 21.1628 84.4747 21.3907 84.4747C21.4047 84.5032 21.412 84.5599 21.412 84.6443C21.412 84.7721 21.3834 84.8641 21.3268 84.9204C20.9993 84.9916 20.7395 85.052 20.5475 85.1011C20.3554 85.1509 20.2093 85.1969 20.1097 85.2391C20.01 85.2817 19.9496 85.3278 19.9283 85.3772C19.907 85.427 19.8963 85.4944 19.8963 85.5792C19.8963 85.6925 19.8998 85.8058 19.907 85.9192C19.9142 86.0325 19.9176 86.174 19.9176 86.3436C19.9176 87.5333 19.5936 88.4906 18.9463 89.2152C18.2985 89.9397 17.3983 90.3588 16.2455 90.4729C16.0462 90.4585 15.8401 90.4014 15.6263 90.3022C15.4129 90.2025 15.2098 90.0743 15.0178 89.918C14.8257 89.7613 14.6584 89.5871 14.5161 89.3951C14.3735 89.203 14.2739 89.0071 14.2172 88.8078C14.2172 88.2628 14.3309 87.7429 14.5587 87.2481C14.7862 86.7533 15.0958 86.3163 15.4875 85.9359C15.8789 85.5556 16.3413 85.2475 16.875 85.0106C17.4086 84.774 17.9886 84.6557 18.615 84.6557C18.615 84.2986 18.5792 83.9483 18.5081 83.6052C18.4366 83.2622 18.3621 82.9298 18.2841 82.6084C18.2057 82.2866 18.1308 81.9721 18.0601 81.6648C17.9886 81.3575 17.9532 81.0536 17.9532 80.7535C17.9532 80.3678 18.0312 79.9856 18.1879 79.6068C18.3442 79.228 18.5507 78.8777 18.8071 78.5559C19.0634 78.2345 19.362 77.9596 19.7035 77.7306C20.045 77.5016 20.4007 77.3446 20.7711 77.2586C20.9274 77.3012 21.1374 77.4259 21.4009 77.6321C21.6641 77.8386 21.9239 78.0699 22.1802 78.3258C22.4366 78.5822 22.664 78.8419 22.8633 79.1051C23.0634 79.3691 23.1843 79.5859 23.2269 79.7566ZM16.182 89.4917C16.5235 89.349 16.8472 89.1429 17.1534 88.8725C17.4591 88.6021 17.7261 88.2959 17.954 87.9544C18.1814 87.6128 18.3628 87.25 18.4982 86.8655C18.6332 86.4813 18.7009 86.1044 18.7009 85.734C18.4161 85.7766 18.1031 85.9085 17.7615 86.1288C17.42 86.3497 17.0997 86.6129 16.8008 86.9187C16.5018 87.2249 16.2527 87.5417 16.0534 87.8688C15.8538 88.1962 15.7545 88.4804 15.7545 88.7226C15.7552 89.036 15.8971 89.292 16.182 89.4917Z" fill="#FDFEFF"/>
<path d="M32.1504 79.6608C32.2927 79.6608 32.46 79.6859 32.6521 79.7354C32.8442 79.7856 33.0184 79.8495 33.1751 79.9274C33.3314 80.0058 33.4633 80.0876 33.5698 80.1728C33.6767 80.2583 33.73 80.3367 33.73 80.4074C33.4451 81.0053 33.1819 81.6066 32.94 82.2114C32.6977 82.8165 32.4916 83.3961 32.3208 83.9514C32.1501 84.5063 32.0185 85.0262 31.926 85.5096C31.8332 85.9938 31.7872 86.4137 31.7872 86.7693C31.7872 87.1679 31.8298 87.4988 31.9154 87.7619C32.001 88.0255 32.1428 88.2138 32.3425 88.3279C32.1717 88.4416 31.9508 88.534 31.6807 88.6055C31.4103 88.6766 31.1684 88.7124 30.955 88.7124C30.1864 88.7124 29.8023 88.186 29.8023 87.1325C29.8023 86.3212 30.0723 85.2111 30.6135 83.8023C30.3286 84.4542 30.0015 85.0673 29.6315 85.6408C29.261 86.2147 28.8841 86.7217 28.5 87.161C28.1158 87.6003 27.7279 87.9582 27.3365 88.2343C26.9448 88.5101 26.5858 88.677 26.2583 88.7337C25.7315 88.7337 25.3044 88.4941 24.9773 88.0156C24.6499 87.5372 24.4863 86.926 24.4863 86.1828C24.4863 85.3826 24.6571 84.5394 24.9986 83.6532C25.3402 82.7674 25.7779 81.9455 26.3115 81.1879C26.8452 80.4302 27.4252 79.7977 28.0516 79.2904C28.6776 78.783 29.2823 78.5293 29.8661 78.5293C30.0084 78.5719 30.1685 78.6575 30.3465 78.7853C30.5241 78.9131 30.6953 79.0622 30.8588 79.2322C31.0224 79.4026 31.1612 79.5764 31.2753 79.754C31.389 79.9316 31.4529 80.0841 31.4674 80.2119C30.898 80.2975 30.3108 80.574 29.706 81.0426C29.1009 81.5112 28.5532 82.0756 28.0622 82.7358C27.5712 83.3965 27.1688 84.1024 26.8562 84.8551C26.5432 85.6077 26.3865 86.3102 26.3865 86.9636C26.3865 87.2333 26.4857 87.404 26.6854 87.4748C27.0981 87.3892 27.5746 87.037 28.1159 86.4179C28.6567 85.7987 29.3112 84.8417 30.0799 83.5463C30.2221 83.29 30.3823 83.0055 30.5603 82.6925C30.7379 82.3795 30.9197 82.052 31.1045 81.7105C31.2894 81.3689 31.4708 81.0239 31.6488 80.6752C31.8268 80.326 31.9937 79.9883 32.1504 79.6608Z" fill="#FDFEFF"/>
<path d="M40.9244 78.3155C41.2088 78.3155 41.5359 78.4011 41.9064 78.5719C42.2764 78.7426 42.6035 78.9636 42.8884 79.2337C42.8169 78.6647 42.7283 78.1273 42.6214 77.6218C42.5145 77.1167 42.3578 76.5938 42.1517 76.0525C41.9452 75.5117 41.6713 74.921 41.3298 74.2806C40.9883 73.6401 40.5611 72.9072 40.0488 72.0818C40.0914 71.9537 40.1876 71.8042 40.3371 71.6334C40.4866 71.4627 40.6574 71.3025 40.8494 71.1531C41.0415 71.0036 41.2408 70.8724 41.4473 70.7583C41.6535 70.6446 41.8493 70.5734 42.0345 70.5449C42.4328 70.9861 42.8101 71.5376 43.166 72.1994C43.5217 72.8612 43.8347 73.5731 44.1055 74.3342C44.3755 75.0956 44.5858 75.8818 44.7353 76.693C44.8848 77.5043 44.9593 78.2802 44.9593 79.0199C44.9593 79.76 44.8772 80.5215 44.7136 81.3042C44.5497 82.0869 44.3219 82.8518 44.0305 83.5991C43.7388 84.3465 43.4007 85.0543 43.0166 85.7233C42.6324 86.3923 42.216 86.9902 41.7676 87.5166C41.3191 88.0433 40.8529 88.4735 40.3691 88.8082C39.8853 89.1425 39.4011 89.3524 38.9173 89.438C37.9353 89.3239 37.1845 89.0075 36.665 88.4879C36.1455 87.9684 35.8857 87.2534 35.8857 86.3425C35.8857 85.8587 35.9602 85.3319 36.1097 84.7626C36.2592 84.1936 36.4585 83.6277 36.7076 83.0655C36.9563 82.5034 37.2484 81.9553 37.5827 81.4217C37.9171 80.8881 38.273 80.4077 38.6503 79.9806C39.0272 79.5535 39.4083 79.1907 39.7925 78.8917C40.1774 78.5932 40.5543 78.4011 40.9244 78.3155ZM38.7469 88.5842C39.2448 88.4134 39.743 88.0365 40.2413 87.4527C40.7391 86.8692 41.1875 86.1824 41.5861 85.3924C41.9843 84.6024 42.3084 83.7558 42.5575 82.8522C42.8063 81.9485 42.931 81.0768 42.931 80.237C42.931 79.9951 42.931 79.8456 42.931 79.7886C42.931 79.7319 42.9238 79.6748 42.9097 79.6178C42.5682 79.7604 42.2053 80.0019 41.8208 80.3435C41.4363 80.685 41.0521 81.0798 40.668 81.5282C40.2839 81.9766 39.9207 82.4642 39.5791 82.9906C39.2376 83.5174 38.9314 84.0441 38.661 84.5705C38.3906 85.0973 38.1772 85.6027 38.0205 86.0861C37.8638 86.5703 37.7858 86.997 37.7858 87.3671C37.7862 88.0791 38.1065 88.4845 38.7469 88.5842Z" fill="#FDFEFF"/>
<path d="M49.5704 89.0326C48.7592 88.947 48.1115 88.5914 47.6277 87.965C47.1435 87.3389 46.902 86.5421 46.902 85.5738C46.902 85.0048 46.9872 84.4142 47.158 83.8018C47.3288 83.1903 47.5707 82.5958 47.8837 82.0192C48.1967 81.4426 48.5667 80.8984 48.9939 80.3861C49.421 79.8737 49.8831 79.4326 50.3813 79.0625C51.164 78.4791 51.8969 78.1873 52.58 78.1873C53.0353 78.4296 53.4837 78.9347 53.9249 79.703C53.996 79.703 54.0599 79.6996 54.117 79.6923C54.1736 79.6855 54.2375 79.6817 54.309 79.6817C55.0632 79.6817 55.4405 80.3507 55.4405 81.6883C55.4405 82.5848 55.2945 83.4356 55.0028 84.2396C54.711 85.044 54.3052 85.7735 53.7861 86.4277C53.2665 87.0826 52.6473 87.6337 51.9289 88.0821C51.2104 88.5309 50.4243 88.8473 49.5704 89.0326ZM50.6593 82.3079C50.4171 82.6354 50.1896 82.991 49.9763 83.3755C49.7629 83.7596 49.5777 84.1476 49.4214 84.5389C49.2647 84.9307 49.1437 85.3076 49.0585 85.6704C48.9729 86.0333 48.9303 86.3573 48.9303 86.6418C48.9303 86.9833 48.987 87.3108 49.1011 87.6238C49.2148 87.9372 49.343 88.1148 49.4852 88.1574C50.1257 88.0152 50.713 87.7486 51.2466 87.3568C51.7802 86.9655 52.2427 86.4782 52.634 85.8944C53.0254 85.311 53.3312 84.6492 53.5522 83.9091C53.7728 83.1693 53.8831 82.3794 53.8831 81.5396C53.8831 81.1695 53.8618 80.8778 53.8192 80.6645C53.7766 80.4511 53.7051 80.2662 53.6058 80.1096C52.9794 80.2948 52.4211 80.5937 51.93 81.006C51.4383 81.4187 51.015 81.8526 50.6593 82.3079Z" fill="#FDFEFF"/>
<path d="M66.606 89.9077C65.7948 89.6654 65.2467 89.4342 64.9622 89.214C64.6774 88.993 64.5351 88.691 64.5351 88.3065C64.5351 87.8794 64.6344 87.2785 64.8341 86.5026C65.0334 85.7271 65.2931 84.8626 65.6134 83.9087C65.9336 82.9552 66.2999 81.9591 66.7129 80.92C67.1256 79.8814 67.5455 78.8849 67.9726 77.9314C68.3997 76.9779 68.8158 76.1062 69.2216 75.3162C69.6274 74.5263 69.9864 73.9109 70.2998 73.4697L70.1504 72.5732C70.3497 72.5732 70.6269 72.6234 70.9829 72.7227C71.3385 72.8224 71.6979 72.9437 72.0612 73.0855C72.424 73.2282 72.7442 73.3738 73.0219 73.5233C73.2995 73.6728 73.452 73.7975 73.4809 73.8968C73.4094 74.2383 73.3528 74.7545 73.3102 75.4444C73.2676 76.1347 73.2463 76.8714 73.2463 77.6537C73.2463 79.2051 73.3068 80.7246 73.4277 82.2117C73.5483 83.6992 73.8297 85.211 74.2709 86.7483C74.4983 85.61 74.744 84.4747 75.0076 83.3432C75.2708 82.2117 75.5446 81.1304 75.8295 80.0981C76.114 79.0663 76.3985 78.1094 76.6834 77.2266C76.9679 76.3442 77.2417 75.5722 77.5053 74.9104C77.7685 74.2486 78.0142 73.7291 78.242 73.3518C78.4694 72.9749 78.6759 72.7721 78.8612 72.7432C79.0175 72.7718 79.1882 72.8322 79.3735 72.9247C79.5583 73.0175 79.7363 73.1274 79.9071 73.2556C80.0779 73.3837 80.2342 73.526 80.3768 73.6827C80.519 73.8394 80.6328 73.9961 80.7183 74.1524C80.2627 74.3376 79.8109 74.7716 79.3628 75.4546C78.9144 76.1377 78.4877 76.9669 78.0819 77.9417C77.6764 78.9168 77.2991 79.9734 76.9504 81.1117C76.6016 82.2505 76.2954 83.3713 76.0322 84.4743C75.7687 85.5772 75.5625 86.5984 75.413 87.5379C75.2636 88.4773 75.1814 89.2315 75.1674 89.8009C75.1674 89.8294 75.1742 89.8507 75.1887 89.8647C75.1461 89.8788 75.0997 89.886 75.0498 89.886C75 89.886 74.9536 89.886 74.911 89.886C74.2565 89.886 73.6761 89.8039 73.171 89.6404C72.6655 89.4764 72.3346 89.2456 72.1783 88.9466C71.8794 87.7512 71.6302 86.5984 71.431 85.4882C71.2317 84.378 71.0643 83.2678 70.9293 82.158C70.7939 81.0478 70.687 79.927 70.6091 78.7955C70.5307 77.664 70.4702 76.4793 70.4276 75.2409C70.1572 75.668 69.8727 76.2267 69.5738 76.9167C69.2748 77.607 68.9831 78.365 68.6986 79.1903C68.4138 80.016 68.1399 80.8843 67.8767 81.7948C67.6132 82.7057 67.3819 83.5953 67.183 84.4632C66.9837 85.3315 66.827 86.1534 66.7133 86.9289C66.5992 87.7048 66.5425 88.3769 66.5425 88.9462C66.5425 89.2452 66.5459 89.4585 66.5532 89.5867C66.5596 89.7157 66.5775 89.8225 66.606 89.9077Z" fill="#FDFEFF"/>
<path d="M80.3118 86.8552C80.3118 86.727 80.3224 86.5669 80.3437 86.3748C80.365 86.1827 80.4042 85.9264 80.4613 85.6061C80.5179 85.2859 80.5929 84.8983 80.6853 84.4427C80.7777 83.9874 80.8952 83.4394 81.0375 82.7989C81.066 82.6567 81.1299 82.4288 81.2295 82.1158C81.3288 81.8028 81.4608 81.4719 81.6243 81.1231C81.7879 80.7744 81.9872 80.4366 82.2218 80.1092C82.4569 79.7821 82.7376 79.5402 83.065 79.3835C83.3069 79.4406 83.6272 79.5862 84.0257 79.8213C84.424 80.0559 84.7655 80.38 85.0504 80.7926C84.7229 81.1631 84.4491 81.5328 84.2285 81.9028C84.0075 82.2733 83.8086 82.6574 83.6306 83.0556C83.4526 83.4542 83.289 83.8669 83.1396 84.294C82.9901 84.7211 82.8228 85.1691 82.6379 85.6389C82.4812 86.0374 82.339 86.4467 82.2108 86.8662C82.0826 87.2861 82.0115 87.6527 81.9974 87.9657C81.9974 88.2221 81.9936 88.4035 81.9868 88.51C81.9796 88.6169 81.9404 88.6701 81.8693 88.6701C81.8122 88.6701 81.6985 88.6344 81.5277 88.5632C81.3569 88.4917 81.1824 88.3818 81.0048 88.2324C80.8268 88.0829 80.6666 87.8946 80.5244 87.6668C80.3829 87.4386 80.3118 87.1682 80.3118 86.8552ZM84.3893 77.5898C84.3893 77.5043 84.4107 77.3765 84.4536 77.2057C84.3821 77.1346 84.322 77.0281 84.2722 76.8855C84.222 76.7432 84.1977 76.6154 84.1977 76.5013C84.1977 76.3732 84.2152 76.199 84.2509 75.9784C84.2863 75.7578 84.3327 75.5193 84.3897 75.2633C84.4464 75.007 84.5179 74.7404 84.6031 74.4627C84.6887 74.1851 84.7739 73.9326 84.8594 73.7047C85.0302 73.7047 85.2402 73.7511 85.4893 73.8436C85.738 73.9364 85.9909 74.0569 86.2473 74.2064C86.5036 74.3559 86.7383 74.5198 86.9517 74.6974C87.165 74.8754 87.3286 75.0427 87.4427 75.1991C87.286 75.3558 87.0798 75.5726 86.8235 75.8502C86.5671 76.1278 86.318 76.4196 86.0761 76.7253C85.8339 77.0315 85.6137 77.3198 85.4144 77.5898C85.2151 77.8603 85.0869 78.0523 85.0302 78.1664C84.8595 78.1379 84.71 78.0634 84.5818 77.9424C84.4536 77.8215 84.3893 77.7039 84.3893 77.5898Z" fill="#FDFEFF"/>
<path d="M82.5534 94.6471C82.5534 94.5615 82.5819 94.4832 82.6385 94.4124C82.6956 94.3409 82.7595 94.2698 82.8306 94.1991C83.0014 94.3554 83.1474 94.4767 83.2684 94.5619C83.3893 94.6475 83.5031 94.7182 83.6099 94.7753C83.7168 94.8319 83.8271 94.8677 83.9408 94.8821C84.0549 94.8962 84.1899 94.9034 84.3463 94.9034C85.086 94.9034 85.7908 94.7076 86.4598 94.3162C87.1284 93.9245 87.7582 93.3589 88.3489 92.6192C88.9392 91.879 89.4766 90.9753 89.9607 89.9077C90.4445 88.8401 90.8713 87.6307 91.2417 86.2786C91.0709 86.4494 90.8606 86.638 90.6119 86.8445C90.3628 87.0511 90.103 87.2469 89.8326 87.4318C89.5622 87.617 89.2952 87.7878 89.032 87.9441C88.7684 88.1008 88.5444 88.2145 88.3595 88.2856C88.1173 88.243 87.8932 88.14 87.6871 87.976C87.4806 87.8125 87.2992 87.6098 87.1429 87.3675C86.9862 87.1256 86.8652 86.8518 86.78 86.5456C86.6948 86.2398 86.6518 85.9158 86.6518 85.5742C86.6518 85.0193 86.7549 84.45 86.9614 83.8665C87.1676 83.2831 87.4418 82.7103 87.7833 82.1482C88.1249 81.586 88.5269 81.0562 88.9894 80.5576C89.4519 80.0598 89.9429 79.6258 90.4624 79.2554C90.9816 78.8853 91.5083 78.5901 92.0423 78.3696C92.5759 78.149 93.0993 78.0387 93.6116 78.0387C94.1098 78.0387 94.4833 78.1421 94.7324 78.3483C94.9812 78.5548 95.1626 78.907 95.2767 79.4048C95.12 79.3192 94.9207 79.2767 94.6788 79.2767C94.3372 79.2767 93.9421 79.4121 93.494 79.6825C93.0456 79.9529 92.59 80.3051 92.1279 80.739C91.6654 81.1734 91.2063 81.6712 90.7507 82.2334C90.2951 82.7959 89.893 83.3687 89.5447 83.9521C89.1959 84.5359 88.9114 85.1049 88.6908 85.6598C88.4698 86.2147 88.3599 86.7133 88.3599 87.1541C88.3599 87.2538 88.3668 87.3143 88.3812 87.3356C88.3953 87.3568 88.4166 87.3675 88.4455 87.3675C88.5737 87.3675 88.7479 87.2964 88.9685 87.1541C89.1891 87.0119 89.4382 86.8305 89.7154 86.6099C89.9931 86.3893 90.2814 86.1333 90.5799 85.8412C90.8789 85.5495 91.1634 85.254 91.4338 84.9554C92.0454 84.2723 92.6044 83.5075 93.1095 82.6605C93.6146 81.8139 94.017 80.992 94.3156 80.1948C94.6997 80.2233 95.0413 80.2876 95.3402 80.3868C95.6391 80.4865 95.8453 80.5934 95.9594 80.7071C95.4752 81.8173 95.0873 82.7495 94.7959 83.5037C94.5042 84.2583 94.2517 84.9269 94.0379 85.5103C93.6538 86.5349 93.294 87.471 92.9597 88.3176C92.625 89.1642 92.2834 89.9469 91.9351 90.6658C91.5863 91.3842 91.2094 92.0536 90.8036 92.6724C90.3981 93.2916 89.9391 93.8857 89.4264 94.455C89.1841 94.7251 88.9103 94.9639 88.6045 95.1701C88.2983 95.3762 87.9853 95.5508 87.665 95.693C87.3448 95.8353 87.0318 95.9417 86.7256 96.0133C86.4195 96.0844 86.1384 96.1201 85.8824 96.1201C85.5409 96.1201 85.1921 96.0806 84.8365 96.0026C84.4809 95.9243 84.15 95.8174 83.8438 95.6824C83.5381 95.547 83.2711 95.3906 83.0432 95.2127C82.8166 95.0347 82.653 94.8464 82.5534 94.6471Z" fill="#FDFEFF"/>
<path d="M97.9881 87.9223C97.9881 87.4244 98.038 86.8372 98.1376 86.161C98.2369 85.4851 98.3833 84.7625 98.5754 83.9942C98.7674 83.2255 98.9949 82.4219 99.2585 81.5817C99.5217 80.742 99.8168 79.9026 100.144 79.0628C100.429 78.3086 100.76 77.5472 101.137 76.7785C101.514 76.0099 101.923 75.2557 102.365 74.5155C102.805 73.7758 103.265 73.071 103.742 72.402C104.218 71.7334 104.699 71.121 105.183 70.5661C105.41 70.5661 105.656 70.5947 105.92 70.6517C106.183 70.7088 106.439 70.7833 106.688 70.8757C106.937 70.9685 107.165 71.0784 107.371 71.2066C107.577 71.3348 107.745 71.463 107.873 71.5908C106.806 72.6869 105.845 73.7933 104.991 74.9103C104.137 76.0277 103.461 77.0771 102.963 78.0591C102.692 78.6003 102.447 79.105 102.226 79.5747C102.005 80.0444 101.803 80.5107 101.618 80.9732C101.432 81.4357 101.265 81.8986 101.116 82.3607C100.967 82.8232 100.828 83.3107 100.7 83.8231C103.432 80.3362 105.46 78.5927 106.784 78.5927C107.154 78.5927 107.552 78.7137 107.979 78.9555C108.406 79.1978 108.783 79.5249 109.111 79.9376C108.669 80.4217 108.214 81.0052 107.744 81.6882C107.275 82.3713 106.844 83.0582 106.453 83.7485C106.061 84.4392 105.741 85.0793 105.492 85.67C105.243 86.2606 105.119 86.6984 105.119 86.9829C105.119 87.1255 105.14 87.2213 105.183 87.2712C105.225 87.3214 105.318 87.3457 105.46 87.3457C105.674 87.3457 105.844 87.3172 105.972 87.2601C106.101 87.2035 106.179 87.1746 106.207 87.1746C106.278 87.2887 106.321 87.3666 106.335 87.4092C106.349 87.4518 106.357 87.4876 106.357 87.5161C106.357 87.5732 106.271 87.6549 106.1 87.7618C105.93 87.8687 105.727 87.9752 105.492 88.082C105.257 88.1889 105.025 88.2848 104.798 88.3703C104.57 88.4559 104.399 88.4985 104.286 88.4985C104.143 88.4985 104.001 88.459 103.859 88.381C103.716 88.3026 103.592 88.1996 103.485 88.0714C103.378 87.9432 103.293 87.8014 103.229 87.6443C103.165 87.488 103.133 87.324 103.133 87.1533C103.133 86.9399 103.193 86.6231 103.314 86.2032C103.435 85.7837 103.602 85.2927 103.816 84.7302C104.029 84.168 104.285 83.5526 104.584 82.8836C104.883 82.215 105.203 81.5315 105.545 80.834C105.545 80.7773 105.516 80.7484 105.459 80.7484C105.417 80.7484 105.306 80.8055 105.129 80.9192C104.951 81.0333 104.783 81.147 104.627 81.2607C104.115 81.6449 103.598 82.1184 103.079 82.6805C102.559 83.2431 102.054 83.8584 101.563 84.5271C101.072 85.1961 100.61 85.9042 100.176 86.6512C99.7415 87.3986 99.368 88.1494 99.055 88.9036C99.0124 89.0028 98.9481 89.0956 98.8629 89.1812C98.7777 89.2668 98.7062 89.3094 98.6495 89.3094C98.6069 89.3094 98.5461 89.2592 98.4681 89.1599C98.3898 89.0603 98.3186 88.9359 98.2548 88.7864C98.1909 88.6369 98.13 88.4841 98.0733 88.3274C98.0163 88.1714 97.9881 88.0364 97.9881 87.9223Z" fill="#FDFEFF"/>
<path d="M111.843 80.1088C111.771 80.0233 111.708 79.8419 111.651 79.5646C111.594 79.2869 111.566 79.0489 111.566 78.8496C111.936 78.9066 112.291 78.9351 112.633 78.9351C112.974 78.9351 113.288 78.9351 113.572 78.9351C113.786 78.5133 114.017 78.0946 114.266 77.6793C114.515 77.2643 114.757 76.8844 114.992 76.5394C115.227 76.1948 115.447 75.9031 115.654 75.6635C115.86 75.4243 116.02 75.2695 116.134 75.1991C116.276 75.1991 116.458 75.2242 116.678 75.2737C116.899 75.3239 117.123 75.3878 117.351 75.4657C117.578 75.5441 117.785 75.6258 117.97 75.7114C118.155 75.797 118.283 75.8822 118.354 75.9678C117.927 76.5048 117.56 77.003 117.254 77.4625C116.948 77.9223 116.617 78.4487 116.262 79.042C116.546 79.042 116.835 79.042 117.126 79.042C117.418 79.042 117.713 79.0207 118.012 78.9781C118.083 79.0496 118.14 79.1382 118.183 79.2451C118.225 79.352 118.247 79.4623 118.247 79.576C117.549 79.8464 116.702 79.9814 115.706 79.9814C115.35 80.6664 115.034 81.3476 114.756 82.0257C114.479 82.7039 114.244 83.3565 114.052 83.9841C113.86 84.612 113.71 85.2042 113.604 85.7606C113.497 86.317 113.443 86.8164 113.443 87.2587C113.443 87.8867 113.678 88.2362 114.148 88.3073C114.575 88.2507 114.98 88.1438 115.365 87.9871C115.749 87.8308 116.09 87.6315 116.389 87.3892C116.475 87.5174 116.524 87.6239 116.539 87.7094C116.453 87.8369 116.307 87.9852 116.101 88.1548C115.894 88.3244 115.67 88.4903 115.428 88.653C115.186 88.8151 114.951 88.9528 114.724 89.0665C114.496 89.1791 114.325 89.2429 114.212 89.2574C113.856 89.2574 113.5 89.1859 113.144 89.044C112.788 88.9014 112.464 88.723 112.173 88.5097C111.881 88.2955 111.642 88.0571 111.458 87.7935C111.273 87.5299 111.18 87.2698 111.18 87.0134C111.18 86.6715 111.226 86.2406 111.319 85.7207C111.411 85.2008 111.543 84.6341 111.714 84.0213C111.884 83.4086 112.084 82.7674 112.312 82.0976C112.539 81.4278 112.788 80.7653 113.059 80.11H111.843V80.1088Z" fill="#FDFEFF"/>
<path d="M127 79.7566C126.986 80.0271 126.939 80.3085 126.861 80.5998C126.783 80.8916 126.687 81.1547 126.573 81.3898C126.459 81.6245 126.338 81.8203 126.21 81.977C126.082 82.1337 125.961 82.2117 125.847 82.2117C125.691 82.1976 125.598 82.0907 125.57 81.8914C125.57 81.8489 125.587 81.7815 125.623 81.6887C125.658 81.5963 125.697 81.4932 125.74 81.3791C125.783 81.2654 125.822 81.1517 125.858 81.0376C125.893 80.9239 125.911 80.8242 125.911 80.7387C125.911 80.5394 125.865 80.3724 125.772 80.237C125.679 80.102 125.555 80.0343 125.399 80.0343C124.829 80.0343 124.395 80.3884 124.097 81.0966C123.798 81.8047 123.648 82.8457 123.648 84.2199C123.648 84.3617 123.655 84.4465 123.669 84.4747C123.968 84.4747 124.235 84.4747 124.47 84.4747C124.705 84.4747 124.936 84.4747 125.164 84.4747C125.178 84.5032 125.185 84.5599 125.185 84.6443C125.185 84.7721 125.157 84.8641 125.099 84.9204C124.772 84.9916 124.512 85.052 124.32 85.1011C124.128 85.1509 123.982 85.1969 123.882 85.2391C123.783 85.2817 123.722 85.3278 123.701 85.3772C123.68 85.427 123.669 85.4944 123.669 85.5792C123.669 85.6925 123.672 85.8058 123.68 85.9192C123.687 86.0325 123.69 86.174 123.69 86.3436C123.69 87.5333 123.366 88.4906 122.719 89.2152C122.071 89.9397 121.171 90.3588 120.019 90.4729C119.819 90.4585 119.613 90.4014 119.399 90.3022C119.186 90.2025 118.983 90.0743 118.791 89.918C118.599 89.7613 118.431 89.5871 118.289 89.3951C118.147 89.203 118.047 89.0071 117.99 88.8078C117.99 88.2628 118.104 87.7429 118.332 87.2481C118.559 86.7533 118.869 86.3163 119.261 85.9359C119.652 85.5556 120.114 85.2475 120.648 85.0106C121.182 84.774 121.762 84.6557 122.388 84.6557C122.388 84.2986 122.352 83.9483 122.281 83.6052C122.21 83.2622 122.135 82.9298 122.057 82.6084C121.979 82.2866 121.904 81.9721 121.833 81.6648C121.762 81.3575 121.726 81.0536 121.726 80.7535C121.726 80.3678 121.804 79.9856 121.961 79.6068C122.117 79.228 122.324 78.8777 122.58 78.5559C122.836 78.2345 123.135 77.9596 123.477 77.7306C123.819 77.5016 124.174 77.3446 124.544 77.2586C124.701 77.3012 124.91 77.4259 125.174 77.6321C125.437 77.8386 125.697 78.0699 125.953 78.3258C126.209 78.5822 126.437 78.8419 126.636 79.1051C126.836 79.3691 126.957 79.5859 127 79.7566ZM119.955 89.4917C120.297 89.349 120.62 89.1429 120.926 88.8725C121.232 88.6021 121.499 88.2959 121.727 87.9544C121.954 87.6128 122.136 87.25 122.271 86.8655C122.406 86.4813 122.474 86.1044 122.474 85.734C122.189 85.7766 121.877 85.9085 121.535 86.1288C121.193 86.3497 120.873 86.6129 120.574 86.9187C120.275 87.2249 120.026 87.5417 119.827 87.8688C119.627 88.1962 119.528 88.4804 119.528 88.7226C119.528 89.036 119.67 89.292 119.955 89.4917Z" fill="#FDFEFF"/>
<path d="M24.1966 65.0246C23.7035 64.8808 23.3594 64.7369 23.1642 64.5931C22.9793 64.4493 22.8868 64.2695 22.8868 64.0538C22.8868 63.8894 22.9331 63.6583 23.0255 63.3604C23.118 63.0625 23.2515 62.7132 23.4262 62.3125C23.6111 61.9016 23.8268 61.4496 24.0734 60.9565C24.3302 60.4634 24.6178 59.9344 24.9363 59.3694C24.6692 59.3591 24.4278 59.3539 24.212 59.3539C24.0066 59.3437 23.8371 59.3385 23.7035 59.3385C23.7652 59.1844 23.9398 59.0509 24.2275 58.9379C24.5151 58.8249 24.8952 58.7273 25.3677 58.6451C25.7684 57.9774 26.1947 57.3405 26.6467 56.7344C27.109 56.1283 27.5713 55.5735 28.0336 55.0702C28.4958 54.5565 28.9581 54.1096 29.4204 53.7295C29.8827 53.3392 30.3244 53.031 30.7456 52.805C30.7559 52.7331 30.761 52.6714 30.761 52.6201C30.7713 52.5687 30.7764 52.5328 30.7764 52.5122C30.9202 52.5122 31.1103 52.5482 31.3466 52.6201C31.5931 52.692 31.8294 52.7793 32.0554 52.882C32.2917 52.9848 32.4971 53.0926 32.6718 53.2056C32.8567 53.3084 32.9594 53.3957 32.9799 53.4676C32.6409 54.0634 32.3071 54.9572 31.9783 56.1488C31.6496 57.3302 31.3774 58.7478 31.1616 60.4018C31.1103 60.8127 31.0641 61.2801 31.023 61.804C30.9921 62.3279 30.9767 62.9135 30.9767 63.5607C30.9767 63.7867 30.9767 64.0178 30.9767 64.2541C30.9767 64.4904 30.987 64.7369 31.0076 64.9938C30.987 65.004 30.9665 65.0092 30.9459 65.0092C30.9254 65.0092 30.8843 65.0092 30.8226 65.0092C30.6788 65.0092 30.5093 64.9835 30.3141 64.9321C30.1292 64.891 29.9443 64.8345 29.7594 64.7626C29.5848 64.701 29.4307 64.6291 29.2971 64.5469C29.1738 64.4647 29.0968 64.3928 29.066 64.3312C29.0557 64.1976 29.0506 64.0641 29.0506 63.9305C29.0506 63.8072 29.0506 63.6737 29.0506 63.5299C29.0506 62.893 29.0711 62.2458 29.1122 61.5883C29.1636 60.9308 29.2458 60.2528 29.3588 59.5543C29.2149 59.544 29.0249 59.5337 28.7886 59.5234C28.5523 59.5029 28.2852 59.4875 27.9873 59.4772C27.6997 59.4669 27.3864 59.4567 27.0474 59.4464C26.7186 59.4259 26.395 59.4104 26.0766 59.4002C25.83 59.8625 25.5989 60.3247 25.3832 60.787C25.1674 61.239 24.9825 61.6962 24.8284 62.1584C24.6538 62.6515 24.51 63.1446 24.397 63.6377C24.2942 64.1308 24.2275 64.5931 24.1966 65.0246ZM30.1446 55.7636C30.1857 55.6198 30.232 55.4246 30.2833 55.178C30.345 54.9212 30.4015 54.6541 30.4528 54.3767C30.196 54.4692 29.9084 54.6387 29.5899 54.8852C29.2817 55.1318 28.9581 55.44 28.6191 55.8098C28.2904 56.1694 27.9514 56.5803 27.6021 57.0425C27.2631 57.4946 26.9344 57.9774 26.6159 58.491C27.4788 58.4191 28.4599 58.3729 29.5591 58.3523C29.6413 57.9209 29.7286 57.4946 29.821 57.0734C29.9238 56.6419 30.0316 56.2053 30.1446 55.7636Z" fill="white"/>
<path d="M33.3075 63.5453C33.3589 63.2474 33.4462 62.857 33.5695 62.3742C33.703 61.8811 33.8571 61.3623 34.0318 60.8178C34.2064 60.2631 34.3913 59.7084 34.5865 59.1536C34.7817 58.5989 34.9717 58.1007 35.1566 57.6589C35.2902 57.3405 35.4083 57.0939 35.5111 56.9193C35.6138 56.7344 35.7268 56.5803 35.8501 56.457C35.9939 56.4775 36.1428 56.5135 36.2969 56.5649C36.451 56.6162 36.6 56.6779 36.7438 56.7498C36.8876 56.8217 37.016 56.8987 37.129 56.9809C37.242 57.0528 37.3294 57.1247 37.391 57.1966C37.1136 57.5254 36.8671 57.9003 36.6513 58.3215C36.4459 58.7427 36.2353 59.282 36.0196 59.9395C36.5743 59.4464 37.0623 58.9739 37.4834 58.5218C37.9149 58.0698 38.3155 57.5665 38.6854 57.0117C38.747 56.9604 38.8549 56.9347 39.009 56.9347C39.1528 56.9347 39.2915 56.9604 39.425 57.0117C39.5586 57.0528 39.651 57.1145 39.7024 57.1966C39.5175 57.6897 39.425 58.1777 39.425 58.6605C39.425 59.1125 39.4918 59.4515 39.6253 59.6775C39.6151 59.7392 39.5432 59.8573 39.4096 60.032C39.2863 60.2066 39.1477 60.371 38.9936 60.5251C38.7162 60.3812 38.4696 60.1861 38.2539 59.9395C38.0382 59.6827 37.879 59.4053 37.7762 59.1074C37.2934 59.4464 36.8825 59.7803 36.5435 60.109C36.2045 60.4275 35.9117 60.787 35.6651 61.1877C35.4289 61.578 35.2234 62.03 35.0488 62.5437C34.8844 63.0573 34.7252 63.6686 34.5711 64.3774C34.4786 64.3671 34.3656 64.3312 34.2321 64.2695C34.1088 64.2182 33.9804 64.1514 33.8468 64.0692C33.7236 63.987 33.6106 63.8997 33.5078 63.8072C33.4051 63.7148 33.3383 63.6275 33.3075 63.5453Z" fill="white"/>
<path d="M37.55 68.4454C37.55 68.3838 37.5706 68.3273 37.6117 68.2759C37.6527 68.2246 37.699 68.1732 37.7503 68.1219C37.8736 68.2349 37.9815 68.3222 38.0739 68.3838C38.1561 68.4454 38.2383 68.4968 38.3205 68.5379C38.3924 68.579 38.4694 68.6047 38.5516 68.615C38.6338 68.6252 38.7314 68.6304 38.8444 68.6304C39.3786 68.6304 39.8871 68.4865 40.3699 68.1989C40.8528 67.9215 41.3048 67.5158 41.7259 66.9816C42.1574 66.4474 42.5478 65.795 42.8971 65.0246C43.2463 64.2541 43.5545 63.3809 43.8216 62.405C43.6983 62.5283 43.5442 62.667 43.3593 62.821C43.1847 62.9649 42.9998 63.1035 42.8046 63.2371C42.6094 63.3706 42.4142 63.4939 42.219 63.6069C42.0341 63.7199 41.8749 63.8021 41.7414 63.8535C41.5667 63.8227 41.4023 63.7507 41.2483 63.6377C41.1044 63.5145 40.976 63.3655 40.863 63.1909C40.75 63.0162 40.6627 62.821 40.6011 62.6053C40.5394 62.3793 40.5086 62.143 40.5086 61.8965C40.5086 61.4958 40.5805 61.0849 40.7243 60.6637C40.8784 60.2426 41.0788 59.8316 41.3253 59.431C41.5719 59.0201 41.8595 58.6348 42.1882 58.2753C42.5272 57.9157 42.8816 57.6024 43.2515 57.3353C43.6316 57.0682 44.0117 56.8576 44.3918 56.7035C44.7821 56.5392 45.1622 56.457 45.532 56.457C45.8916 56.457 46.1587 56.534 46.3333 56.6881C46.5182 56.832 46.6518 57.0836 46.734 57.4432C46.621 57.3816 46.4772 57.3507 46.3025 57.3507C46.056 57.3507 45.7683 57.4483 45.4396 57.6435C45.1211 57.8387 44.7924 58.0955 44.4534 58.414C44.1247 58.7222 43.7959 59.0817 43.4672 59.4926C43.1385 59.8933 42.8457 60.3042 42.5889 60.7254C42.3423 61.1466 42.1369 61.5575 41.9725 61.9581C41.8184 62.3588 41.7414 62.7183 41.7414 63.0368C41.7414 63.1087 41.7465 63.1549 41.7568 63.1755C41.767 63.1857 41.7824 63.1909 41.803 63.1909C41.8954 63.1909 42.0187 63.1395 42.1728 63.0368C42.3372 62.934 42.517 62.8056 42.7121 62.6515C42.9176 62.4872 43.1282 62.3023 43.3439 62.0968C43.5597 61.8811 43.7651 61.6653 43.9603 61.4496C44.402 60.9565 44.8027 60.4069 45.1622 59.8008C45.532 59.1844 45.8248 58.5886 46.0406 58.0133C46.3179 58.0339 46.5645 58.0801 46.7802 58.152C46.9959 58.2239 47.1449 58.301 47.2271 58.3832C46.8778 59.1844 46.5953 59.8573 46.3796 60.4018C46.1741 60.9462 45.9943 61.4291 45.8402 61.8503C45.5629 62.5899 45.3009 63.2628 45.0544 63.8689C44.8181 64.4853 44.5715 65.0503 44.3147 65.5639C44.0682 66.0878 43.7959 66.5706 43.498 67.0124C43.2104 67.4644 42.8816 67.8958 42.5118 68.3068C42.3372 68.5019 42.1369 68.6715 41.9109 68.8153C41.6951 68.9694 41.4691 69.0978 41.2328 69.2005C41.0068 69.3032 40.7808 69.3803 40.5548 69.4316C40.3391 69.483 40.1388 69.5087 39.9539 69.5087C39.7073 69.5087 39.4556 69.4779 39.1988 69.4162C38.942 69.3649 38.7057 69.2878 38.49 69.1851C38.264 69.0926 38.0688 68.9796 37.9044 68.8461C37.7401 68.7228 37.6219 68.5893 37.55 68.4454Z" fill="white"/>
<path d="M53.8869 57.474C53.8458 58.1109 53.7328 58.6605 53.5479 59.1228C53.363 59.5748 53.0959 59.9755 52.7466 60.3247C52.4076 60.6637 51.9916 60.9719 51.4985 61.2493C51.0054 61.5267 50.4301 61.7938 49.7726 62.0506C49.7726 62.1122 49.7675 62.179 49.7572 62.2509C49.7572 62.3125 49.7572 62.3793 49.7572 62.4512C49.7572 62.5848 49.7675 62.7235 49.788 62.8673C49.8086 63.0111 49.8445 63.1446 49.8959 63.2679C49.9473 63.3912 50.0192 63.4939 50.1116 63.5761C50.2041 63.648 50.3222 63.684 50.466 63.684C50.7434 63.684 51.0156 63.6223 51.2827 63.4991C51.5498 63.3758 51.8015 63.2268 52.0378 63.0522C52.2843 62.8673 52.5103 62.6721 52.7158 62.4666C52.9315 62.2509 53.1216 62.0557 53.2859 61.8811C53.3887 61.9735 53.476 62.0609 53.5479 62.143C53.0856 62.7594 52.5771 63.2731 52.0224 63.684C51.4779 64.0846 50.9591 64.3414 50.466 64.4544C49.7572 64.3723 49.2025 64.1154 48.8018 63.684C48.4115 63.2422 48.2163 62.7132 48.2163 62.0968C48.2163 61.6756 48.2728 61.2493 48.3858 60.8178C48.5091 60.3761 48.6734 59.9549 48.8789 59.5543C49.0946 59.1434 49.3412 58.7581 49.6185 58.3986C49.9062 58.039 50.2092 57.7257 50.5277 57.4586C50.8564 57.1915 51.1903 56.9809 51.5293 56.8268C51.8786 56.6727 52.2227 56.5957 52.5617 56.5957C53.0343 56.6573 53.476 56.9501 53.8869 57.474ZM52.8237 57.9825C52.5463 58.0236 52.2587 58.1366 51.9607 58.3215C51.6628 58.5064 51.3803 58.753 51.1132 59.0612C50.8564 59.3694 50.6201 59.7289 50.4044 60.1398C50.1887 60.5507 50.0192 60.9925 49.8959 61.465C50.7177 61.0541 51.4009 60.5507 51.9453 59.9549C52.4898 59.3488 52.7826 58.6913 52.8237 57.9825Z" fill="white"/>
<path d="M57.8671 56.3799C58.1342 56.4621 58.3859 56.647 58.6222 56.9347C58.8584 57.2121 59.0331 57.5202 59.1461 57.8592C59.0331 58.1366 58.8584 58.4705 58.6222 58.8608C58.3859 59.2512 58.1496 59.6519 57.9133 60.0628C57.677 60.4634 57.4613 60.8487 57.2661 61.2185C57.0812 61.578 56.9734 61.8759 56.9425 62.1122C57.1069 61.9376 57.2867 61.7373 57.4819 61.5113C57.6873 61.275 57.8825 61.0438 58.0674 60.8178C58.2626 60.5816 58.4424 60.371 58.6067 60.1861C58.7711 59.9909 58.8995 59.847 58.992 59.7546C59.1872 59.5491 59.4183 59.3129 59.6854 59.0458C59.9525 58.7684 60.2299 58.5116 60.5175 58.2753C60.8154 58.0287 61.1133 57.8233 61.4112 57.6589C61.7092 57.4843 61.9814 57.397 62.2279 57.397C62.495 57.397 62.7159 57.4894 62.8905 57.6743C63.0754 57.849 63.2193 58.0339 63.322 58.2291C63.322 58.2496 63.2809 58.2804 63.1987 58.3215C63.1268 58.3523 63.0189 58.4499 62.8751 58.6143C62.7313 58.7992 62.5669 59.056 62.382 59.3848C62.2074 59.7032 62.0327 60.0525 61.8581 60.4326C61.6937 60.8024 61.5551 61.1825 61.4421 61.5729C61.3291 61.9633 61.2726 62.3177 61.2726 62.6361C61.2726 62.893 61.3034 63.0573 61.365 63.1292C61.4369 63.2011 61.5345 63.2371 61.6578 63.2371C61.7708 63.2371 61.8889 63.2114 62.0122 63.1601C62.1355 63.1087 62.2331 63.083 62.305 63.083C62.3461 63.1035 62.3769 63.1498 62.3974 63.2217C62.4283 63.2833 62.4437 63.3398 62.4437 63.3912C62.3615 63.4631 62.2639 63.535 62.1509 63.6069C62.0379 63.6788 61.9197 63.7456 61.7965 63.8072C61.6732 63.8689 61.5499 63.9202 61.4266 63.9613C61.3136 64.0024 61.2109 64.023 61.1185 64.023C60.8205 64.023 60.574 63.9767 60.3788 63.8843C60.1939 63.8021 60.0449 63.6891 59.9319 63.5453C59.8292 63.4015 59.7573 63.232 59.7162 63.0368C59.6751 62.8313 59.6546 62.6156 59.6546 62.3896C59.6546 62.2663 59.6648 62.1276 59.6854 61.9735C59.7059 61.8194 59.747 61.6397 59.8087 61.4342C59.8703 61.2185 59.9576 60.9668 60.0706 60.6791C60.1836 60.3812 60.3274 60.0268 60.5021 59.6159C60.4815 59.6159 60.3429 59.6878 60.086 59.8316C59.8292 59.9755 59.5518 60.1963 59.2539 60.4942C58.7711 60.9565 58.3345 61.4137 57.9441 61.8657C57.564 62.3177 57.1737 62.821 56.773 63.3758C56.547 63.6942 56.3467 63.9613 56.1721 64.1771C56.0077 64.4031 55.8639 64.552 55.7406 64.6239C55.5249 64.5007 55.3656 64.326 55.2629 64.1C55.1602 63.8843 55.0831 63.6583 55.0318 63.422C55.0318 63.2268 55.0575 62.9803 55.1088 62.6824C55.1705 62.3844 55.2475 62.0557 55.34 61.6962C55.4427 61.3263 55.566 60.9411 55.7098 60.5405C55.8536 60.1398 56.0128 59.7392 56.1875 59.3385C56.5778 58.4345 56.9323 57.7257 57.2507 57.2121C57.5795 56.6984 57.7849 56.421 57.8671 56.3799Z" fill="white"/>
<path d="M65.372 57.9517C65.3207 57.8901 65.2744 57.7617 65.2333 57.5665C65.1923 57.361 65.1717 57.1864 65.1717 57.0425C65.4388 57.0631 65.6956 57.0836 65.9422 57.1042C66.1887 57.1145 66.4147 57.1247 66.6202 57.135C66.7743 56.8268 66.9387 56.5238 67.1133 56.2259C67.2982 55.9177 67.4728 55.6403 67.6372 55.3938C67.8118 55.1369 67.9711 54.9212 68.1149 54.7466C68.269 54.5719 68.3871 54.4589 68.4693 54.4076C68.572 54.4076 68.7005 54.4281 68.8545 54.4692C69.0189 54.5 69.1833 54.5462 69.3476 54.6079C69.512 54.6592 69.661 54.7157 69.7945 54.7774C69.9281 54.839 70.0205 54.9007 70.0719 54.9623C69.7637 55.3527 69.4966 55.7173 69.2706 56.0564C69.0549 56.3851 68.8186 56.7652 68.5618 57.1966C68.7672 57.1966 68.9727 57.1915 69.1781 57.1812C69.3939 57.171 69.6096 57.1556 69.8253 57.135C69.8767 57.1864 69.9178 57.2531 69.9486 57.3353C69.9794 57.4072 69.9948 57.4843 69.9948 57.5665C69.4915 57.7514 68.8802 57.8541 68.1611 57.8747C67.9043 58.3678 67.6732 58.8608 67.4677 59.3539C67.2725 59.8368 67.103 60.3042 66.9592 60.7562C66.8256 61.2082 66.7178 61.6345 66.6356 62.0352C66.5637 62.4358 66.5277 62.7954 66.5277 63.1138C66.5277 63.5658 66.6972 63.8175 67.0362 63.8689C67.3444 63.8278 67.6372 63.7507 67.9146 63.6377C68.1919 63.5247 68.4385 63.3809 68.6542 63.2063C68.7159 63.2987 68.7518 63.3758 68.7621 63.4374C68.7004 63.5299 68.5926 63.6377 68.4385 63.761C68.2947 63.8843 68.1354 64.0024 67.9608 64.1154C67.7862 64.2387 67.6167 64.3414 67.4523 64.4236C67.2879 64.5058 67.1647 64.552 67.0825 64.5623C66.8256 64.552 66.5688 64.4955 66.312 64.3928C66.0552 64.2901 65.8189 64.1617 65.6032 64.0076C65.3977 63.8535 65.2282 63.684 65.0947 63.4991C64.9611 63.3039 64.8943 63.1138 64.8943 62.9289C64.8943 62.6824 64.9252 62.3742 64.9868 62.0044C65.0587 61.6243 65.1563 61.2133 65.2796 60.7716C65.4029 60.3299 65.5467 59.8676 65.711 59.3848C65.8754 58.9019 66.0552 58.4243 66.2504 57.9517H65.372Z" fill="white"/>
<path d="M70.6661 62.821C70.6661 62.7286 70.6712 62.6156 70.6815 62.482C70.7021 62.3382 70.7329 62.1533 70.774 61.9273C70.8151 61.691 70.8664 61.4085 70.9281 61.0798C71 60.7511 71.0873 60.3556 71.19 59.8933C71.2106 59.7905 71.2568 59.6262 71.3287 59.4002C71.4006 59.1742 71.4931 58.9379 71.6061 58.6913C71.7293 58.4345 71.8732 58.188 72.0375 57.9517C72.2122 57.7154 72.4176 57.5408 72.6539 57.4278C72.8285 57.4689 73.0597 57.5767 73.3473 57.7514C73.635 57.9157 73.8815 58.1469 74.087 58.4448C73.8507 58.7119 73.6504 58.979 73.486 59.2461C73.3319 59.5132 73.1881 59.7905 73.0545 60.0782C72.9313 60.3658 72.8131 60.6637 72.7001 60.9719C72.5974 61.2801 72.4793 61.6037 72.3457 61.9427C72.2327 62.2304 72.13 62.5283 72.0375 62.8365C71.9451 63.1344 71.8937 63.3963 71.8834 63.6223C71.8834 63.8072 71.8783 63.9357 71.868 64.0076C71.868 64.0897 71.8423 64.1308 71.791 64.1308C71.7499 64.1308 71.6677 64.1052 71.5444 64.0538C71.4212 64.0024 71.2927 63.9254 71.1592 63.8227C71.0359 63.7096 70.9229 63.571 70.8202 63.4066C70.7175 63.2422 70.6661 63.047 70.6661 62.821ZM73.6093 56.1334C73.6093 56.0718 73.6247 55.9793 73.6555 55.856C73.6041 55.8047 73.5579 55.7276 73.5168 55.6249C73.486 55.5222 73.4706 55.4297 73.4706 55.3475C73.4706 55.2551 73.4809 55.1318 73.5014 54.9777C73.5322 54.8133 73.5682 54.6387 73.6093 54.4538C73.6504 54.2689 73.7017 54.0788 73.7634 53.8836C73.825 53.6782 73.8867 53.4933 73.9483 53.3289C74.0716 53.3289 74.2205 53.3649 74.3952 53.4368C74.5801 53.4984 74.765 53.5857 74.9499 53.6987C75.1348 53.8015 75.3043 53.9196 75.4584 54.0531C75.6125 54.1764 75.7306 54.2946 75.8128 54.4076C75.6998 54.5206 75.5509 54.6798 75.3659 54.8852C75.181 55.0804 75.0013 55.291 74.8266 55.517C74.652 55.7328 74.4928 55.9382 74.3489 56.1334C74.2051 56.3286 74.1127 56.4673 74.0716 56.5495C73.9483 56.5289 73.8404 56.4775 73.748 56.3954C73.6555 56.3029 73.6093 56.2156 73.6093 56.1334Z" fill="white"/>
<path d="M77.5591 56.3799C77.8262 56.4621 78.0779 56.647 78.3142 56.9347C78.5505 57.2121 78.7251 57.5202 78.8381 57.8592C78.7251 58.1366 78.5505 58.4705 78.3142 58.8608C78.0779 59.2512 77.8416 59.6519 77.6054 60.0628C77.3691 60.4634 77.1533 60.8487 76.9582 61.2185C76.7733 61.578 76.6654 61.8759 76.6346 62.1122C76.7989 61.9376 76.9787 61.7373 77.1739 61.5113C77.3793 61.275 77.5745 61.0438 77.7594 60.8178C77.9546 60.5816 78.1344 60.371 78.2988 60.1861C78.4631 59.9909 78.5915 59.847 78.684 59.7546C78.8792 59.5491 79.1103 59.3129 79.3774 59.0458C79.6445 58.7684 79.9219 58.5116 80.2095 58.2753C80.5074 58.0287 80.8054 57.8233 81.1033 57.6589C81.4012 57.4843 81.6734 57.397 81.92 57.397C82.1871 57.397 82.4079 57.4894 82.5826 57.6743C82.7675 57.849 82.9113 58.0339 83.014 58.2291C83.014 58.2496 82.9729 58.2804 82.8908 58.3215C82.8188 58.3523 82.711 58.4499 82.5672 58.6143C82.4233 58.7992 82.259 59.056 82.0741 59.3848C81.8994 59.7032 81.7248 60.0525 81.5501 60.4326C81.3858 60.8024 81.2471 61.1825 81.1341 61.5729C81.0211 61.9633 80.9646 62.3177 80.9646 62.6361C80.9646 62.893 80.9954 63.0573 81.057 63.1292C81.129 63.2011 81.2265 63.2371 81.3498 63.2371C81.4628 63.2371 81.581 63.2114 81.7042 63.1601C81.8275 63.1087 81.9251 63.083 81.997 63.083C82.0381 63.1035 82.0689 63.1498 82.0895 63.2217C82.1203 63.2833 82.1357 63.3398 82.1357 63.3912C82.0535 63.4631 81.9559 63.535 81.8429 63.6069C81.7299 63.6788 81.6118 63.7456 81.4885 63.8072C81.3652 63.8689 81.242 63.9202 81.1187 63.9613C81.0057 64.0024 80.9029 64.023 80.8105 64.023C80.5126 64.023 80.266 63.9767 80.0708 63.8843C79.8859 63.8021 79.737 63.6891 79.624 63.5453C79.5212 63.4015 79.4493 63.232 79.4082 63.0368C79.3672 62.8313 79.3466 62.6156 79.3466 62.3896C79.3466 62.2663 79.3569 62.1276 79.3774 61.9735C79.398 61.8194 79.4391 61.6397 79.5007 61.4342C79.5623 61.2185 79.6497 60.9668 79.7627 60.6791C79.8757 60.3812 80.0195 60.0268 80.1941 59.6159C80.1736 59.6159 80.0349 59.6878 79.7781 59.8316C79.5212 59.9755 79.2439 60.1963 78.946 60.4942C78.4631 60.9565 78.0265 61.4137 77.6362 61.8657C77.2561 62.3177 76.8657 62.821 76.4651 63.3758C76.2391 63.6942 76.0387 63.9613 75.8641 64.1771C75.6997 64.4031 75.5559 64.552 75.4326 64.6239C75.2169 64.5007 75.0577 64.326 74.955 64.1C74.8522 63.8843 74.7752 63.6583 74.7238 63.422C74.7238 63.2268 74.7495 62.9803 74.8009 62.6824C74.8625 62.3844 74.9395 62.0557 75.032 61.6962C75.1347 61.3263 75.258 60.9411 75.4018 60.5405C75.5456 60.1398 75.7049 59.7392 75.8795 59.3385C76.2699 58.4345 76.6243 57.7257 76.9428 57.2121C77.2715 56.6984 77.4769 56.421 77.5591 56.3799Z" fill="white"/>
<path d="M84.1703 62.821C84.1703 62.7286 84.1755 62.6156 84.1857 62.482C84.2063 62.3382 84.2371 62.1533 84.2782 61.9273C84.3193 61.691 84.3707 61.4085 84.4323 61.0798C84.5042 60.7511 84.5915 60.3556 84.6942 59.8933C84.7148 59.7905 84.761 59.6262 84.8329 59.4002C84.9048 59.1742 84.9973 58.9379 85.1103 58.6913C85.2336 58.4345 85.3774 58.188 85.5418 57.9517C85.7164 57.7154 85.9219 57.5408 86.1581 57.4278C86.3328 57.4689 86.5639 57.5767 86.8516 57.7514C87.1392 57.9157 87.3857 58.1469 87.5912 58.4448C87.3549 58.7119 87.1546 58.979 86.9902 59.2461C86.8361 59.5132 86.6923 59.7905 86.5588 60.0782C86.4355 60.3658 86.3174 60.6637 86.2044 60.9719C86.1016 61.2801 85.9835 61.6037 85.8499 61.9427C85.7369 62.2304 85.6342 62.5283 85.5418 62.8365C85.4493 63.1344 85.3979 63.3963 85.3877 63.6223C85.3877 63.8072 85.3825 63.9357 85.3723 64.0076C85.3723 64.0897 85.3466 64.1308 85.2952 64.1308C85.2541 64.1308 85.1719 64.1052 85.0487 64.0538C84.9254 64.0024 84.797 63.9254 84.6634 63.8227C84.5402 63.7096 84.4272 63.571 84.3244 63.4066C84.2217 63.2422 84.1703 63.047 84.1703 62.821ZM87.1135 56.1334C87.1135 56.0718 87.1289 55.9793 87.1597 55.856C87.1084 55.8047 87.0621 55.7276 87.0211 55.6249C86.9902 55.5222 86.9748 55.4297 86.9748 55.3475C86.9748 55.2551 86.9851 55.1318 87.0056 54.9777C87.0365 54.8133 87.0724 54.6387 87.1135 54.4538C87.1546 54.2689 87.206 54.0788 87.2676 53.8836C87.3292 53.6782 87.3909 53.4933 87.4525 53.3289C87.5758 53.3289 87.7247 53.3649 87.8994 53.4368C88.0843 53.4984 88.2692 53.5857 88.4541 53.6987C88.639 53.8015 88.8085 53.9196 88.9626 54.0531C89.1167 54.1764 89.2349 54.2946 89.317 54.4076C89.204 54.5206 89.0551 54.6798 88.8702 54.8852C88.6853 55.0804 88.5055 55.291 88.3308 55.517C88.1562 55.7328 87.997 55.9382 87.8532 56.1334C87.7093 56.3286 87.6169 56.4673 87.5758 56.5495C87.4525 56.5289 87.3447 56.4775 87.2522 56.3954C87.1597 56.3029 87.1135 56.2156 87.1135 56.1334Z" fill="white"/>
<path d="M93.8833 57.6281C93.986 57.6281 94.1041 57.6486 94.2377 57.6897C94.3815 57.7206 94.5099 57.7668 94.6229 57.8284C94.7359 57.8798 94.8284 57.9363 94.9003 57.9979C94.9825 58.0596 95.0235 58.1161 95.0235 58.1674C94.8181 58.5989 94.628 59.0355 94.4534 59.4772C94.2788 59.9087 94.1298 60.3247 94.0065 60.7254C93.8833 61.126 93.7857 61.501 93.7138 61.8503C93.6521 62.1995 93.6213 62.5026 93.6213 62.7594C93.6213 63.047 93.6521 63.2885 93.7138 63.4836C93.7754 63.6686 93.8781 63.8021 94.0219 63.8843C93.8987 63.9665 93.7394 64.0332 93.5443 64.0846C93.3491 64.136 93.1744 64.1617 93.0203 64.1617C92.4656 64.1617 92.1882 63.7816 92.1882 63.0214C92.1882 62.4358 92.3834 61.6345 92.7738 60.6175C92.5683 61.0901 92.3321 61.5369 92.065 61.9581C91.7979 62.369 91.5256 62.7337 91.2483 63.0522C90.9709 63.3706 90.6884 63.6326 90.4007 63.8381C90.1234 64.0332 89.8666 64.1514 89.6303 64.1925C89.2502 64.1719 88.942 63.9922 88.7057 63.6531C88.4695 63.3039 88.3513 62.8621 88.3513 62.3279C88.3513 61.7527 88.4746 61.1466 88.7211 60.5096C88.9677 59.8727 89.281 59.282 89.6611 58.7376C90.0515 58.1931 90.4727 57.7411 90.9247 57.3816C91.3767 57.0117 91.8133 56.8165 92.2345 56.796C92.3372 56.8268 92.4502 56.8885 92.5735 56.9809C92.707 57.0734 92.8303 57.1812 92.9433 57.3045C93.0666 57.4278 93.1693 57.5562 93.2515 57.6897C93.3337 57.813 93.3799 57.9209 93.3902 58.0133C92.9792 58.075 92.5529 58.2753 92.1112 58.6143C91.6797 58.9533 91.2842 59.3642 90.9247 59.847C90.5754 60.3196 90.2878 60.8281 90.0617 61.3726C89.8357 61.917 89.7227 62.4255 89.7227 62.8981C89.7227 63.0933 89.7947 63.2166 89.9385 63.2679C90.2364 63.2063 90.5805 62.9546 90.9709 62.5129C91.3613 62.0609 91.8338 61.3674 92.3885 60.4326C92.4913 60.2477 92.6043 60.0422 92.7276 59.8162C92.8611 59.5902 92.9947 59.3539 93.1282 59.1074C93.2617 58.8608 93.3902 58.6143 93.5134 58.3678C93.647 58.1109 93.7703 57.8644 93.8833 57.6281Z" fill="white"/>
<path d="M99.072 56.3799C99.3391 56.4621 99.5908 56.647 99.827 56.9347C100.063 57.2121 100.238 57.5202 100.351 57.8592C100.238 58.1366 100.063 58.4705 99.827 58.8608C99.5908 59.2512 99.3545 59.6519 99.1182 60.0628C98.8819 60.4634 98.6662 60.8487 98.471 61.2185C98.2861 61.578 98.1782 61.8759 98.1474 62.1122C98.3118 61.9376 98.4916 61.7373 98.6868 61.5113C98.8922 61.275 99.0874 61.0438 99.2723 60.8178C99.4675 60.5816 99.6473 60.371 99.8116 60.1861C99.976 59.9909 100.104 59.847 100.197 59.7546C100.392 59.5491 100.623 59.3129 100.89 59.0458C101.157 58.7684 101.435 58.5116 101.722 58.2753C102.02 58.0287 102.318 57.8233 102.616 57.6589C102.914 57.4843 103.186 57.397 103.433 57.397C103.7 57.397 103.921 57.4894 104.095 57.6743C104.28 57.849 104.424 58.0339 104.527 58.2291C104.527 58.2496 104.486 58.2804 104.404 58.3215C104.332 58.3523 104.224 58.4499 104.08 58.6143C103.936 58.7992 103.772 59.056 103.587 59.3848C103.412 59.7032 103.238 60.0525 103.063 60.4326C102.899 60.8024 102.76 61.1825 102.647 61.5729C102.534 61.9633 102.477 62.3177 102.477 62.6361C102.477 62.893 102.508 63.0573 102.57 63.1292C102.642 63.2011 102.739 63.2371 102.863 63.2371C102.976 63.2371 103.094 63.2114 103.217 63.1601C103.34 63.1087 103.438 63.083 103.51 63.083C103.551 63.1035 103.582 63.1498 103.602 63.2217C103.633 63.2833 103.649 63.3398 103.649 63.3912C103.566 63.4631 103.469 63.535 103.356 63.6069C103.243 63.6788 103.125 63.7456 103.001 63.8072C102.878 63.8689 102.755 63.9202 102.632 63.9613C102.519 64.0024 102.416 64.023 102.323 64.023C102.025 64.023 101.779 63.9767 101.584 63.8843C101.399 63.8021 101.25 63.6891 101.137 63.5453C101.034 63.4015 100.962 63.232 100.921 63.0368C100.88 62.8313 100.859 62.6156 100.859 62.3896C100.859 62.2663 100.87 62.1276 100.89 61.9735C100.911 61.8194 100.952 61.6397 101.014 61.4342C101.075 61.2185 101.163 60.9668 101.276 60.6791C101.389 60.3812 101.532 60.0268 101.707 59.6159C101.686 59.6159 101.548 59.6878 101.291 59.8316C101.034 59.9755 100.757 60.1963 100.459 60.4942C99.976 60.9565 99.5394 61.4137 99.149 61.8657C98.7689 62.3177 98.3786 62.821 97.9779 63.3758C97.7519 63.6942 97.5516 63.9613 97.377 64.1771C97.2126 64.4031 97.0688 64.552 96.9455 64.6239C96.7298 64.5007 96.5705 64.326 96.4678 64.1C96.3651 63.8843 96.288 63.6583 96.2367 63.422C96.2367 63.2268 96.2624 62.9803 96.3137 62.6824C96.3754 62.3844 96.4524 62.0557 96.5449 61.6962C96.6476 61.3263 96.7709 60.9411 96.9147 60.5405C97.0585 60.1398 97.2177 59.7392 97.3924 59.3385C97.7827 58.4345 98.1372 57.7257 98.4556 57.2121C98.7843 56.6984 98.9898 56.421 99.072 56.3799Z" fill="white"/>
</svg>
