<svg width="70" height="70" viewBox="0 0 70 70" fill="none" xmlns="http://www.w3.org/2000/svg">
<circle cx="35" cy="35" r="35" fill="black" fill-opacity="0.65"/>
<path d="M46.2188 32.3215C46.6484 32.5793 46.9492 32.9661 47.1211 33.3958C47.293 33.8684 47.293 34.3411 47.1211 34.7708C46.9492 35.2434 46.6484 35.5872 46.2188 35.845L31.0938 44.7825C30.6641 45.0403 30.1914 45.1262 29.7188 45.0403C29.2031 44.9543 28.8164 44.7395 28.4727 44.3528C28.1289 44.009 28 43.5364 28 43.0208V25.1458C28 24.5872 28.1719 24.1145 28.5156 23.7708C28.8594 23.427 29.2461 23.2122 29.7617 23.1262C30.2344 23.0403 30.6641 23.1262 31.0938 23.384L46.2188 32.3215Z" fill="#F0E6DF" fill-opacity="0.7"/>
</svg>
