<svg width="152" height="39" viewBox="0 0 152 39" fill="none" xmlns="http://www.w3.org/2000/svg">
<path d="M35.972 34V25.27H36.542V29.05C36.818 28.71 37.132 28.44 37.484 28.24C37.84 28.036 38.238 27.934 38.678 27.934C39.006 27.934 39.294 27.986 39.542 28.09C39.794 28.194 40.002 28.344 40.166 28.54C40.33 28.736 40.454 28.972 40.538 29.248C40.622 29.524 40.664 29.836 40.664 30.184V34H40.094V30.184C40.094 29.624 39.966 29.186 39.71 28.87C39.454 28.55 39.062 28.39 38.534 28.39C38.142 28.39 37.778 28.492 37.442 28.696C37.106 28.896 36.806 29.172 36.542 29.524V34H35.972ZM44.0962 34.096C43.6922 34.096 43.3762 33.984 43.1482 33.76C42.9242 33.536 42.8122 33.19 42.8122 32.722V28.642H41.9542C41.9102 28.642 41.8742 28.63 41.8462 28.606C41.8182 28.582 41.8042 28.548 41.8042 28.504V28.282L42.8242 28.21L42.9682 26.074C42.9722 26.038 42.9862 26.006 43.0102 25.978C43.0382 25.95 43.0742 25.936 43.1182 25.936H43.3882V28.216H45.2662V28.642H43.3882V32.692C43.3882 32.856 43.4082 32.998 43.4482 33.118C43.4922 33.234 43.5502 33.33 43.6222 33.406C43.6982 33.482 43.7862 33.538 43.8862 33.574C43.9862 33.61 44.0942 33.628 44.2102 33.628C44.3542 33.628 44.4782 33.608 44.5822 33.568C44.6862 33.524 44.7762 33.478 44.8522 33.43C44.9282 33.378 44.9902 33.332 45.0382 33.292C45.0862 33.248 45.1242 33.226 45.1522 33.226C45.1842 33.226 45.2162 33.246 45.2482 33.286L45.4042 33.538C45.2522 33.706 45.0582 33.842 44.8222 33.946C44.5902 34.046 44.3482 34.096 44.0962 34.096ZM48.3735 34.096C47.9695 34.096 47.6535 33.984 47.4255 33.76C47.2015 33.536 47.0895 33.19 47.0895 32.722V28.642H46.2315C46.1875 28.642 46.1515 28.63 46.1235 28.606C46.0955 28.582 46.0815 28.548 46.0815 28.504V28.282L47.1015 28.21L47.2455 26.074C47.2495 26.038 47.2635 26.006 47.2875 25.978C47.3155 25.95 47.3515 25.936 47.3955 25.936H47.6655V28.216H49.5435V28.642H47.6655V32.692C47.6655 32.856 47.6855 32.998 47.7255 33.118C47.7695 33.234 47.8275 33.33 47.8995 33.406C47.9755 33.482 48.0635 33.538 48.1635 33.574C48.2635 33.61 48.3715 33.628 48.4875 33.628C48.6315 33.628 48.7555 33.608 48.8595 33.568C48.9635 33.524 49.0535 33.478 49.1295 33.43C49.2055 33.378 49.2675 33.332 49.3155 33.292C49.3635 33.248 49.4015 33.226 49.4295 33.226C49.4615 33.226 49.4935 33.246 49.5255 33.286L49.6815 33.538C49.5295 33.706 49.3355 33.842 49.0995 33.946C48.8675 34.046 48.6255 34.096 48.3735 34.096ZM51.0189 36.112V28.03H51.3309C51.3829 28.03 51.4249 28.042 51.4569 28.066C51.4889 28.086 51.5069 28.124 51.5109 28.18L51.5649 29.104C51.8289 28.744 52.1369 28.458 52.4889 28.246C52.8449 28.034 53.2429 27.928 53.6829 27.928C54.4189 27.928 54.9909 28.182 55.3989 28.69C55.8069 29.198 56.0109 29.96 56.0109 30.976C56.0109 31.412 55.9529 31.82 55.8369 32.2C55.7249 32.576 55.5589 32.904 55.3389 33.184C55.1189 33.46 54.8469 33.678 54.5229 33.838C54.2029 33.998 53.8329 34.078 53.4129 34.078C53.0049 34.078 52.6529 34.004 52.3569 33.856C52.0609 33.708 51.8049 33.488 51.5889 33.196V36.112H51.0189ZM53.5209 28.39C53.1249 28.39 52.7649 28.494 52.4409 28.702C52.1209 28.906 51.8369 29.192 51.5889 29.56V32.692C51.8169 33.036 52.0689 33.278 52.3449 33.418C52.6249 33.558 52.9429 33.628 53.2989 33.628C53.6509 33.628 53.9589 33.564 54.2229 33.436C54.4869 33.308 54.7069 33.128 54.8829 32.896C55.0629 32.66 55.1969 32.38 55.2849 32.056C55.3769 31.728 55.4229 31.368 55.4229 30.976C55.4229 30.088 55.2589 29.436 54.9309 29.02C54.6069 28.6 54.1369 28.39 53.5209 28.39ZM60.7288 28.768C60.7008 28.824 60.6568 28.852 60.5968 28.852C60.5528 28.852 60.4948 28.828 60.4228 28.78C60.3548 28.728 60.2628 28.672 60.1468 28.612C60.0348 28.548 59.8948 28.492 59.7268 28.444C59.5628 28.392 59.3608 28.366 59.1208 28.366C58.9048 28.366 58.7068 28.398 58.5268 28.462C58.3508 28.522 58.1988 28.604 58.0708 28.708C57.9468 28.812 57.8488 28.934 57.7768 29.074C57.7088 29.21 57.6748 29.354 57.6748 29.506C57.6748 29.694 57.7228 29.85 57.8188 29.974C57.9148 30.098 58.0408 30.204 58.1968 30.292C58.3528 30.38 58.5288 30.456 58.7248 30.52C58.9248 30.584 59.1288 30.648 59.3368 30.712C59.5448 30.776 59.7468 30.848 59.9428 30.928C60.1428 31.004 60.3208 31.1 60.4768 31.216C60.6328 31.332 60.7588 31.474 60.8548 31.642C60.9508 31.81 60.9988 32.014 60.9988 32.254C60.9988 32.514 60.9508 32.756 60.8548 32.98C60.7628 33.204 60.6268 33.398 60.4468 33.562C60.2708 33.726 60.0528 33.856 59.7928 33.952C59.5328 34.048 59.2368 34.096 58.9048 34.096C58.4848 34.096 58.1228 34.03 57.8188 33.898C57.5148 33.762 57.2428 33.586 57.0028 33.37L57.1408 33.166C57.1608 33.134 57.1828 33.11 57.2068 33.094C57.2308 33.078 57.2648 33.07 57.3088 33.07C57.3608 33.07 57.4248 33.102 57.5008 33.166C57.5768 33.23 57.6748 33.3 57.7948 33.376C57.9188 33.448 58.0708 33.516 58.2508 33.58C58.4348 33.644 58.6608 33.676 58.9288 33.676C59.1808 33.676 59.4028 33.642 59.5948 33.574C59.7868 33.502 59.9468 33.406 60.0748 33.286C60.2028 33.166 60.2988 33.026 60.3628 32.866C60.4308 32.702 60.4648 32.53 60.4648 32.35C60.4648 32.15 60.4168 31.984 60.3208 31.852C60.2248 31.72 60.0988 31.608 59.9428 31.516C59.7868 31.424 59.6088 31.346 59.4088 31.282C59.2128 31.218 59.0088 31.154 58.7968 31.09C58.5888 31.026 58.3848 30.956 58.1848 30.88C57.9888 30.804 57.8128 30.708 57.6568 30.592C57.5008 30.476 57.3748 30.336 57.2788 30.172C57.1828 30.004 57.1348 29.796 57.1348 29.548C57.1348 29.336 57.1808 29.132 57.2728 28.936C57.3648 28.74 57.4948 28.568 57.6628 28.42C57.8348 28.272 58.0428 28.154 58.2868 28.066C58.5308 27.978 58.8048 27.934 59.1088 27.934C59.4728 27.934 59.7948 27.986 60.0748 28.09C60.3588 28.194 60.6188 28.354 60.8548 28.57L60.7288 28.768ZM62.495 33.538C62.495 33.462 62.509 33.39 62.537 33.322C62.565 33.254 62.603 33.196 62.651 33.148C62.703 33.096 62.761 33.056 62.825 33.028C62.893 32.996 62.967 32.98 63.047 32.98C63.123 32.98 63.195 32.996 63.263 33.028C63.331 33.056 63.389 33.096 63.437 33.148C63.489 33.196 63.529 33.254 63.557 33.322C63.589 33.39 63.605 33.462 63.605 33.538C63.605 33.618 63.589 33.692 63.557 33.76C63.529 33.824 63.489 33.882 63.437 33.934C63.389 33.982 63.331 34.02 63.263 34.048C63.195 34.076 63.123 34.09 63.047 34.09C62.891 34.09 62.759 34.038 62.651 33.934C62.547 33.826 62.495 33.694 62.495 33.538ZM62.495 28.756C62.495 28.68 62.509 28.608 62.537 28.54C62.565 28.472 62.603 28.414 62.651 28.366C62.703 28.314 62.761 28.274 62.825 28.246C62.893 28.214 62.967 28.198 63.047 28.198C63.123 28.198 63.195 28.214 63.263 28.246C63.331 28.274 63.389 28.314 63.437 28.366C63.489 28.414 63.529 28.472 63.557 28.54C63.589 28.608 63.605 28.68 63.605 28.756C63.605 28.836 63.589 28.91 63.557 28.978C63.529 29.042 63.489 29.1 63.437 29.152C63.389 29.2 63.331 29.238 63.263 29.266C63.195 29.294 63.123 29.308 63.047 29.308C62.891 29.308 62.759 29.256 62.651 29.152C62.547 29.044 62.495 28.912 62.495 28.756ZM65.0187 34.27C64.9867 34.35 64.9387 34.408 64.8747 34.444C64.8107 34.484 64.7447 34.504 64.6767 34.504H64.4427L68.1747 25.492C68.2347 25.344 68.3427 25.27 68.4987 25.27H68.7447L65.0187 34.27ZM68.7218 34.27C68.6898 34.35 68.6418 34.408 68.5778 34.444C68.5138 34.484 68.4478 34.504 68.3798 34.504H68.1458L71.8778 25.492C71.9378 25.344 72.0458 25.27 72.2018 25.27H72.4478L68.7218 34.27ZM72.5851 28.03H73.0231C73.0791 28.03 73.1251 28.046 73.1611 28.078C73.1971 28.106 73.2211 28.138 73.2331 28.174L74.7391 32.884C74.7671 32.976 74.7891 33.064 74.8051 33.148C74.8211 33.232 74.8371 33.316 74.8531 33.4C74.8731 33.316 74.8951 33.232 74.9191 33.148C74.9431 33.064 74.9711 32.976 75.0031 32.884L76.6051 28.132C76.6331 28.044 76.6891 28 76.7731 28H77.0071C77.0951 28 77.1531 28.044 77.1811 28.132L78.7591 32.884C78.8191 33.064 78.8671 33.238 78.9031 33.406C78.9191 33.322 78.9351 33.238 78.9511 33.154C78.9711 33.066 78.9971 32.976 79.0291 32.884L80.5411 28.174C80.5731 28.078 80.6411 28.03 80.7451 28.03H81.1651L79.1671 34H78.7471C78.6831 34 78.6371 33.958 78.6091 33.874L76.9711 29.026C76.9511 28.966 76.9331 28.906 76.9171 28.846C76.9011 28.786 76.8871 28.726 76.8751 28.666C76.8631 28.726 76.8491 28.786 76.8331 28.846C76.8211 28.906 76.8051 28.966 76.7851 29.026L75.1291 33.874C75.1051 33.958 75.0571 34 74.9851 34H74.5831L72.5851 28.03ZM84.5228 27.934C84.8588 27.934 85.1688 27.992 85.4528 28.108C85.7408 28.224 85.9888 28.394 86.1968 28.618C86.4088 28.838 86.5728 29.11 86.6888 29.434C86.8088 29.758 86.8688 30.13 86.8688 30.55C86.8688 30.638 86.8548 30.698 86.8268 30.73C86.8028 30.762 86.7628 30.778 86.7068 30.778H82.3928V30.892C82.3928 31.34 82.4448 31.734 82.5488 32.074C82.6528 32.414 82.8008 32.7 82.9928 32.932C83.1848 33.16 83.4168 33.332 83.6888 33.448C83.9608 33.564 84.2648 33.622 84.6008 33.622C84.9008 33.622 85.1608 33.59 85.3808 33.526C85.6008 33.458 85.7848 33.384 85.9328 33.304C86.0848 33.22 86.2048 33.146 86.2928 33.082C86.3808 33.014 86.4448 32.98 86.4848 32.98C86.5368 32.98 86.5768 33 86.6048 33.04L86.7608 33.232C86.6648 33.352 86.5368 33.464 86.3768 33.568C86.2208 33.672 86.0448 33.762 85.8488 33.838C85.6568 33.91 85.4488 33.968 85.2248 34.012C85.0048 34.056 84.7828 34.078 84.5588 34.078C84.1508 34.078 83.7788 34.008 83.4428 33.868C83.1068 33.724 82.8188 33.516 82.5788 33.244C82.3388 32.972 82.1528 32.64 82.0208 32.248C81.8928 31.852 81.8288 31.4 81.8288 30.892C81.8288 30.464 81.8888 30.07 82.0088 29.71C82.1328 29.346 82.3088 29.034 82.5368 28.774C82.7688 28.51 83.0508 28.304 83.3828 28.156C83.7188 28.008 84.0988 27.934 84.5228 27.934ZM84.5288 28.36C84.2208 28.36 83.9448 28.408 83.7008 28.504C83.4568 28.6 83.2448 28.738 83.0648 28.918C82.8888 29.098 82.7448 29.314 82.6328 29.566C82.5248 29.818 82.4528 30.1 82.4168 30.412H86.3528C86.3528 30.092 86.3088 29.806 86.2208 29.554C86.1328 29.298 86.0088 29.082 85.8488 28.906C85.6888 28.73 85.4968 28.596 85.2728 28.504C85.0488 28.408 84.8008 28.36 84.5288 28.36ZM92.6317 34C92.5317 34 92.4737 33.948 92.4577 33.844L92.3977 32.902C92.1337 33.262 91.8237 33.548 91.4677 33.76C91.1157 33.972 90.7197 34.078 90.2797 34.078C89.5477 34.078 88.9757 33.824 88.5637 33.316C88.1557 32.808 87.9517 32.046 87.9517 31.03C87.9517 30.594 88.0077 30.188 88.1197 29.812C88.2357 29.432 88.4037 29.104 88.6237 28.828C88.8477 28.548 89.1197 28.328 89.4397 28.168C89.7637 28.008 90.1357 27.928 90.5557 27.928C90.9597 27.928 91.3097 28.004 91.6057 28.156C91.9017 28.304 92.1577 28.522 92.3737 28.81V25.27H92.9497V34H92.6317ZM90.4417 33.616C90.8377 33.616 91.1957 33.514 91.5157 33.31C91.8357 33.106 92.1217 32.822 92.3737 32.458V29.308C92.1417 28.968 91.8857 28.728 91.6057 28.588C91.3297 28.448 91.0157 28.378 90.6637 28.378C90.3117 28.378 90.0037 28.442 89.7397 28.57C89.4757 28.698 89.2537 28.88 89.0737 29.116C88.8977 29.348 88.7637 29.628 88.6717 29.956C88.5837 30.28 88.5397 30.638 88.5397 31.03C88.5397 31.918 88.7037 32.572 89.0317 32.992C89.3597 33.408 89.8297 33.616 90.4417 33.616ZM97.2025 27.934C97.5385 27.934 97.8485 27.992 98.1325 28.108C98.4205 28.224 98.6685 28.394 98.8765 28.618C99.0885 28.838 99.2525 29.11 99.3685 29.434C99.4885 29.758 99.5485 30.13 99.5485 30.55C99.5485 30.638 99.5345 30.698 99.5065 30.73C99.4825 30.762 99.4425 30.778 99.3865 30.778H95.0725V30.892C95.0725 31.34 95.1245 31.734 95.2285 32.074C95.3325 32.414 95.4805 32.7 95.6725 32.932C95.8645 33.16 96.0965 33.332 96.3685 33.448C96.6405 33.564 96.9445 33.622 97.2805 33.622C97.5805 33.622 97.8405 33.59 98.0605 33.526C98.2805 33.458 98.4645 33.384 98.6125 33.304C98.7645 33.22 98.8845 33.146 98.9725 33.082C99.0605 33.014 99.1245 32.98 99.1645 32.98C99.2165 32.98 99.2565 33 99.2845 33.04L99.4405 33.232C99.3445 33.352 99.2165 33.464 99.0565 33.568C98.9005 33.672 98.7245 33.762 98.5285 33.838C98.3365 33.91 98.1285 33.968 97.9045 34.012C97.6845 34.056 97.4625 34.078 97.2385 34.078C96.8305 34.078 96.4585 34.008 96.1225 33.868C95.7865 33.724 95.4985 33.516 95.2585 33.244C95.0185 32.972 94.8325 32.64 94.7005 32.248C94.5725 31.852 94.5085 31.4 94.5085 30.892C94.5085 30.464 94.5685 30.07 94.6885 29.71C94.8125 29.346 94.9885 29.034 95.2165 28.774C95.4485 28.51 95.7305 28.304 96.0625 28.156C96.3985 28.008 96.7785 27.934 97.2025 27.934ZM97.2085 28.36C96.9005 28.36 96.6245 28.408 96.3805 28.504C96.1365 28.6 95.9245 28.738 95.7445 28.918C95.5685 29.098 95.4245 29.314 95.3125 29.566C95.2045 29.818 95.1325 30.1 95.0965 30.412H99.0325C99.0325 30.092 98.9885 29.806 98.9005 29.554C98.8125 29.298 98.6885 29.082 98.5285 28.906C98.3685 28.73 98.1765 28.596 97.9525 28.504C97.7285 28.408 97.4805 28.36 97.2085 28.36ZM103.178 34H102.674L100.154 28.03H100.604C100.66 28.03 100.704 28.046 100.736 28.078C100.772 28.106 100.798 28.138 100.814 28.174L102.782 32.884C102.822 32.976 102.852 33.064 102.872 33.148C102.892 33.232 102.912 33.316 102.932 33.4C102.952 33.316 102.972 33.232 102.992 33.148C103.016 33.06 103.046 32.972 103.082 32.884L105.062 28.174C105.082 28.13 105.108 28.096 105.14 28.072C105.176 28.044 105.218 28.03 105.266 28.03H105.698L103.178 34ZM108.968 27.934C109.304 27.934 109.614 27.992 109.898 28.108C110.186 28.224 110.434 28.394 110.642 28.618C110.854 28.838 111.018 29.11 111.134 29.434C111.254 29.758 111.314 30.13 111.314 30.55C111.314 30.638 111.3 30.698 111.272 30.73C111.248 30.762 111.208 30.778 111.152 30.778H106.838V30.892C106.838 31.34 106.89 31.734 106.994 32.074C107.098 32.414 107.246 32.7 107.438 32.932C107.63 33.16 107.862 33.332 108.134 33.448C108.406 33.564 108.71 33.622 109.046 33.622C109.346 33.622 109.606 33.59 109.826 33.526C110.046 33.458 110.23 33.384 110.378 33.304C110.53 33.22 110.65 33.146 110.738 33.082C110.826 33.014 110.89 32.98 110.93 32.98C110.982 32.98 111.022 33 111.05 33.04L111.206 33.232C111.11 33.352 110.982 33.464 110.822 33.568C110.666 33.672 110.49 33.762 110.294 33.838C110.102 33.91 109.894 33.968 109.67 34.012C109.45 34.056 109.228 34.078 109.004 34.078C108.596 34.078 108.224 34.008 107.888 33.868C107.552 33.724 107.264 33.516 107.024 33.244C106.784 32.972 106.598 32.64 106.466 32.248C106.338 31.852 106.274 31.4 106.274 30.892C106.274 30.464 106.334 30.07 106.454 29.71C106.578 29.346 106.754 29.034 106.982 28.774C107.214 28.51 107.496 28.304 107.828 28.156C108.164 28.008 108.544 27.934 108.968 27.934ZM108.974 28.36C108.666 28.36 108.39 28.408 108.146 28.504C107.902 28.6 107.69 28.738 107.51 28.918C107.334 29.098 107.19 29.314 107.078 29.566C106.97 29.818 106.898 30.1 106.862 30.412H110.798C110.798 30.092 110.754 29.806 110.666 29.554C110.578 29.298 110.454 29.082 110.294 28.906C110.134 28.73 109.942 28.596 109.718 28.504C109.494 28.408 109.246 28.36 108.974 28.36ZM113.585 25.27V34H113.015V25.27H113.585ZM117.969 27.934C118.397 27.934 118.779 28.008 119.115 28.156C119.455 28.3 119.741 28.506 119.973 28.774C120.205 29.042 120.381 29.366 120.501 29.746C120.625 30.122 120.687 30.544 120.687 31.012C120.687 31.48 120.625 31.902 120.501 32.278C120.381 32.654 120.205 32.976 119.973 33.244C119.741 33.512 119.455 33.718 119.115 33.862C118.779 34.006 118.397 34.078 117.969 34.078C117.541 34.078 117.157 34.006 116.817 33.862C116.481 33.718 116.195 33.512 115.959 33.244C115.727 32.976 115.549 32.654 115.425 32.278C115.305 31.902 115.245 31.48 115.245 31.012C115.245 30.544 115.305 30.122 115.425 29.746C115.549 29.366 115.727 29.042 115.959 28.774C116.195 28.506 116.481 28.3 116.817 28.156C117.157 28.008 117.541 27.934 117.969 27.934ZM117.969 33.628C118.325 33.628 118.635 33.568 118.899 33.448C119.167 33.324 119.389 33.148 119.565 32.92C119.745 32.692 119.879 32.418 119.967 32.098C120.055 31.774 120.099 31.412 120.099 31.012C120.099 30.616 120.055 30.256 119.967 29.932C119.879 29.608 119.745 29.332 119.565 29.104C119.389 28.872 119.167 28.694 118.899 28.57C118.635 28.446 118.325 28.384 117.969 28.384C117.613 28.384 117.301 28.446 117.033 28.57C116.769 28.694 116.547 28.872 116.367 29.104C116.191 29.332 116.057 29.608 115.965 29.932C115.877 30.256 115.833 30.616 115.833 31.012C115.833 31.412 115.877 31.774 115.965 32.098C116.057 32.418 116.191 32.692 116.367 32.92C116.547 33.148 116.769 33.324 117.033 33.448C117.301 33.568 117.613 33.628 117.969 33.628ZM122.187 36.112V28.03H122.499C122.551 28.03 122.593 28.042 122.625 28.066C122.657 28.086 122.675 28.124 122.679 28.18L122.733 29.104C122.997 28.744 123.305 28.458 123.657 28.246C124.013 28.034 124.411 27.928 124.851 27.928C125.587 27.928 126.159 28.182 126.567 28.69C126.975 29.198 127.179 29.96 127.179 30.976C127.179 31.412 127.121 31.82 127.005 32.2C126.893 32.576 126.727 32.904 126.507 33.184C126.287 33.46 126.015 33.678 125.691 33.838C125.371 33.998 125.001 34.078 124.581 34.078C124.173 34.078 123.821 34.004 123.525 33.856C123.229 33.708 122.973 33.488 122.757 33.196V36.112H122.187ZM124.689 28.39C124.293 28.39 123.933 28.494 123.609 28.702C123.289 28.906 123.005 29.192 122.757 29.56V32.692C122.985 33.036 123.237 33.278 123.513 33.418C123.793 33.558 124.111 33.628 124.467 33.628C124.819 33.628 125.127 33.564 125.391 33.436C125.655 33.308 125.875 33.128 126.051 32.896C126.231 32.66 126.365 32.38 126.453 32.056C126.545 31.728 126.591 31.368 126.591 30.976C126.591 30.088 126.427 29.436 126.099 29.02C125.775 28.6 125.305 28.39 124.689 28.39ZM128.267 33.538C128.267 33.462 128.281 33.39 128.309 33.322C128.337 33.254 128.375 33.196 128.423 33.148C128.475 33.096 128.533 33.056 128.597 33.028C128.665 32.996 128.739 32.98 128.819 32.98C128.895 32.98 128.967 32.996 129.035 33.028C129.103 33.056 129.161 33.096 129.209 33.148C129.261 33.196 129.301 33.254 129.329 33.322C129.361 33.39 129.377 33.462 129.377 33.538C129.377 33.618 129.361 33.692 129.329 33.76C129.301 33.824 129.261 33.882 129.209 33.934C129.161 33.982 129.103 34.02 129.035 34.048C128.967 34.076 128.895 34.09 128.819 34.09C128.663 34.09 128.531 34.038 128.423 33.934C128.319 33.826 128.267 33.694 128.267 33.538ZM130.976 34V28.03H131.288C131.392 28.03 131.452 28.08 131.468 28.18L131.522 29.044C131.638 28.88 131.762 28.73 131.894 28.594C132.026 28.458 132.166 28.342 132.314 28.246C132.466 28.146 132.626 28.07 132.794 28.018C132.966 27.962 133.146 27.934 133.334 27.934C133.77 27.934 134.118 28.062 134.378 28.318C134.638 28.57 134.814 28.922 134.906 29.374C134.978 29.126 135.078 28.912 135.206 28.732C135.338 28.552 135.488 28.404 135.656 28.288C135.824 28.168 136.006 28.08 136.202 28.024C136.402 27.964 136.606 27.934 136.814 27.934C137.11 27.934 137.376 27.984 137.612 28.084C137.848 28.18 138.048 28.324 138.212 28.516C138.38 28.708 138.508 28.944 138.596 29.224C138.684 29.504 138.728 29.824 138.728 30.184V34H138.152V30.184C138.152 29.6 138.026 29.156 137.774 28.852C137.522 28.544 137.162 28.39 136.694 28.39C136.486 28.39 136.286 28.428 136.094 28.504C135.906 28.58 135.738 28.694 135.59 28.846C135.446 28.994 135.33 29.18 135.242 29.404C135.158 29.628 135.116 29.888 135.116 30.184V34H134.546V30.184C134.546 29.604 134.43 29.16 134.198 28.852C133.966 28.544 133.628 28.39 133.184 28.39C132.86 28.39 132.56 28.488 132.284 28.684C132.008 28.876 131.762 29.144 131.546 29.488V34H130.976ZM142.777 27.934C143.113 27.934 143.423 27.992 143.707 28.108C143.995 28.224 144.243 28.394 144.451 28.618C144.663 28.838 144.827 29.11 144.943 29.434C145.063 29.758 145.123 30.13 145.123 30.55C145.123 30.638 145.109 30.698 145.081 30.73C145.057 30.762 145.017 30.778 144.961 30.778H140.647V30.892C140.647 31.34 140.699 31.734 140.803 32.074C140.907 32.414 141.055 32.7 141.247 32.932C141.439 33.16 141.671 33.332 141.943 33.448C142.215 33.564 142.519 33.622 142.855 33.622C143.155 33.622 143.415 33.59 143.635 33.526C143.855 33.458 144.039 33.384 144.187 33.304C144.339 33.22 144.459 33.146 144.547 33.082C144.635 33.014 144.699 32.98 144.739 32.98C144.791 32.98 144.831 33 144.859 33.04L145.015 33.232C144.919 33.352 144.791 33.464 144.631 33.568C144.475 33.672 144.299 33.762 144.103 33.838C143.911 33.91 143.703 33.968 143.479 34.012C143.259 34.056 143.037 34.078 142.813 34.078C142.405 34.078 142.033 34.008 141.697 33.868C141.361 33.724 141.073 33.516 140.833 33.244C140.593 32.972 140.407 32.64 140.275 32.248C140.147 31.852 140.083 31.4 140.083 30.892C140.083 30.464 140.143 30.07 140.263 29.71C140.387 29.346 140.563 29.034 140.791 28.774C141.023 28.51 141.305 28.304 141.637 28.156C141.973 28.008 142.353 27.934 142.777 27.934ZM142.783 28.36C142.475 28.36 142.199 28.408 141.955 28.504C141.711 28.6 141.499 28.738 141.319 28.918C141.143 29.098 140.999 29.314 140.887 29.566C140.779 29.818 140.707 30.1 140.671 30.412H144.607C144.607 30.092 144.563 29.806 144.475 29.554C144.387 29.298 144.263 29.082 144.103 28.906C143.943 28.73 143.751 28.596 143.527 28.504C143.303 28.408 143.055 28.36 142.783 28.36Z" fill="#F0E6DF" fill-opacity="0.65"/>
<path d="M41.9462 10.9447C41.6224 12.2452 41.2741 13.5125 40.901 14.7465C40.528 15.9804 40.1586 17.1442 39.7926 18.2378H37.7024C37.4209 17.558 37.1253 16.7822 36.8156 15.9102C36.506 15.0383 36.1963 14.1073 35.8867 13.1171C35.577 12.127 35.2673 11.0851 34.9577 9.99154C34.648 8.89794 34.3454 7.78219 34.0498 6.64425H36.7523C36.879 7.26494 37.0268 7.93366 37.1957 8.65041C37.3646 9.36716 37.5405 10.0987 37.7235 10.845C37.9065 11.5913 38.0965 12.3191 38.2936 13.0285C38.4906 13.7378 38.6877 14.3881 38.8847 14.9792C39.0959 14.2994 39.3035 13.5974 39.5076 12.8733C39.7117 12.1492 39.9052 11.425 40.0882 10.7009C40.2712 9.97676 40.4436 9.2711 40.6055 8.5839C40.7673 7.89671 40.9116 7.25017 41.0383 6.64425H43.0018C43.1285 7.25017 43.2693 7.89671 43.4241 8.5839C43.5789 9.2711 43.7443 9.97676 43.9202 10.7009C44.0962 11.425 44.2862 12.1492 44.4903 12.8733C44.6944 13.5974 44.902 14.2994 45.1131 14.9792C45.2961 14.3881 45.4861 13.7378 45.6832 13.0285C45.8803 12.3191 46.0738 11.5913 46.2638 10.845C46.4538 10.0987 46.6333 9.36716 46.8022 8.65041C46.9711 7.93366 47.1189 7.26494 47.2456 6.64425H49.8847C49.5892 7.78219 49.2865 8.89794 48.9769 9.99154C48.6672 11.0851 48.3575 12.127 48.0479 13.1171C47.7382 14.1073 47.4286 15.0383 47.1189 15.9102C46.8092 16.7822 46.5066 17.558 46.211 18.2378H44.1419C43.776 17.1442 43.3995 15.9804 43.0124 14.7465C42.6253 13.5125 42.2699 12.2452 41.9462 10.9447ZM51.806 12.4965C51.806 11.4768 51.9503 10.5827 52.2389 9.8142C52.5274 9.04572 52.911 8.40657 53.3895 7.89671C53.8681 7.38686 54.417 7.00263 55.0364 6.74401C55.6557 6.48539 56.2891 6.35608 56.9366 6.35608C58.4567 6.35608 59.6426 6.85114 60.4941 7.84129C61.3457 8.83145 61.7715 10.3093 61.7715 12.2748C61.7715 12.4226 61.768 12.5888 61.7609 12.7736C61.7539 12.9583 61.7433 13.1245 61.7293 13.2723H54.4452C54.5156 14.2034 54.8288 14.9238 55.3847 15.4336C55.9407 15.9435 56.7465 16.1984 57.8022 16.1984C58.4215 16.1984 58.9881 16.1393 59.5018 16.0211C60.0156 15.9029 60.4202 15.7772 60.7158 15.6442L61.0536 17.8388C60.9129 17.9127 60.7194 17.9903 60.473 18.0716C60.2267 18.1529 59.9452 18.2267 59.6285 18.2932C59.3118 18.3598 58.9705 18.4152 58.6045 18.4595C58.2385 18.5038 57.8655 18.526 57.4855 18.526C56.5143 18.526 55.6698 18.3745 54.9519 18.0716C54.2341 17.7686 53.6429 17.3474 53.1784 16.808C52.7139 16.2686 52.3691 15.6332 52.1439 14.9016C51.9186 14.1701 51.806 13.3684 51.806 12.4965ZM59.2168 11.2994C59.2168 10.93 59.1675 10.579 59.069 10.2465C58.9705 9.91395 58.8262 9.62578 58.6362 9.38193C58.4462 9.13809 58.2139 8.94597 57.9394 8.80558C57.665 8.66518 57.3377 8.59499 56.9577 8.59499C56.5636 8.59499 56.2187 8.67257 55.9231 8.82775C55.6275 8.98292 55.3777 9.18612 55.1736 9.43735C54.9695 9.68858 54.8112 9.97676 54.6986 10.3019C54.586 10.627 54.5085 10.9595 54.4663 11.2994H59.2168ZM67.0709 12.4078C67.0709 13.5901 67.3383 14.5174 67.8732 15.1898C68.4081 15.8622 69.147 16.1984 70.0901 16.1984C70.4983 16.1984 70.8467 16.18 71.1352 16.143C71.4238 16.1061 71.6595 16.0654 71.8425 16.0211V9.37085C71.6173 9.20829 71.3182 9.05681 70.9452 8.91642C70.5722 8.77602 70.1746 8.70583 69.7523 8.70583C68.8233 8.70583 68.1442 9.03833 67.7149 9.70336C67.2856 10.3684 67.0709 11.2699 67.0709 12.4078ZM74.3972 17.8832C73.8905 18.0457 73.2536 18.1935 72.4865 18.3265C71.7193 18.4595 70.9135 18.526 70.069 18.526C69.1963 18.526 68.4151 18.3856 67.7254 18.1048C67.0357 17.824 66.4481 17.4213 65.9625 16.8967C65.4769 16.3721 65.1039 15.7366 64.8435 14.9903C64.5831 14.244 64.4529 13.4053 64.4529 12.4743C64.4529 11.558 64.562 10.7268 64.7801 9.98045C64.9983 9.23415 65.3185 8.59499 65.7408 8.06297C66.1631 7.53095 66.6768 7.12086 67.282 6.83268C67.8873 6.5445 68.584 6.40041 69.3723 6.40041C69.9071 6.40041 70.3787 6.46691 70.7868 6.59992C71.195 6.73292 71.5469 6.8807 71.8425 7.04327V1.47924L74.3972 1.03589V17.8832ZM77.6275 12.4965C77.6275 11.4768 77.7718 10.5827 78.0604 9.8142C78.3489 9.04572 78.7325 8.40657 79.211 7.89671C79.6896 7.38686 80.2385 7.00263 80.8579 6.74401C81.4772 6.48539 82.1106 6.35608 82.7581 6.35608C84.2782 6.35608 85.4641 6.85114 86.3156 7.84129C87.1672 8.83145 87.593 10.3093 87.593 12.2748C87.593 12.4226 87.5895 12.5888 87.5824 12.7736C87.5754 12.9583 87.5648 13.1245 87.5508 13.2723H80.2667C80.3371 14.2034 80.6502 14.9238 81.2062 15.4336C81.7622 15.9435 82.568 16.1984 83.6237 16.1984C84.243 16.1984 84.8096 16.1393 85.3233 16.0211C85.8371 15.9029 86.2417 15.7772 86.5373 15.6442L86.8751 17.8388C86.7344 17.9127 86.5408 17.9903 86.2945 18.0716C86.0482 18.1529 85.7667 18.2267 85.45 18.2932C85.1333 18.3598 84.792 18.4152 84.426 18.4595C84.06 18.5038 83.687 18.526 83.307 18.526C82.3358 18.526 81.4913 18.3745 80.7734 18.0716C80.0556 17.7686 79.4644 17.3474 78.9999 16.808C78.5354 16.2686 78.1906 15.6332 77.9654 14.9016C77.7401 14.1701 77.6275 13.3684 77.6275 12.4965ZM85.0383 11.2994C85.0383 10.93 84.989 10.579 84.8905 10.2465C84.792 9.91395 84.6477 9.62578 84.4577 9.38193C84.2677 9.13809 84.0354 8.94597 83.7609 8.80558C83.4865 8.66518 83.1592 8.59499 82.7792 8.59499C82.3851 8.59499 82.0402 8.67257 81.7446 8.82775C81.449 8.98292 81.1992 9.18612 80.9951 9.43735C80.791 9.68858 80.6327 9.97676 80.5201 10.3019C80.4075 10.627 80.33 10.9595 80.2878 11.2994H85.0383ZM93.7158 18.2378C93.0121 16.7157 92.2907 14.9681 91.5517 12.9952C90.8128 11.0223 90.1407 8.90534 89.5354 6.64425H92.259C92.4138 7.2945 92.5933 7.99277 92.7974 8.73908C93.0015 9.48538 93.2197 10.2317 93.4519 10.978C93.6842 11.7243 93.9234 12.4484 94.1698 13.1504C94.4161 13.8524 94.6448 14.4841 94.8559 15.0457C95.0671 14.4841 95.2923 13.8524 95.5316 13.1504C95.7709 12.4484 96.0066 11.7243 96.2389 10.978C96.4711 10.2317 96.6928 9.48538 96.9039 8.73908C97.1151 7.99277 97.298 7.2945 97.4529 6.64425H100.092C99.4868 8.90534 98.8147 11.0223 98.0757 12.9952C97.3367 14.9681 96.6154 16.7157 95.9116 18.2378H93.7158ZM101.718 12.4965C101.718 11.4768 101.862 10.5827 102.151 9.8142C102.439 9.04572 102.823 8.40657 103.301 7.89671C103.78 7.38686 104.329 7.00263 104.948 6.74401C105.567 6.48539 106.201 6.35608 106.848 6.35608C108.368 6.35608 109.554 6.85114 110.406 7.84129C111.257 8.83145 111.683 10.3093 111.683 12.2748C111.683 12.4226 111.68 12.5888 111.673 12.7736C111.666 12.9583 111.655 13.1245 111.641 13.2723H104.357C104.427 14.2034 104.74 14.9238 105.296 15.4336C105.852 15.9435 106.658 16.1984 107.714 16.1984C108.333 16.1984 108.9 16.1393 109.414 16.0211C109.927 15.9029 110.332 15.7772 110.628 15.6442L110.965 17.8388C110.825 17.9127 110.631 17.9903 110.385 18.0716C110.138 18.1529 109.857 18.2267 109.54 18.2932C109.224 18.3598 108.882 18.4152 108.516 18.4595C108.15 18.5038 107.777 18.526 107.397 18.526C106.426 18.526 105.581 18.3745 104.864 18.0716C104.146 17.7686 103.555 17.3474 103.09 16.808C102.626 16.2686 102.281 15.6332 102.056 14.9016C101.83 14.1701 101.718 13.3684 101.718 12.4965ZM109.129 11.2994C109.129 10.93 109.079 10.579 108.981 10.2465C108.882 9.91395 108.738 9.62578 108.548 9.38193C108.358 9.13809 108.126 8.94597 107.851 8.80558C107.577 8.66518 107.249 8.59499 106.869 8.59499C106.475 8.59499 106.13 8.67257 105.835 8.82775C105.539 8.98292 105.289 9.18612 105.085 9.43735C104.881 9.68858 104.723 9.97676 104.61 10.3019C104.498 10.627 104.42 10.9595 104.378 11.2994H109.129ZM118.819 18.4595C118.059 18.4447 117.43 18.3561 116.93 18.1935C116.43 18.0309 116.033 17.7982 115.737 17.4952C115.441 17.1923 115.234 16.8154 115.114 16.3647C114.994 15.9139 114.935 15.4004 114.935 14.824V1.47924L117.489 1.03589V14.3142C117.489 14.6393 117.514 14.9127 117.563 15.1344C117.613 15.3561 117.7 15.5445 117.827 15.6997C117.954 15.8548 118.126 15.9731 118.344 16.0543C118.563 16.1356 118.841 16.1984 119.178 16.2428L118.819 18.4595ZM131.825 12.43C131.825 13.3462 131.699 14.1812 131.445 14.9349C131.192 15.6886 130.833 16.3314 130.368 16.8634C129.904 17.3955 129.344 17.8093 128.69 18.1048C128.035 18.4004 127.314 18.5482 126.526 18.5482C125.738 18.5482 125.02 18.4004 124.372 18.1048C123.725 17.8093 123.169 17.3955 122.704 16.8634C122.24 16.3314 121.877 15.6886 121.617 14.9349C121.357 14.1812 121.226 13.3462 121.226 12.43C121.226 11.5137 121.357 10.6824 121.617 9.93612C121.877 9.18981 122.243 8.55066 122.715 8.01863C123.186 7.48661 123.746 7.07652 124.393 6.78834C125.041 6.50016 125.752 6.35608 126.526 6.35608C127.3 6.35608 128.014 6.50016 128.669 6.78834C129.323 7.07652 129.883 7.48661 130.347 8.01863C130.812 8.55066 131.174 9.18981 131.435 9.93612C131.695 10.6824 131.825 11.5137 131.825 12.43ZM129.207 12.43C129.207 11.2772 128.971 10.3647 128.5 9.69228C128.028 9.01986 127.37 8.68366 126.526 8.68366C125.681 8.68366 125.023 9.01986 124.552 9.69228C124.08 10.3647 123.844 11.2772 123.844 12.43C123.844 13.5974 124.08 14.5211 124.552 15.2009C125.023 15.8807 125.681 16.2206 126.526 16.2206C127.37 16.2206 128.028 15.8807 128.5 15.2009C128.971 14.5211 129.207 13.5974 129.207 12.43ZM142.382 12.4965C142.382 11.2994 142.125 10.3684 141.611 9.70336C141.097 9.03833 140.271 8.70583 139.13 8.70583C138.891 8.70583 138.641 8.71691 138.381 8.73908C138.12 8.76124 137.864 8.80927 137.61 8.88317V15.5112C137.835 15.6738 138.135 15.8253 138.508 15.9657C138.881 16.1061 139.278 16.1763 139.7 16.1763C140.629 16.1763 141.309 15.8437 141.738 15.1787C142.167 14.5137 142.382 13.6196 142.382 12.4965ZM145 12.4521C145 13.3388 144.891 14.1516 144.673 14.8905C144.454 15.6295 144.141 16.2649 143.733 16.7969C143.325 17.329 142.815 17.7428 142.202 18.0383C141.59 18.3339 140.897 18.4817 140.123 18.4817C139.602 18.4817 139.123 18.4152 138.687 18.2822C138.251 18.1492 137.892 18.0014 137.61 17.8388V22.3388H135.056V7.0211C135.576 6.87332 136.217 6.73292 136.977 6.59992C137.737 6.46691 138.539 6.40041 139.384 6.40041C140.256 6.40041 141.038 6.5408 141.727 6.82159C142.417 7.10238 143.005 7.50509 143.49 8.02972C143.976 8.55435 144.349 9.18981 144.609 9.93612C144.87 10.6824 145 11.5211 145 12.4521Z" fill="#F0E6DF" fill-opacity="0.65"/>
<path d="M25.1223 0.0213141L17.858 3.25637C16.2542 3.96391 14.8443 5.10248 13.7618 6.56412L5.4482 17.9486L2.47523 17.745L0 20.9147L4.43255 24.2878L2.73755 29.6893L6.55802 25.9017L12.2753 20.2458L7.91671 26.9195L15.8401 32.9607L17.7638 29.3694L16.58 26.4179L23.6896 14.1174C24.6054 12.5248 25.1287 10.7054 25.2097 8.83229L25.5796 0.355724C25.5752 0.238055 25.5194 0.129652 25.4291 0.0636671C25.3389 -0.00231833 25.225 -0.0180381 25.1223 0.0213141Z" fill="#F0E6DF" fill-opacity="0.65"/>
<path d="M10.4645 30.0223L7.8774 28.0776L1.16284 37.8438L10.4645 30.0223Z" fill="#F0E6DF" fill-opacity="0.65"/>
</svg>
