<svg width="399" height="488" viewBox="0 0 399 488" fill="none" xmlns="http://www.w3.org/2000/svg">
<rect width="399" height="488" fill="#E5E5E5"/>
<g clip-path="url(#clip0)">
<rect x="-1041" y="-3790" width="1440" height="5211" fill="#393939"/>
<path d="M260.993 44.9522V1.5H281.219V44.9522H260.993Z" fill="#F0E6DF" fill-opacity="0.16" stroke="#393939" stroke-width="3"/>
<path d="M213.796 60.7387L181.5 31.6686L195.031 16.6355L227.327 45.7056L213.796 60.7387Z" fill="#F0E6DF" fill-opacity="0.16" stroke="#393939" stroke-width="3"/>
<path d="M334.382 60.7403L320.85 45.7073L353.146 16.6372L366.678 31.6702L334.382 60.7403Z" fill="#F0E6DF" fill-opacity="0.16" stroke="#393939" stroke-width="3"/>
<path d="M84.1547 451.245L138.785 465.884L133.546 485.423L1.83431 450.129L7.04376 430.535L61.6819 445.241L63.1317 445.631L63.5205 444.181L96.8151 320.014L97.1583 318.734L95.9307 318.236C75.3071 309.86 58.4561 294.235 48.5493 274.302C38.6426 254.368 36.3634 231.501 42.1407 210.005L42.141 210.004L51.6288 174.584L51.6289 174.584L83.6874 54.9435L260.269 102.257L218.712 257.315C213.478 276.741 201.993 293.903 186.032 306.149C170.071 318.395 150.521 325.044 130.404 325.07C126.262 325.062 122.126 324.764 118.026 324.18L116.71 323.992L116.365 325.276L83.0941 449.408L82.7057 450.857L84.1547 451.245ZM99.4359 80.1444L97.987 79.7561L97.5988 81.205L72.7701 173.854L72.264 175.742H74.2189H218.557H219.71L220.007 174.629L235.104 118.05L235.49 116.602L234.043 116.214L99.4359 80.1444ZM68.7179 269.316L69.1515 270.063H69.2129C76.2439 281.913 86.5671 291.473 98.935 297.575C111.563 303.805 125.755 306.149 139.716 304.312C153.676 302.474 166.778 296.537 177.364 287.251C187.95 277.966 195.543 265.749 199.184 252.147L199.192 252.12L199.198 252.092L211.554 197.813L211.971 195.98H210.092H67.9247H66.7736L66.4758 197.092L61.5992 215.298C59.1584 224.325 58.5308 233.748 59.7526 243.019C60.9745 252.291 64.0216 261.229 68.7179 269.316Z" fill="#F0E6DF" fill-opacity="0.16" stroke="#393939" stroke-width="3"/>
<path d="M490.946 279.364L490.943 279.37C480.824 296.956 465.101 310.64 446.286 318.235L445.055 318.732L445.399 320.014L478.694 444.181L479.082 445.63L480.531 445.241L535.138 430.591L540.377 450.129L408.668 485.423L403.429 465.884L458.06 451.245L459.508 450.857L459.12 449.408L425.849 325.276L425.505 323.994L424.191 324.179C402.136 327.285 379.708 322.197 361.152 309.878C342.597 297.559 329.202 278.864 323.504 257.333L323.503 257.328L281.945 102.257L458.527 54.9435L490.597 174.584L490.597 174.584L500.085 210.004L500.086 210.008C503.225 221.598 504.033 233.696 502.465 245.602C500.896 257.507 496.981 268.983 490.946 279.364ZM444.616 81.1469L444.227 79.6979L442.778 80.0863L308.229 116.156L306.782 116.544L307.169 117.992L322.266 174.571L322.563 175.684H323.715H467.995H469.95L469.444 173.796L444.616 81.1469ZM430.21 302.413L430.212 302.412C448.443 297.525 463.987 285.596 473.424 269.249C482.862 252.902 485.419 233.475 480.535 215.243L475.657 197.034L475.359 195.922H474.208H332.123H330.242L330.66 197.755L343.04 252.081L343.046 252.11L343.054 252.139C347.971 270.346 359.906 285.862 376.243 295.286C392.58 304.71 411.986 307.272 430.21 302.413Z" fill="#F0E6DF" fill-opacity="0.16" stroke="#393939" stroke-width="3"/>
</g>
<defs>
<clipPath id="clip0">
<rect x="-1041" y="-3790" width="1440" height="5211" fill="white"/>
</clipPath>
</defs>
</svg>
