<svg width="440" height="420" viewBox="0 0 440 420" fill="none" xmlns="http://www.w3.org/2000/svg">
<path d="M317.241 419.343C314.735 419.343 311.727 418.841 308.72 417.838C304.71 416.333 298.695 415.33 291.677 413.825C272.629 409.812 250.573 405.298 242.553 393.761C233.029 379.214 227.515 368.179 228.017 353.632C228.017 353.131 228.017 352.629 224.007 349.619C216.989 344.603 205.961 336.578 198.442 313.002C188.918 282.404 171.374 277.388 170.372 277.388C169.87 277.388 169.87 277.388 169.369 276.887C166.361 275.883 156.837 272.372 150.321 272.372C148.316 272.372 147.815 272.874 147.815 272.874C146.812 273.877 144.807 278.391 143.805 281.401C140.296 290.43 135.283 302.469 122.752 303.973C122.25 303.973 121.248 303.973 120.747 303.973C105.208 303.973 61.5978 285.916 60.5952 267.858V265.35C60.094 254.816 59.5927 243.781 45.5574 231.24C36.0334 222.713 28.5145 214.687 22.4994 208.668C16.9855 203.15 12.4741 198.134 8.96529 195.125C5.95772 192.617 3.45141 189.607 1.44636 186.096C-0.558687 182.083 -0.558687 177.067 1.94762 173.054C4.45393 169.041 8.96529 166.533 13.4766 166.533H107.213V13.5434C107.213 6.01927 113.228 0 120.747 0H211.475C218.994 0 225.009 5.51767 225.009 13.0418L227.515 77.2474C228.518 77.2474 230.022 77.749 232.027 77.2474C244.057 75.2409 252.077 83.7682 255.586 91.2923C256.589 92.2955 259.095 92.2955 262.604 90.7907C266.113 89.2859 269.621 88.2827 272.629 88.2827C280.148 88.2827 285.161 92.2955 287.667 94.8036L288.168 95.3052C291.176 95.8068 297.191 96.81 302.705 96.81C306.715 96.81 308.72 96.3084 310.224 95.8068C313.231 94.8036 315.737 94.302 318.745 94.302C324.76 94.302 328.77 96.81 331.778 98.3148C332.279 98.3148 332.78 98.8164 332.78 98.8164C332.78 98.8164 333.282 98.8164 334.284 98.8164C339.297 98.8164 349.322 96.81 354.335 91.7939C357.342 89.2859 360.851 87.7811 364.36 87.7811C373.383 87.7811 381.904 96.3084 385.914 101.324C390.927 103.331 396.441 104.836 399.448 104.836C406.967 104.836 412.481 110.353 412.982 117.376C413.484 125.402 414.486 140.45 415.489 161.517C424.511 167.536 428.02 173.556 427.519 179.575C427.519 182.083 430.025 190.61 432.03 193.62C434.035 194.122 436.04 195.626 437.544 199.138C440.05 205.157 441.053 220.707 434.537 228.231C433.534 229.736 433.534 235.755 434.537 240.269C437.544 247.793 440.05 261.838 428.521 267.858C424.01 270.366 418.496 271.369 412.481 272.372C405.463 273.375 396.942 274.88 395.438 278.391C389.924 290.43 357.843 310.996 339.297 322.031C337.292 324.038 318.745 341.594 321.251 358.648C324.259 379.716 332.78 397.774 333.282 397.774C333.783 398.777 334.284 399.78 334.284 401.285C333.783 410.815 327.768 419.343 317.241 419.343ZM174.883 262.34C179.394 263.845 201.45 271.871 212.979 307.986C218.994 327.047 227.014 332.565 233.029 337.079C238.042 340.591 244.057 345.105 243.556 354.134C243.055 364.668 247.566 373.195 255.586 385.234C260.097 391.754 281.15 396.269 295.186 399.279C302.705 400.783 309.221 402.288 313.732 403.793C317.241 404.796 318.244 404.295 318.244 404.295C318.244 404.295 318.244 403.793 318.745 403.793C316.239 397.774 309.221 381.722 306.715 362.16C303.206 338.083 325.261 316.012 329.773 311.999C330.274 311.497 331.277 310.996 331.778 310.494C357.342 294.944 379.899 278.391 382.405 273.375C387.919 262.34 400.451 260.334 410.977 258.829C414.987 258.327 420 257.324 422.005 256.321C424.01 255.318 422.506 249.298 421.504 247.292C421.504 246.79 421.002 246.79 421.002 246.289C420 243.279 416.491 228.231 424.01 219.704C425.013 218.199 425.514 211.678 425.013 208.167C424.01 207.665 423.509 207.163 422.506 206.16C417.995 201.144 413.484 187.601 413.484 180.578C412.982 179.575 410.977 177.569 407.468 175.061C403.96 172.553 401.955 169.041 401.453 164.527C400.451 139.948 399.448 127.408 399.448 121.389C392.431 120.887 384.912 118.379 380.902 116.373C378.896 115.369 376.891 114.366 375.889 112.36C371.378 106.842 367.367 104.334 365.864 104.334C357.844 111.858 344.811 115.369 335.788 115.369C332.279 115.369 329.773 114.868 327.768 113.865C326.765 113.363 326.264 112.861 325.261 112.36C321.753 110.353 320.249 109.852 316.74 110.855C313.231 111.858 309.221 112.861 304.208 112.861C296.188 112.861 288.669 111.357 285.662 110.855C282.654 110.353 280.649 108.347 279.145 107.344C275.637 104.334 274.133 103.832 270.123 105.337C260.599 109.852 250.573 108.347 245.06 101.826C244.057 100.823 243.556 99.8196 243.055 98.3148C242.553 97.3116 240.047 91.7939 235.536 92.7971C228.518 93.8004 223.004 92.7971 218.493 89.7875C215.485 87.2795 213.48 83.7682 213.48 79.7554L209.971 15.0482H123.253V167.536C123.253 175.061 117.238 181.08 109.719 181.08H16.9855C17.4867 181.581 17.988 182.083 18.4893 182.585C23.0006 186.096 28.0132 191.614 33.5271 197.131C39.5423 203.652 46.5599 211.176 55.5826 219.202C74.1293 235.755 75.1318 252.308 75.6331 263.845V266.353C77.6381 272.372 108.215 287.922 120.747 287.922H121.248C124.757 287.42 127.764 280.398 129.769 274.88C132.276 268.861 134.281 263.343 138.291 260.334C141.298 257.826 145.308 256.822 150.321 256.822C160.346 256.822 172.377 261.337 174.883 262.34Z" fill="#F0E6DF" fill-opacity="0.16"/>
</svg>
